<mxfile host="app.diagrams.net" agent="Mozilla/5.0 (Windows NT 10.0; Win64; x64) AppleWebKit/537.36 (KHTML, like Gecko) Chrome/140.0.0.0 Safari/537.36" version="28.2.3" pages="5">
  <diagram id="qBYF225HcmgvZlx19EYS" name="Page-2">
    <mxGraphModel dx="1733" dy="489" grid="1" gridSize="10" guides="1" tooltips="1" connect="1" arrows="1" fold="1" page="1" pageScale="1" pageWidth="827" pageHeight="1169" math="0" shadow="0">
      <root>
        <mxCell id="0" />
        <mxCell id="1" parent="0" />
        <mxCell id="eWDks149u7aoZhE5jPlj-1" value="" style="dashed=0;outlineConnect=0;html=1;align=center;labelPosition=center;verticalLabelPosition=bottom;verticalAlign=top;shape=mxgraph.webicons.whatsapp;fillColor=#4FE238;gradientColor=#138709" parent="1" vertex="1">
          <mxGeometry x="180" y="40" width="90" height="92.4" as="geometry" />
        </mxCell>
        <mxCell id="eWDks149u7aoZhE5jPlj-2" value="" style="shape=image;html=1;verticalAlign=top;verticalLabelPosition=bottom;labelBackgroundColor=#ffffff;imageAspect=0;aspect=fixed;image=https://icons.diagrams.net/icon-cache1/Social_Media_Solid-2188/BW_Whatsapp_glyph_svg-664.svg" parent="1" vertex="1">
          <mxGeometry x="300" y="40" width="120" height="120" as="geometry" />
        </mxCell>
        <mxCell id="eWDks149u7aoZhE5jPlj-3" style="edgeStyle=orthogonalEdgeStyle;rounded=0;orthogonalLoop=1;jettySize=auto;html=1;" parent="1" source="eWDks149u7aoZhE5jPlj-2" target="eWDks149u7aoZhE5jPlj-2" edge="1">
          <mxGeometry relative="1" as="geometry" />
        </mxCell>
        <mxCell id="eWDks149u7aoZhE5jPlj-4" value="" style="dashed=0;outlineConnect=0;html=1;align=center;labelPosition=center;verticalLabelPosition=bottom;verticalAlign=top;shape=mxgraph.weblogos.instagram;fillColor=#6FC0E4;gradientColor=#1E305B" parent="1" vertex="1">
          <mxGeometry x="60" y="39.99999999999999" width="72.2" height="72.2" as="geometry" />
        </mxCell>
        <mxCell id="eWDks149u7aoZhE5jPlj-5" value="" style="verticalLabelPosition=bottom;aspect=fixed;html=1;shape=mxgraph.salesforce.integration;fillColorStyles=fillColor2,fillColor3,fillColor4;fillColor2=#032d60;fillColor3=#0d9dda;fillColor4=#ffffff;fillColor=none;strokeColor=none;" parent="1" vertex="1">
          <mxGeometry x="-30" y="30" width="60" height="60" as="geometry" />
        </mxCell>
        <mxCell id="eWDks149u7aoZhE5jPlj-6" value="" style="outlineConnect=0;dashed=0;verticalLabelPosition=bottom;verticalAlign=top;align=center;html=1;shape=mxgraph.aws3.kinesis_streams;fillColor=#F58534;gradientColor=none;" parent="1" vertex="1">
          <mxGeometry x="430" y="40" width="140" height="140" as="geometry" />
        </mxCell>
        <mxCell id="eWDks149u7aoZhE5jPlj-7" value="" style="shape=parallelogram;perimeter=parallelogramPerimeter;whiteSpace=wrap;html=1;fixedSize=1;" parent="1" vertex="1">
          <mxGeometry x="660" y="40" width="110" height="260" as="geometry" />
        </mxCell>
        <mxCell id="eWDks149u7aoZhE5jPlj-10" value="" style="shape=image;html=1;verticalAlign=top;verticalLabelPosition=bottom;labelBackgroundColor=#ffffff;imageAspect=0;aspect=fixed;image=https://icons.diagrams.net/icon-cache1/Social_Media-2937/1_Snapchat_colored_svg-1006.svg" parent="1" vertex="1">
          <mxGeometry x="680" y="60.4" width="72" height="72" as="geometry" />
        </mxCell>
        <mxCell id="eWDks149u7aoZhE5jPlj-11" value="" style="shape=image;html=1;verticalAlign=top;verticalLabelPosition=bottom;labelBackgroundColor=#ffffff;imageAspect=0;aspect=fixed;image=https://icons.diagrams.net/icon-cache1/Social_Media_Solid-2188/BW_Snapchat_2_glyph_svg-678.svg" parent="1" vertex="1">
          <mxGeometry x="680" y="149" width="62" height="62" as="geometry" />
        </mxCell>
        <mxCell id="eWDks149u7aoZhE5jPlj-12" value="" style="shape=image;html=1;verticalAlign=top;verticalLabelPosition=bottom;labelBackgroundColor=#ffffff;imageAspect=0;aspect=fixed;image=https://icons.diagrams.net/icon-cache1/2018_Social_media_logotypes-2511/2018_social_media_popular_app_logo_snapchat-683.svg" parent="1" vertex="1">
          <mxGeometry x="674.2" y="222.2" width="77.8" height="77.8" as="geometry" />
        </mxCell>
        <mxCell id="eWDks149u7aoZhE5jPlj-19" value="" style="edgeStyle=orthogonalEdgeStyle;rounded=0;orthogonalLoop=1;jettySize=auto;html=1;" parent="1" source="eWDks149u7aoZhE5jPlj-13" target="eWDks149u7aoZhE5jPlj-18" edge="1">
          <mxGeometry relative="1" as="geometry" />
        </mxCell>
        <mxCell id="eWDks149u7aoZhE5jPlj-13" value="Actor" style="shape=umlActor;verticalLabelPosition=bottom;verticalAlign=top;html=1;outlineConnect=0;" parent="1" vertex="1">
          <mxGeometry x="40" y="250" width="100" height="140" as="geometry" />
        </mxCell>
        <mxCell id="eWDks149u7aoZhE5jPlj-14" value="" style="endArrow=none;html=1;rounded=0;" parent="1" edge="1">
          <mxGeometry width="50" height="50" relative="1" as="geometry">
            <mxPoint x="340" y="260" as="sourcePoint" />
            <mxPoint x="390" y="210" as="targetPoint" />
          </mxGeometry>
        </mxCell>
        <mxCell id="eWDks149u7aoZhE5jPlj-21" value="" style="edgeStyle=orthogonalEdgeStyle;rounded=0;orthogonalLoop=1;jettySize=auto;html=1;" parent="1" source="eWDks149u7aoZhE5jPlj-18" target="eWDks149u7aoZhE5jPlj-20" edge="1">
          <mxGeometry relative="1" as="geometry" />
        </mxCell>
        <mxCell id="eWDks149u7aoZhE5jPlj-18" value="Actor" style="shape=umlActor;verticalLabelPosition=bottom;verticalAlign=top;html=1;outlineConnect=0;" parent="1" vertex="1">
          <mxGeometry x="220" y="250" width="100" height="140" as="geometry" />
        </mxCell>
        <mxCell id="eWDks149u7aoZhE5jPlj-20" value="Actor" style="shape=umlActor;verticalLabelPosition=bottom;verticalAlign=top;html=1;outlineConnect=0;" parent="1" vertex="1">
          <mxGeometry x="400" y="250" width="100" height="140" as="geometry" />
        </mxCell>
        <mxCell id="eWDks149u7aoZhE5jPlj-22" style="edgeStyle=orthogonalEdgeStyle;rounded=0;orthogonalLoop=1;jettySize=auto;html=1;exitX=0.5;exitY=0;exitDx=0;exitDy=0;exitPerimeter=0;" parent="1" source="eWDks149u7aoZhE5jPlj-20" target="eWDks149u7aoZhE5jPlj-20" edge="1">
          <mxGeometry relative="1" as="geometry" />
        </mxCell>
        <mxCell id="eWDks149u7aoZhE5jPlj-23" value="" style="shape=flexArrow;endArrow=classic;html=1;rounded=0;" parent="1" edge="1">
          <mxGeometry width="50" height="50" relative="1" as="geometry">
            <mxPoint x="100" y="1090" as="sourcePoint" />
            <mxPoint x="780" y="830" as="targetPoint" />
            <Array as="points">
              <mxPoint x="100" y="840" />
            </Array>
          </mxGeometry>
        </mxCell>
      </root>
    </mxGraphModel>
  </diagram>
  <diagram name="Page-1" id="m-340tMgawpZFGbj9iwj">
    <mxGraphModel dx="1097" dy="592" grid="1" gridSize="10" guides="1" tooltips="1" connect="1" arrows="1" fold="1" page="1" pageScale="1" pageWidth="827" pageHeight="1169" math="0" shadow="0">
      <root>
        <mxCell id="0" />
        <mxCell id="1" parent="0" />
        <mxCell id="ftZfjIKg_k6gxxX-hKMU-1" value="Student information system" style="rounded=0;whiteSpace=wrap;html=1;" parent="1" vertex="1">
          <mxGeometry x="290" width="310" height="60" as="geometry" />
        </mxCell>
        <mxCell id="ftZfjIKg_k6gxxX-hKMU-3" style="edgeStyle=orthogonalEdgeStyle;rounded=0;orthogonalLoop=1;jettySize=auto;html=1;exitX=0.5;exitY=1;exitDx=0;exitDy=0;" parent="1" source="ftZfjIKg_k6gxxX-hKMU-1" target="ftZfjIKg_k6gxxX-hKMU-1" edge="1">
          <mxGeometry relative="1" as="geometry" />
        </mxCell>
        <mxCell id="ftZfjIKg_k6gxxX-hKMU-10" value="" style="edgeStyle=orthogonalEdgeStyle;rounded=0;orthogonalLoop=1;jettySize=auto;html=1;" parent="1" source="ftZfjIKg_k6gxxX-hKMU-5" target="ftZfjIKg_k6gxxX-hKMU-11" edge="1">
          <mxGeometry relative="1" as="geometry">
            <mxPoint x="90" y="180" as="targetPoint" />
          </mxGeometry>
        </mxCell>
        <mxCell id="ftZfjIKg_k6gxxX-hKMU-40" value="" style="edgeStyle=orthogonalEdgeStyle;rounded=0;orthogonalLoop=1;jettySize=auto;html=1;" parent="1" source="ftZfjIKg_k6gxxX-hKMU-5" target="ftZfjIKg_k6gxxX-hKMU-6" edge="1">
          <mxGeometry relative="1" as="geometry">
            <Array as="points">
              <mxPoint x="260" y="100" />
              <mxPoint x="260" y="100" />
            </Array>
          </mxGeometry>
        </mxCell>
        <mxCell id="ftZfjIKg_k6gxxX-hKMU-5" value="Admin" style="rounded=0;whiteSpace=wrap;html=1;" parent="1" vertex="1">
          <mxGeometry x="10" y="80" width="160" height="40" as="geometry" />
        </mxCell>
        <mxCell id="ftZfjIKg_k6gxxX-hKMU-71" value="" style="edgeStyle=orthogonalEdgeStyle;rounded=0;orthogonalLoop=1;jettySize=auto;html=1;" parent="1" source="ftZfjIKg_k6gxxX-hKMU-6" target="ftZfjIKg_k6gxxX-hKMU-17" edge="1">
          <mxGeometry relative="1" as="geometry" />
        </mxCell>
        <mxCell id="ftZfjIKg_k6gxxX-hKMU-6" value="login to system" style="ellipse;whiteSpace=wrap;html=1;aspect=fixed;" parent="1" vertex="1">
          <mxGeometry x="260" y="80" width="60" height="60" as="geometry" />
        </mxCell>
        <mxCell id="ftZfjIKg_k6gxxX-hKMU-42" value="" style="edgeStyle=orthogonalEdgeStyle;rounded=0;orthogonalLoop=1;jettySize=auto;html=1;" parent="1" edge="1">
          <mxGeometry relative="1" as="geometry">
            <mxPoint x="429.99999999999955" y="140" as="sourcePoint" />
            <mxPoint x="430" y="190" as="targetPoint" />
          </mxGeometry>
        </mxCell>
        <mxCell id="ftZfjIKg_k6gxxX-hKMU-13" value="" style="edgeStyle=orthogonalEdgeStyle;rounded=0;orthogonalLoop=1;jettySize=auto;html=1;" parent="1" source="ftZfjIKg_k6gxxX-hKMU-11" target="ftZfjIKg_k6gxxX-hKMU-12" edge="1">
          <mxGeometry relative="1" as="geometry" />
        </mxCell>
        <mxCell id="ftZfjIKg_k6gxxX-hKMU-11" value="Forgot password" style="ellipse;whiteSpace=wrap;html=1;aspect=fixed;" parent="1" vertex="1">
          <mxGeometry x="55" y="175" width="70" height="70" as="geometry" />
        </mxCell>
        <mxCell id="ftZfjIKg_k6gxxX-hKMU-12" value="Send email to user" style="ellipse;whiteSpace=wrap;html=1;aspect=fixed;" parent="1" vertex="1">
          <mxGeometry x="55" y="290" width="70" height="70" as="geometry" />
        </mxCell>
        <mxCell id="ftZfjIKg_k6gxxX-hKMU-14" value="Manage system admins" style="whiteSpace=wrap;html=1;" parent="1" vertex="1">
          <mxGeometry x="30" y="400" width="130" height="40" as="geometry" />
        </mxCell>
        <mxCell id="ftZfjIKg_k6gxxX-hKMU-17" value="check credentials" style="ellipse;whiteSpace=wrap;html=1;" parent="1" vertex="1">
          <mxGeometry x="210" y="150" width="80" height="80" as="geometry" />
        </mxCell>
        <mxCell id="ftZfjIKg_k6gxxX-hKMU-35" value="Manage roles of user" style="whiteSpace=wrap;html=1;" parent="1" vertex="1">
          <mxGeometry x="220" y="400" width="130" height="40" as="geometry" />
        </mxCell>
        <mxCell id="ftZfjIKg_k6gxxX-hKMU-37" value="manage user permission" style="whiteSpace=wrap;html=1;" parent="1" vertex="1">
          <mxGeometry x="430" y="400" width="130" height="40" as="geometry" />
        </mxCell>
        <mxCell id="ftZfjIKg_k6gxxX-hKMU-41" value="" style="edgeStyle=none;orthogonalLoop=1;jettySize=auto;html=1;rounded=0;" parent="1" source="ftZfjIKg_k6gxxX-hKMU-17" edge="1">
          <mxGeometry width="100" relative="1" as="geometry">
            <mxPoint x="314" y="130" as="sourcePoint" />
            <mxPoint x="414" y="130" as="targetPoint" />
            <Array as="points" />
          </mxGeometry>
        </mxCell>
        <mxCell id="ftZfjIKg_k6gxxX-hKMU-46" value="" style="edgeStyle=orthogonalEdgeStyle;rounded=0;orthogonalLoop=1;jettySize=auto;html=1;" parent="1" source="ftZfjIKg_k6gxxX-hKMU-43" target="ftZfjIKg_k6gxxX-hKMU-45" edge="1">
          <mxGeometry relative="1" as="geometry" />
        </mxCell>
        <mxCell id="ftZfjIKg_k6gxxX-hKMU-43" value="Manage timetable details" style="whiteSpace=wrap;html=1;" parent="1" vertex="1">
          <mxGeometry x="670" y="40" width="157" height="40" as="geometry" />
        </mxCell>
        <mxCell id="ftZfjIKg_k6gxxX-hKMU-48" value="" style="edgeStyle=orthogonalEdgeStyle;rounded=0;orthogonalLoop=1;jettySize=auto;html=1;" parent="1" source="ftZfjIKg_k6gxxX-hKMU-45" target="ftZfjIKg_k6gxxX-hKMU-47" edge="1">
          <mxGeometry relative="1" as="geometry" />
        </mxCell>
        <mxCell id="ftZfjIKg_k6gxxX-hKMU-45" value="Manage attendance details" style="whiteSpace=wrap;html=1;" parent="1" vertex="1">
          <mxGeometry x="670" y="120" width="157" height="40" as="geometry" />
        </mxCell>
        <mxCell id="ftZfjIKg_k6gxxX-hKMU-50" value="" style="edgeStyle=orthogonalEdgeStyle;rounded=0;orthogonalLoop=1;jettySize=auto;html=1;" parent="1" source="ftZfjIKg_k6gxxX-hKMU-47" target="ftZfjIKg_k6gxxX-hKMU-49" edge="1">
          <mxGeometry relative="1" as="geometry" />
        </mxCell>
        <mxCell id="ftZfjIKg_k6gxxX-hKMU-47" value="Manage class details" style="whiteSpace=wrap;html=1;" parent="1" vertex="1">
          <mxGeometry x="670" y="190" width="157" height="40" as="geometry" />
        </mxCell>
        <mxCell id="ftZfjIKg_k6gxxX-hKMU-52" value="" style="edgeStyle=orthogonalEdgeStyle;rounded=0;orthogonalLoop=1;jettySize=auto;html=1;" parent="1" source="ftZfjIKg_k6gxxX-hKMU-49" target="ftZfjIKg_k6gxxX-hKMU-51" edge="1">
          <mxGeometry relative="1" as="geometry" />
        </mxCell>
        <mxCell id="ftZfjIKg_k6gxxX-hKMU-49" value="manage student details" style="whiteSpace=wrap;html=1;" parent="1" vertex="1">
          <mxGeometry x="670" y="260" width="157" height="40" as="geometry" />
        </mxCell>
        <mxCell id="ftZfjIKg_k6gxxX-hKMU-54" value="" style="edgeStyle=orthogonalEdgeStyle;rounded=0;orthogonalLoop=1;jettySize=auto;html=1;" parent="1" source="ftZfjIKg_k6gxxX-hKMU-51" target="ftZfjIKg_k6gxxX-hKMU-53" edge="1">
          <mxGeometry relative="1" as="geometry" />
        </mxCell>
        <mxCell id="ftZfjIKg_k6gxxX-hKMU-51" value="Manage fees details" style="whiteSpace=wrap;html=1;" parent="1" vertex="1">
          <mxGeometry x="670" y="320" width="157" height="40" as="geometry" />
        </mxCell>
        <mxCell id="ftZfjIKg_k6gxxX-hKMU-56" value="" style="edgeStyle=orthogonalEdgeStyle;rounded=0;orthogonalLoop=1;jettySize=auto;html=1;" parent="1" source="ftZfjIKg_k6gxxX-hKMU-53" target="ftZfjIKg_k6gxxX-hKMU-55" edge="1">
          <mxGeometry relative="1" as="geometry" />
        </mxCell>
        <mxCell id="ftZfjIKg_k6gxxX-hKMU-53" value="Manage teacher details" style="whiteSpace=wrap;html=1;" parent="1" vertex="1">
          <mxGeometry x="670" y="380" width="157" height="40" as="geometry" />
        </mxCell>
        <mxCell id="ftZfjIKg_k6gxxX-hKMU-58" value="" style="endArrow=classic;html=1;rounded=0;entryX=0.5;entryY=0;entryDx=0;entryDy=0;exitX=0.22;exitY=0.958;exitDx=0;exitDy=0;exitPerimeter=0;" parent="1" target="ftZfjIKg_k6gxxX-hKMU-35" edge="1">
          <mxGeometry width="50" height="50" relative="1" as="geometry">
            <mxPoint x="407.5999999999999" y="266.64" as="sourcePoint" />
            <mxPoint x="450" y="260" as="targetPoint" />
          </mxGeometry>
        </mxCell>
        <mxCell id="ftZfjIKg_k6gxxX-hKMU-59" value="" style="endArrow=classic;html=1;rounded=0;exitX=0.6;exitY=1.017;exitDx=0;exitDy=0;exitPerimeter=0;entryX=0.074;entryY=-0.055;entryDx=0;entryDy=0;entryPerimeter=0;" parent="1" target="ftZfjIKg_k6gxxX-hKMU-37" edge="1">
          <mxGeometry width="50" height="50" relative="1" as="geometry">
            <mxPoint x="437.9999999999998" y="271.36" as="sourcePoint" />
            <mxPoint x="460" y="390" as="targetPoint" />
          </mxGeometry>
        </mxCell>
        <mxCell id="ftZfjIKg_k6gxxX-hKMU-60" value="" style="endArrow=classic;html=1;rounded=0;entryX=0;entryY=0.5;entryDx=0;entryDy=0;exitX=1;exitY=0;exitDx=0;exitDy=0;" parent="1" target="ftZfjIKg_k6gxxX-hKMU-43" edge="1">
          <mxGeometry width="50" height="50" relative="1" as="geometry">
            <mxPoint x="458.2842712474619" y="201.71572875253798" as="sourcePoint" />
            <mxPoint x="450" y="333" as="targetPoint" />
          </mxGeometry>
        </mxCell>
        <mxCell id="ftZfjIKg_k6gxxX-hKMU-61" value="" style="endArrow=classic;html=1;rounded=0;entryX=0;entryY=0.75;entryDx=0;entryDy=0;exitX=1;exitY=0.5;exitDx=0;exitDy=0;" parent="1" target="ftZfjIKg_k6gxxX-hKMU-45" edge="1">
          <mxGeometry width="50" height="50" relative="1" as="geometry">
            <mxPoint x="470" y="229" as="sourcePoint" />
            <mxPoint x="692" y="229" as="targetPoint" />
          </mxGeometry>
        </mxCell>
        <mxCell id="ftZfjIKg_k6gxxX-hKMU-62" value="" style="endArrow=classic;html=1;rounded=0;exitX=1.02;exitY=0.608;exitDx=0;exitDy=0;exitPerimeter=0;entryX=0;entryY=0.5;entryDx=0;entryDy=0;" parent="1" target="ftZfjIKg_k6gxxX-hKMU-47" edge="1">
          <mxGeometry width="50" height="50" relative="1" as="geometry">
            <mxPoint x="471.5999999999999" y="238.64" as="sourcePoint" />
            <mxPoint x="660" y="230" as="targetPoint" />
          </mxGeometry>
        </mxCell>
        <mxCell id="ftZfjIKg_k6gxxX-hKMU-63" value="" style="endArrow=classic;html=1;rounded=0;entryX=0;entryY=0.5;entryDx=0;entryDy=0;" parent="1" edge="1">
          <mxGeometry width="50" height="50" relative="1" as="geometry">
            <mxPoint x="468.99858214103915" y="238.8944134707633" as="sourcePoint" />
            <mxPoint x="670" y="285.55" as="targetPoint" />
          </mxGeometry>
        </mxCell>
        <mxCell id="ftZfjIKg_k6gxxX-hKMU-64" value="" style="endArrow=classic;html=1;rounded=0;exitX=1;exitY=1;exitDx=0;exitDy=0;entryX=0;entryY=0.25;entryDx=0;entryDy=0;" parent="1" target="ftZfjIKg_k6gxxX-hKMU-51" edge="1">
          <mxGeometry width="50" height="50" relative="1" as="geometry">
            <mxPoint x="458.2842712474619" y="258.2842712474619" as="sourcePoint" />
            <mxPoint x="708" y="300" as="targetPoint" />
          </mxGeometry>
        </mxCell>
        <mxCell id="ftZfjIKg_k6gxxX-hKMU-65" value="" style="endArrow=classic;html=1;rounded=0;exitX=0.75;exitY=0.917;exitDx=0;exitDy=0;exitPerimeter=0;entryX=0;entryY=0.5;entryDx=0;entryDy=0;" parent="1" target="ftZfjIKg_k6gxxX-hKMU-53" edge="1">
          <mxGeometry width="50" height="50" relative="1" as="geometry">
            <mxPoint x="450" y="263.36" as="sourcePoint" />
            <mxPoint x="660" y="400" as="targetPoint" />
          </mxGeometry>
        </mxCell>
        <mxCell id="ftZfjIKg_k6gxxX-hKMU-66" value="" style="endArrow=classic;html=1;rounded=0;exitX=0.625;exitY=1;exitDx=0;exitDy=0;exitPerimeter=0;" parent="1" source="ftZfjIKg_k6gxxX-hKMU-55" edge="1">
          <mxGeometry width="50" height="50" relative="1" as="geometry">
            <mxPoint x="480" y="330" as="sourcePoint" />
            <mxPoint x="690" y="460" as="targetPoint" />
          </mxGeometry>
        </mxCell>
        <mxCell id="ftZfjIKg_k6gxxX-hKMU-67" value="" style="endArrow=classic;html=1;rounded=0;exitX=0.625;exitY=1;exitDx=0;exitDy=0;exitPerimeter=0;" parent="1" target="ftZfjIKg_k6gxxX-hKMU-55" edge="1">
          <mxGeometry width="50" height="50" relative="1" as="geometry">
            <mxPoint x="440" y="270" as="sourcePoint" />
            <mxPoint x="690" y="460" as="targetPoint" />
            <Array as="points">
              <mxPoint x="650" y="450" />
            </Array>
          </mxGeometry>
        </mxCell>
        <mxCell id="ftZfjIKg_k6gxxX-hKMU-55" value="Manage report" style="whiteSpace=wrap;html=1;" parent="1" vertex="1">
          <mxGeometry x="670" y="440" width="157" height="30" as="geometry" />
        </mxCell>
        <mxCell id="ftZfjIKg_k6gxxX-hKMU-69" value="" style="endArrow=classic;html=1;rounded=0;entryX=0.708;entryY=-0.015;entryDx=0;entryDy=0;entryPerimeter=0;exitX=0.03;exitY=0.678;exitDx=0;exitDy=0;exitPerimeter=0;" parent="1" target="ftZfjIKg_k6gxxX-hKMU-14" edge="1">
          <mxGeometry width="50" height="50" relative="1" as="geometry">
            <mxPoint x="392.39999999999986" y="244.24" as="sourcePoint" />
            <mxPoint x="520" y="420" as="targetPoint" />
          </mxGeometry>
        </mxCell>
        <mxCell id="ftZfjIKg_k6gxxX-hKMU-70" value="" style="edgeStyle=orthogonalEdgeStyle;rounded=0;orthogonalLoop=1;jettySize=auto;html=1;" parent="1" edge="1">
          <mxGeometry relative="1" as="geometry">
            <mxPoint x="290" y="140" as="sourcePoint" />
            <mxPoint x="290" y="190" as="targetPoint" />
            <Array as="points">
              <mxPoint x="290" y="130" />
              <mxPoint x="290" y="130" />
            </Array>
          </mxGeometry>
        </mxCell>
      </root>
    </mxGraphModel>
  </diagram>
  <diagram id="mpcAdp_qTywjglp0q6nX" name="Page-3">
    <mxGraphModel dx="1042" dy="562" grid="1" gridSize="10" guides="1" tooltips="1" connect="1" arrows="1" fold="1" page="1" pageScale="1" pageWidth="827" pageHeight="1169" math="0" shadow="0">
      <root>
        <mxCell id="0" />
        <mxCell id="1" parent="0" />
      </root>
    </mxGraphModel>
  </diagram>
  <diagram id="LOK0XzrgQayQJNofTNkQ" name="Page-4">
    <mxGraphModel dx="20840" dy="11240" grid="1" gridSize="10" guides="1" tooltips="1" connect="1" arrows="1" fold="1" page="1" pageScale="1" pageWidth="827" pageHeight="1169" math="0" shadow="0">
      <root>
        <mxCell id="0" />
        <mxCell id="1" parent="0" />
        <mxCell id="TbdEyoHSMjbv1K8xbVv2-4" style="edgeStyle=orthogonalEdgeStyle;rounded=0;orthogonalLoop=1;jettySize=auto;html=1;" edge="1" parent="1" source="TbdEyoHSMjbv1K8xbVv2-2">
          <mxGeometry relative="1" as="geometry">
            <mxPoint x="310" y="190" as="targetPoint" />
            <Array as="points">
              <mxPoint x="212" y="250" />
              <mxPoint x="212" y="191" />
            </Array>
          </mxGeometry>
        </mxCell>
        <mxCell id="TbdEyoHSMjbv1K8xbVv2-2" value="" style="shape=image;verticalLabelPosition=bottom;labelBackgroundColor=default;verticalAlign=top;aspect=fixed;imageAspect=0;image=data:image/png,iVBORw0KGgoAAAANSUhEUgAABlkAAAJECAYAAACVaUKAAAAAAXNSR0IArs4c6QAAAARnQU1BAACxjwv8YQUAAAAJcEhZcwAADsMAAA7DAcdvqGQAAP+lSURBVHhe7N0HoOXWXSf+r6TbXp3umfHMeFxjO3Z6D4Q0Ql1CZ+klsLt/FnaXsizsEghLDQQS2A0ssLC0AGkQCIQkhBQSpzqOEzu2x91TPb29dpuk//nq6jdzRnPvm/vevHLvm+/HPiPpp6OjI11dvXvPuZKCycnJFLk9e/bkYyIiIiIiIiIiIiIiIjKfMB+KiIiIiIiIiIiIiIjIAqiTRUREREREREREREREZBHUySIiIiIiIiIiIiIiIrII6mQRERERERERERERERFZBHWyiIiIiIiIiIiIiIiILII6WURERERERERERERERBZBnSwiIiIiIiIiIiIiIiKLoE4WERERERERERERERGRRVAni4iIiIiIiIiIiIiIyCKok0VERERERERERERERGQR1MkiIiIiIiIiIiIiIiKyCOpkERERERERERERERERWQR1soiIiIiIiIiIiIiIiCyCOllEREREREREREREREQWQZ0sIiIiIiIiIiIiIiIii6BOFhERERERERERERERkUVQJ4uIiIiIiIiIiIiIiMgiqJNFRERERERERERERERkEdTJIiIiIiIiIiIiIiIisgjqZBEREREREREREREREVkEdbKIiIiIiIiIiIiIiIgsgjpZREREREREREREREREFkGdLCIiIiIiIiIiIiIiIougThYREREREREREREREZFFUCeLiIiIiIiIiIiIiIjIIqiTRUREREREREREREREZBHUySIiIiIiIiIiIiIiIrII6mQRERERERERERERERFZBHWyiIiIiIiIiIiIiIiILII6WURERERERERERERERBZBnSwiIiIiIiIiIiIiIiKLoE4WERERERERERERERGRRVAni4iIiIiIiIiIiIiIyCKok0VERERERERERERERGQR1MkiIiIiIiIiIiIiIiKyCOpkERERERERERERERERWQR1soiIiIiIiIiIiIiIiCyCOllEREREREREREREREQWIZicnEzzcezZsycfExERERERERERkcuTIHDpQgFSRPm4k6YIAjbPFfOJiKyOFKV8TPqhThYREREREREREZHLFKRzCIMmwjBBiGkgrLlo2423OhlybLxM0ko+5QRA5JZD2s4DIiKrK0EVaRK789VYdr6KU57P3MlKulIni4iIiIiIiIiIyCJFOItSdBpRMI0oPY1S6yGUmp9GkMZIg+TCdklrhePQxjnf8lwpbZjc9uJ+Wcg0LUUZRYtZRi620Nei235eijKKFlNmvy617mFwbnvLbnvGkJR2ol26Ee1ot5sVop1scmkdEozk+cSok0VERERERERERGQBArRQxkFUK3UEQQth836U5+5AMHcfwuQkgvZpIGm5jPO00tqsxTTODlKDLuvCtJAG6WFg29RtXxfjHOfd3i4VI39ZG+8WMxzvp+x+Y1RcBy20Xr5ivrVkkLZnpeqSuhczrCINx4BoFElpK+KRZyKuvQhx6Vq02iFa8VWIsd5l7nVQXFnUySIiIiIiIiIiItKHMGigEh5BpXwGpbCO4MyHUZp6J4LWEWTPXkniPOcyYpum36i9WtZK2+pCtsP2PQ3Ca7CS/G33x6k4Tf7+Kc4bVv52+Nu30lZ4f2abGpaQutQeeznisVchGLkB9dZ6zDV3IA1GOxmvYOpkERERERERERERuUiKAG2XYpTCKVTCA6jgCSCZQTT9YYRTH0eYnl3ZBs/VatT1DUIdLtdit4GvdZgPrxRZC3tntC/M6++fbvtsLew/2wYOl+M9UdyPRau1D1mvsIq4+lQk4y9HPPI0JOkI6vEOtNOrXLVqbrrcyXsFUSeLiIiIiIiIiIiIJwrmEARNlIMjqAQHECWHEdT3IJr7HMK5PQjS2TznClmORtyFGoQ6LMZKNIAXp2VhhnnfLUfdWWbxuO0Wo9Xcd64+aWkD4tpzkYy9AHG4Ce3wJjTTHYgxgTiuujxRnnltUyeLiIiIiIiIiIhc8YK0iSiaQjk46YYtlNoPotT4AoLGowjrDyBsHcpzrqBujaorZTXXvRjDVl/pzVqr+ZquZifCQgxCPVezDtEo4sq1SGtPRVK9Ec3y89DCLiRpBe1kwg1rLtPafZOqk0VERERERERERK5QvCXYHCrRKZSjGYTJUZTqn0A090VErUeB1mEEad1lW+HWy0u1RbI6y9VeaQ3bw9AeulR1tG3uxp83X75uuuVfidhi9VsW8yzXbdPmq8NyrG85LHU9WR73Sz9WeR+lQQkobUJa3oq4djPikZegXbkdcStGM7kK7XRLnnNtUSeLiIiIiIiIiIhccSrhUUThHKqlEwjah1Ga/gCimY8D8SkECTtWVuAh9kWXakhdSGPrQi1XuUutn3oyz1I1NltZC9333fL3E7P1+ZYrxsTxfnTL263sxVpoXYbBYuvZbb8uZP/QIOyjoIw0HEVSuxHt0S9DMv4yV60a6s0JtOJ1SIINecbhp04WERERERERERFZ+9IEQdBCOTyGkfJBhIGbnr0b5bN/i7DxsJvfWv2GyYU0ovYyX2Nsr3lLsV5ajv3HuvWqs62Pw4VcWVHcD5ezvF+P5dRtPcUYx7s9ZL7fGMvzy5xvnd3yd3Op+Zy3kH3fzeUsu9z8unGc+4P88eUySPvFvcZJsB7Juq/MOlzS0la0kg2ot3cgScdcVXkQLPcOWT7qZBERERERERERkTUtQAPl8CRGgs8jig8jmrsb4cwnEbYO5jkGSLd2xuVqkF3KMq2FcanKZDm99gVxnr9fbLzXvrLlaL58C7VU5QwC20e2Pd32Gfnzi9vux7rNN8WyaL6Yzy+fOM1xS6vtUts8H9uWfvSTdxD2R1FUQ1x9CuLRFyKt3oJmsBv15Da0k3G3TexsGT7qZBERERERERERkTWtFj6EWnoPKmf/BlH9nuyWYAPZ+Gh6NdIupaVYR3EfXk6Z/rIrsf2yNvnH5Gq8x/119jqOLQ+Hy32sr8Y+SFzqp6/EbXtS2omk9lQ01/8gZuLb0E435jOHy3B2DYmIiIiIiIiIiPSpVj6Cysk/RDT9r0B7wDtYiPVbymSsQXcpG3ZZ1uWUZ8v7SWSx/OPI7kBlx1S398ZSJvLXX2R5aCXrtFq4fna49OLmh60DKM38q0v/gAiH8xnDR50sIiIiIiIiIiKypgVBA1H9vnzqCtNvo+9idCuzH1yOrZLFRnCRpWbHV/F4W+pk/PcUxy35LL/VZ63hdlFx3/SStBDOPYwgbeeB4WObLCIiIiIiIiIiskbVkIYT+fgVotjAOV+Hit8YvJhU1CuP39AtstJ43PnHYLfjdLHJ2LHNGMct9XKp+cPOtq2VD7sJIqTRhnxiOKmTRURERERERERE1rzg6DTS2XGkzSofBACkAdBag62bxUZbG59vU22ZxaYifx5bH6N8KDIoeGzacWmdLpeTirrFfH7nDPNaHdaqcj7MLlZxG5pGSOMxpNNVpKfc+Xiumc0eVjq9iYiIiIiIiIjI2pckCKamEZxqID0TAbNlIHUp5pCtrWughdPfBI6v1ibZutd6w7EMv6U+Vq3jxDpR/M4Un63XZ7Fu84aeO8cmLqUVoF5GeracnYuDWZfaw93BQupkERERERERERGRK0rQaAAzTeB0E+lUCEwHSOsVIHEpsJ9cD4liw+xqNc4OSj1EFovH7OV2ttiy9h6w1M18nS/zLTc0uAFlpK0qMNs5z+KsS2eaCOp1oD28z2ApUieLiIiIiIiIiIhcGdjmV/hleTDXAObaCKbbwOkYOJUgbYx1Olyy+wkNML8R1sa5bX58uXFdTNY4vZLrFlkOdjwvpsPFzi/F1E23sv389n5aaB1WXRloV5HO1dw5lVcQuvPqWXd+rbvUdufbJM9m27UG+lrUySIiIiIiIiIiImtaGlQ7DZdszGNrGPtO7EHM1o/SijtpJkZwdhY42cpuaZM2R9zMAWzltCoVG2G7VXW+hl6y+QtJpI4VWet4bNtx3u19wOSz90Mx9VIso5jfpge+FZ/PWKkibUy4c2eSXSUYTNWBOXdO5RUrodtInnO5LTznsqPFtnvA+7L7oU4WERERERERERFZ0wK27LFxr9SZzjpbOM5GPjb2xS6xoY95eLewppvRThHM1BGcnkN6qpI9oBmpS6vNGlw5ZCK/kZbjNm1DP283Nv9Sibhu7iu1KsqVhMc/j3s7TxTfFwtl79P5yrD3r7H3/UAJkMY14EyI4EQDwZkpd+50J9SGq7w7h2b7i+dbboudf+1KFm5P3tmdBmNIwqs6E0NIp0MREREREREREVnj8lY9NvRxlA1/xM4VxthCxiGniR0tbMxkvO1GWw0E0w2kU246u43YKrV0FlfLOpMf57hNL2U1WZY1MF8Sdxx3orWqigyJ7D1lx26Pg52HN2d1m83luyUfpy+1PNl8f3lbrtuyKy0IkdbHEJxhp0qrU0/rUOG5gruQ51urL8+vnM9x65Xgrrbz7hCzzREREREREREREVmjvE4Wa5xkiI2AbB3LZ2cNg9bgx7zWWEhuPJhrArMct+AKsUZKS8bGra5MpjjuT/tsXrdEXIc1Kvfi8iZpCXPNKo6eiXDohEsnyzh4ooTjZ0uYrlcRx+pwmVdx3y9Vkj7w2K3g5FTJHbfBuWP3yOkSzsxW0Wh1OXbtvegn7u9ucaaiXq9Tt/zdprvlW1ER0kYZwdlpoN3qnEP97fe3y6Y55KnT5l0wn70vwyuYnJy0zcGePXvyMRERERERERERkbVhw8hnUfvUqzsTfsMe2/W8TpQLGgfZsWDjlifrmAmQTlYRVJtunvXOLBPWx/jj/WLdybbLWFmM2bxi+Zwuxroq4/jZACenErTiCHPNGO34/H4pRSEq5QjVUoxNbr9tnnD77dwDcdY4f59Tcdo337zL0es17Bbv6/VeSwLUWzUcOZ1gei5x4yla7fPHbhgGqJRKqJYTrB8LsXE8duM9OgP4+tlrWHwtbb8yfjn7uNfy/rpXSJrWOlewNN172c6jVg87X7LD2s6jrDeH/nn1XN4IzW2vxNT216OZbGNg6HCzRERERERERERE1jY26LHRj4199qtrNvAxZg1+nMfWMiZ/3PoEuByf1TLnRs63xS49rpuJbGh19HWb9lOxHBvvxspiHtv+S5hrlPHY4RKeOBrj5HSCqbnWBR0sxOnZegun3PwnjjTwwH63XHM0n7sGcL9xk/tJ8+W112ypU7d1LTSxnDWngkMnK9izv4Ujp9ru2I0v6GChJElRb7ZwZibGgeNtPHwowImzfC6T9SJ47H3T7b3Tbf/5r5GfqFfcyu0W7+P9unTc9tfdwPYXt5mjrINfL9sXljjt3y6MiThtVxAOKdsUERERERERERGRtYsNedapYo1+THbLMM6zzhQ2BLLRkHmZ7G5BlrfRRBrzYQLLgHUyHGeDpV9fY3Gfn8/mWaOnNXz2Yo2exTJ7mGuM4uEnAxw900A7vlThHexwOTMb47HDMerNWh4dEtxEHhP+ccHEaX8fW55i3NKg6Fa3+erub6+lYZVW8ODBCPuOtVBvJUhSbuD84iTFdD3G3mMJDp90mz/f9tv5hEPq9p7y36d+ol5xq2a3eDG2XFz5aepOhE230sQdELwwzbaX6+Y5kkPGyY4bm+Z87juLW925/BCzl1pERERERERERGRtShudIRv32KDHZHf98TtU2G/CjhbrTPEbD5mPDYLWOFh3wYDJjS8FllNMZEPi+pmIcRu3uD/fxovl+Sxu29gPV2ajVcbeYy3MNmwnLgyveHn4yRjTcxX00b69smy/8ZjwG4M5bvPIxoupG3+ePyzGbdzWx2ORMauHHauMcdzqxmnm5Tw7Tq0sG/enuw2LbBkmf9v9ZOtnKuYZUHFSxqNHQpyZsVb/hWm2Yxw+U8LULDsJ3Ztmvm3le6pX67u/r6yMYsxPVHyPFuMcWlou7pwXtBOX3IHG9VdcsuOSyY5HnktZD24/z6fMxzjz+udW5qfsRMAChlOvl1lERERERERERGRtCHiLHw7zxLY8+0W1dTAwWeMg4xz32/2Yn9MufzpSQropQFp1QcYuF9fts3UXk9XT2LjF/fn+OHF58mNsGfSn+xAnvGVSiOm6Fbg4M/UYB0+Grjzu2FXg71e+xkzWWeC//r1SN7aclUFWJod+YqcIExudmfxxlsE8fG0Y5zgxbnk5z8r1p20ZW45DK9eSXx+OF5NtI8eLbF63VCyHyZ+/yhJ37PL5QaenW31dvdILbyH2+LHUHcPuvHKp9w/n2/vMz2vTfrwY8xMVq+zH/X1cXG4pRRGScXf+m8hXwNfY3sIM2bZ2e+15vDGvf9zl59UgaSBIz7qJ4aROFhERERERERERubIUGx/ZCMhWMjb6sQGQ49YwyHHGiFeujJeBHRGCjXWklcvsIGA9rC42buv1WR7O89Ni2HoW0yro1tlsl3D0zIUPt1+sU9NNnJxiL9cKsH1mjbvdkuXxUzc8HjjPH9q4dWRwnBdL2LFD7PAgxux1IL8sqwunWQ75cWP5jd95YvxxrovzuYyVa2VanZlsvpXvDy1/N8zjJ8vrL2fJ8qywuWaIY2dStPq8vd182NHy5Cnu1D7PAfZ622vum686/jxbtrj//LJtnh9bKq6s1L2gwTp3gOwIkF7ltr3U5baJfM35tuZrbedSqxNxyLidW7PpNoJ0cVcXDYLFnE5FRERERERERESGSLPTyMdGPzboWWMfW8YYI2sQtPl+yuPp5grSnW5knSsvdAWGl/FcEZZrQxsnm/YT9Yr3Yg2blpjf375FOj4VZc+xWCoHT7KVlfcSWgasZq/k75v5sMOB+dlBwrzWAWHJrhhhsnI55LSVbXHud46T5bdl+drYspaHMSvH1s9psjjZ8qwb2fosL6dtHtk2MVkew+VYlj/ftpnzGLPOIg4tj9WlG86zZXulZRdirlnBbGPpVnZmpoW5xgI6Ce29Z+9DM9/7kfOK+9bK6bbPbZ6xaT+2WG59nWLcSMW9+NvaSK512z+Wd7TYMWbHoh1HxAU5bex4YJzjxeNwyPibJiIiIiIiIiIisuakwUSnMY/todYgbA3FjPmNgTafQ8ZcSitVJDdMAjsbwAh/bc0Ml8EaPG3I4rolWkjcT8TybbsvtxXQlcliT890JpdKo5Vgam4JmyhZSb529joy8XW08UvhcnyJ7Uf1tiz3Yz2fJhv6rHxuDhuZ7fW1Mq0RmjjPOi/8ccPyeYzasWllcR0W5zJWPzuejc2zdTKP7RNefMG41dfYMizLyiUbcnmL29vAkq3flvW3pciWYT4rj/n98pcYr7w6PdO4rNuEFbVcmVO8Zdhi8PW0w972R6/kv/ZM5Me7sXzEfP76FitbHwvOD6ooRTBZR3pdG+lVNaDmDixbl13gw+z2mjJuxy6TnZcY5/gQu9xdKyIiIiIiIiIiMtAC/8H3xBYx/viaDX9MbNy1RkG7+w2nKwGSrWNIbwoQTJztLMf8l8MaIX0WKyZaSLyYaAlb/1KMYKZuvQ9L58yMVXaRrLHeb6T3U5HFLT8bfnmIWIeEsU21fNYQzGUtL+dxmmVwaOXZOpiYxxqTOY/JlmeZnM/jzfJamWQdH0zFOPkxlsWyGSNOc56/XRxnHsO8LJtxq4sp5rX6cWj15XwuT9bxwmkbcj4Tp40/Tpz2k22rlbME0jRCnIzmU0vnyOlp9+9lHL88LuzY6MX2AfNYPg4tbvvNT5bPj5FfxmLY8v46ym5iRwvJzghpzR1EvK0iX3PO5zHFY8WOKxu348iODf8YHUJLeJoVEREREREREREZPKk1gVmjnzXwcciYtZBZY3HqgmMVJDsqCLbPIqjWO/kvB9fDVMRyi2k+3fL7yVjj7ZK6jNujzWcht12z7bSGeHst/eSzvDZk8hv+uTyPCb88srIsD+ezIZhDsjhxnDjfYiyT09Z4zOUsnymWzWlLxpazZOv34xazTiGL88obwzy2DNlyPEZYB06zDjxGOc1kxw/jzGvbxvG83zLLY2USx215Lsf9wDI5zmTzrC6WjB9jHluvn38RkjRBo8UKLK3A7YA0vczb3XH/2PvVzhPFRLbtNrR4MS+Tn8cSFaeXAtcVxgg2uoNid4B0YxUY5Qvv2GuXT2Z5OW7Hlh0fITMNL9scERERERERERGRNSpvAmMDX9Yg6JI1NFqMbXyMRyWkW6tIdgYINrZczM3kfOJwMY2Ttky3Za0efiKrVzGZbstZWuoWP1uvv/6VZNvO18iSXydLxtpr2cDLuN+4z3HbP9YAzM4JxjhNjDGfvx4ry5Yhfz1FfsyWJY5bGX6ymD/PlvPnMZFtU6+8TLZNHC/W3cY5pOKQbJzL2nI2JL8Mf/vIlmE9OW7TnM9jlNP+68JpW9Zny9rylizWpzAIEYVc8VJzZQbWg3CZ7P1r1fS3nSxuQ/LzWD4O/Tzkzyd/PYvll2flj7gXdYdLV4dIR0vufOr2DY9Dy8uhvX6UTScIYx4Mw2upT7kiIiIiIiIiIiIDJchac7ORTgOfsWm2kLnxZKIGXOPGt8cIRvlT/TyzNUZyaI2D/WB+f9l+sPz51uGXaZjf4v2uZxhkDbCFZPvHkuE4X2bLx3HuC2u4t2XJj/kN+5xfbOjnNPP5/Gn/dkeWl+MWYyIbtzr5dbHOEMb8OPNymmUy2XyWw3Z9m8ehX47Vz+LEZSwPx205v15k8/z5xHEm8uezTBvauJ8Y4z7y+fmsLKsDh5xv5RvLb8tYHkt9KJWWqDPkAomr9hLeQo/7oJh64b4o5rVYkc33cTo/912W4vJRG+l696LvctXZUnI7Pu9o4WvLl8DWy9eN02GIJOJ9xIYXN0dERERERERERGTNSoP84dRs3GOjnjXycsjWsaiEZGsVwe420nVtF2td2Fhp470aMC8Hy2QyLH++ZPzlrOHSn7+UzpXr339q6QTn7j3lcJv8RnTbTttWn72ObMTnOOvJhlxreLcymAznk8X99VFx3GfL2vosEfPa+jlknDFrTOaQ67JNtWUZs3LtmSYWtzKI05aXMSa/DLJyOM062rLFPIzzmGEeqx/zcNpfD5Pl89fF6SLG/fVx3MrmPMaIQ5Zb7JewPJafifk47LY+4jy/fI4zdbNM742RKjsHWNElxvpy/3Foded2+vy4zSvmtXl+HvKn/XX0y/JzyHL85TnNuvOqlu1NpDtCpCPuHMxjiZiXr5ctkyYIXRpm3FwREREREREREZE1K3vwPRv+2BbKxj1rvORD7kfKSHaXEWx3ecougzX8+Y2GZA2SxHn+dBHn2zouhXksH8u01A82Wq5E615enwBz2LJ+vDOxhK7eWOk0jhcb2XvtC3sdud84zjyc7tZwT1au5bWh7TuOW14fy+NyNrQ8xfzWCcByydZHfv045GvGoeWlYicC8zJm67TyrEyyedwGlmX5rVzOYyIbFuvF/ceYxdlfYOuzBnGWyzhjxCGni/umG38bmYdl+cc6Mc7EvIz5fRac5jI2tHoWcT4T53HYJV8UJBirspClxYvfsnUuFzs/WOrGn2d1sWmbZ8mfz0SM+dP9sGX8bfeXt/mRG+FtF29woY35s5f4+l5w7gqRpCUEfGD+kFqJ07CIiIiIiIiIiMjqYvsdG3Ctca9cQrquhuT6EoJ1cxc2EHKcjYTWgGjz/Lif39cr3g8ua4lsXcVE1gi+EvL6cFCJij0Zl2dypIKgffp8A7m/jcZi1qDPxIZ0a5i3/Nwn1sDO9nSbT4zbOFk+W97a37kMx7kuPs+c09xwW5ZXovA4sjr4ZXLc6sdxWz+nOW5DJh6DXJ6J41wnh5xHXKfltfVzecvL5Ri35cjqY2XaNMvgOPkx4rhxb4Nz037nCcetXMZsXzFmdWOMyd9GjnOelUm2fuJ8f5pDXixl+4HTLJ847tfd6kQ2JI5bsvq6cT6OZazqhkv4XJZSFGJilCtYZqxyt2r720oc+vtrvvlkcYv1Wk83xXy2Hr8sizGV3Rtndx3JLvcirHNvLL4OfH0yLkOphCSYyKeHj70FRURERERERERE1jY29rH1b6SEZEcZ2B0jqLJl2WONgj5OW6PhfJjHUr/mK9MvzxJb81ajRS9f9+bJGNXy0lSAjdSb2a7Ksn3Wbm2N8Bxap4AN/dfJGuSZzxKxmtYwb3k5j+O2DIfWUWExjrNO1plAnGf1sHHm9YdcF5ezaSvTxm1Itl3kD7k8hyzDWF7GOE62Dua3mJXNuG2LDRmzMvyyOJ8YszoyUXE5siFxWVs/4+zksvI4zWQdL1aGlU1Wb5vn15VDzmf55OexGMeZp1vZnLZYllKMVROsH+Pla0tjy7oRjJT9g2SZ8fWxbSeOW6Je87rNp+I0+fnnw31rLpWf8/P8waYm0p1uYoN7HWr5AZsESKMJpOlK9hwvLXvriYiIiIiIiIiIrFlppQZEAdKNFaQ7AwTr53Du2StFfqOhjXfL52O+SzU2djPfMlynJeYrNrKugkqpja3roqyD5HJtGIuwcax9ft9aY7k1/jNZI7nlsQZ9Di2xbZYx5iMbWl5/2oZ+nBjzl+d8u1rC6mFseSbiPMb42tg84jhx2uIWM7Yu4tBfz6Uwvy1LxbIvxdZlQ1ve6koW47TFLcblbN8wbs+bIT8fx5nH8neb5+M8xniI+X0Yls+W9Y8PxlgWYzbfMO5SJWxjy3iKavnyG/MrpQjbN7gDhK/5Sr4n7TxAHM+3LUs+Pz7f/CLGbJu6bpcLWmeILW/LkI3bvOI4J0ZaSLe7F21HKbtdI4IQYXnCnZ4LHd5DRJ0sIiIiIiIiIiKyZgVoIkEZycabke4oIdjRAsbyllu/YdDM20DoDX3W+cG8fln9mG8Zlslk5Q+AKEyxaTLBWO3yKrR+rILt61NXXrvTkM7E/cAGcxsSx60BnUPuC86z/c1xS5wu8hvkOc5kZfvLcMg8rIfNN5zm+ji0W4UV102MWbLYIOpWN4v52+LHion7ivvE9i9jfG24HOdxSBy3ZYh5GOPQ9rXtM+I8svUzWRlk5ZOtj8nKYmK9ur2OaYr1o22XQoSX8fyPWqWM67dFqJT8XqUVxm3nJlgyth/9eX6e4nyyWJGfJ5e6fYjA7Vg/znGW4Zfnj5PlMeU20vXuRbo2RrJlPZLaDgQR7883nPhyiIiIiIiIiIiIrEmV8BCClktb9gGbWkijvOW12DBoQ1+3hkO/oZD85Tju5ynm7caWIeb3E1lj6gCpllu4dksLmycXd+uliZEydm8KMFpuutfGBdhxwe21ThDDGOeTNaAXG+3J9hevPLGrT7gcxy2fv4+JcX9dHGc9mI/rsPVagz7n2/rJ1ukrTi+G1ctfD8dt/eRfYUM2tDr7eS9Ht+2xGIdcD9n6uO8sZvm4T/36cZzzrK7+MozZcoz5ZTHZvuGFFMzLccaY7GomsnWQrScfBm6ha7ekWDe6uAZ9XsGye0vgll/FDhaf39lCNuyl2/z5lvHLdoLArTB1Lyr3r8VtvFusm3N5U6S1BMGOUwjHHkIUnHWbczbLMmyCyclJblJmz549+ZiIiIiIiIiIiMiwShEGdYxGe1BJPo1y640IytOdhr0ia/CjhYy7YTqzAeGZU51YL/5ylC97btgL5803fxCkZTx6JMKZmRbaMZDwV+7zKEUBNo5XcPW6Nmq8VZs1opPfGE9sFOf2sxHZz2eK+5EdD8TGdja6+1WxcWug57TFuCzjxfUvlNXDHxLHrT5MHKfi+thfxWnbXpvPuL+cNapbXuKQ+4t5/W334yyTcb9cxliWJeKQ+fzhUuB6WTeWx2F+x6mMvWaGefz9wWGvPhHO5/LMw6G9xlZv215bvzfvdH0Sjx+dyY7dOLGd1h0fmF8rB7h6Y4TNE67AgCsaIKy+pV643cX5tp8M51s+f15edur2ATa4nVk612vVmdeNX44/NBfExxAH34BW+esw19iGBq53Qb5ow0GdLCIiIiIiIiIismbwl+rl8Biqwd2o4QOI4vcC4ZnOzG4NfNRr3PSIde1kYb7iNFnM5vtD8pfhuD894GbqFRxzu3iqnqLVDtBss1W7g89uqZUClKMUm8cjbBpLgLjV2T42enP7mdhYbu3Wtl+s4d2myZbhkMv4cdtv1nlg86xcfx2Xw9bF8m3IGBvw2fZsDfvEmF83y8sh68NxqxeHZPW2PDZN/nIsz3DcYpaHiZ1PrIPVw3Da1sllbL+w7hy3sq0cvw7+eheD62Z5fp24DsMY68E8tl6b9utlOG7lWJm2DvLzcnlOcxvL7uWKqzg6neLsXOLGI3fsdnZEkqSolEsIggS1coiJEWDTRIxq+fyxPZD8fdYvf7/aeLcYufdyup5DF7R85C/jD00xL12Uv4wkegHa6Usxm7zCHbq7kaQ1N8N/AQeTOllERERERERERGRNiIIpVIO9GAk+hFL6PgTYA6T1ixv4zrWGeYp5yM9XXM5NL8uVLIPfnngetyFPSRqg3qq4BJdSJC4FURvlqITxcohaNUbodb5ky5E19HPa7wRgjNMWt2nikPvO4lasxWz/ctzvNLDlF8JfP8eZyI9z/bzygmxdtl3G6mX14TK8OoOdIHbVBjEPsXzmYx4OOW3lcWidOSyXya5MsU4Gy2914dCvj+UlxrkMMR8Tp/245TW2HquvDfvl18VYmf48Ttv+4Tps3N/fXI7z7LXhuJVl5Vn9Oc58TBYLQrSSEHNxhEYzzmbFCTtXytkziMZHQoSRO48ME2637Y/5FF83LmP70uZZOZx27+V0ndtxZXcA9lO+sTK7KawvTbcjDl+BRvh1aKfXotlejzgdd/O7HTSDQZ0sIiIiIiIiIiIy1LKrV4IDqOIh1MK3IkzvcrGjFzYO+uNkjXq98ti4Kcbc9AWdLH55HBq/TCrms6GlYWDbxKElXxx1GrPj+Px821Y2ivsN3Yx3axBmQzobwa2DgGxZ5idbjvn8MqxssvX2i+VwGa6L2JHBuvhl+nUgjjOxHpYv236XyO/oYZzlMb91knA5zmOHC+fbOjmPnSwcZ7xbHbgch35HhLH5tn4ua+uyThrGbT9z2q8/MWZXw/jlMca6WX1saPk47IfVl8tz3F+3DS1WHHId3GYOOc1x1o2sXMa5bZa/yNbJIZMtb6wcm2/Tg47bxNQP236y8WKMOG2dLLxdmOUz/nRxHvnl9cp7Lk8FSfg0xMG/QSP8UrTizWjEW9wMvpCDZzBrJSIiIiIiIiIi0ocAfPbK/RjHP2As+DlE6b8gSI/azA5r1COOFxv5yG/k8+NkMSujG5tneYtl9ML8bKGbr+xBwgZ0S922M+sQiIE5lzjPWh8ZJ04zzoZvbrOVYxjnNOPWaWB5ObT8HFpZZPOK5fnj3Vi92OnAcebnuJVl4345xWeec93WgM98HLcYl+U4WfmMsTGf0xzn0Do9/HWSjbMM7gNb3rbX+PmI+awunGdse4nz/f3KfP46mNfWy3EOyWK2flveX8bm+evuxupJVh9bD8uwdVmdLK+ty5bnuK2TLM7lycoiG5KVxyGPJ9aXZRkrh4ll+HUYZNxn/Z5X+slD9joYjjNmy9s0+eNky1p8vrzZdBNh+jmU4zejFv8ZRsqPYqT0SGf+ANKVLCIiIiIiIiIiMnSCIEWE0xgv3Yly/I9u/H1AOt1prDvX2pW7VMxv7KPiPI4Xy3DTS3K7MOuEGHR+47K/Hwzns3GaHQVsxGYemzbFBnfOZycA94Mtbx0TXJ7LskODMcMyeNUG83A91lmxECzb6nKp5W0buC5rtObynOa4NdizTn6ZVrfiNvv5yPJ226fLodv2+nXgNtlVMdzHxGnbHmL9mZf7w2K9WFl8DW1fLuSYt/r67xXWy46bbrgM6+cfNz7GWZbVp8heI+bzy/DX59dn0HFf2GtZVNyHdgzYkPxYxbuSxdi8Ir8cf+jzY93y55LkdrRrP45WvB2zze3ucNzi5g/OC6BOFhERERERERERGSIJwmAO1WAfRkufQdh4G6Lw851ZxUa6Xnrlm2+5Lnkv63ZhNAyNtKyvNdDathhOM1kjOBPz2jZa4zpjfhlssLfGa1uGeYtsfczPfcUhcVmLWR26YblWPodchnnZsM42YsYM45z212l1ZN24Ls63bWU+Wz/zWf3tNeWQj/GwBn+y5fz1WDn+OsjirLttKxNZ3WzIZTm0/LYOTvvrszLJ4r2wPCuLyzAv10cc53ZxWFwfzVe21ZcdGVyW03695mN5OGQZ1kHSbV2MMbF88l9Py8/lWQfbviJ/fTZuLL+tp9vyg4T7mKkb//Wy8WLMVCKkk25HVpoXxv1l/KHpFTe98hPHnTSeQFL9TvfWfTHm4tvQjDe7LDyQ8gyrSJ0sIiIiIiIiIiIyFIIgRgnHMRrdjVL8r4iS9yGMjnRm+g1yxUY8a4Pr1YhnLNYtv/Hy9LySpVsZ/nSvRt1Bwnr6ycdpNk6TNbz7eTiP22cxy0uW31eMWcO3lcP5xTr0YvmsjhxaXfwybNxeB3a6WKO7rZ/rtas4iHFiY3237bB12uvLPJbX1sPOAT7LhOuzbbT1Wn6/bhYzVj7ZPMa4jK3LyrB1UnF7DcviPCvTL99Yucamrf4cFtfFPGTr9cu0Olo9WQb3s9WjWx18fh6/7hZnXSxudbX6WD1tGatDMW785ZmnOL+4nE0PIm6nP+zG9oW/Tyw/pyslJOMRgkp+zzw/r5/Pxn3d8lK3/H7eC5QQp89BHH05GukLXboR7WRdPm/1qJNFREREREREREQGXhC0UAv3opp8COWUtwe7Bwj59G3HWrfma6yjXuO+fuL5eDrb40oWU1zGhjY+iFhfPxWxwZn1tysv2KhNHPoN335jt48vmb8v/OVt2sqhXvXw2ZUcVjfiuF8/q5M1thPzMM5ODtbL6u6vz2Jk6yHGrPHdyrXybBmrA8dtXzCxk8XfD1zexv28rBfLIH++z+JcT7e8xfWT1dnm2/q5PrtNlpXHPJy2vIxxusjKIZbFaeI4l7ErVzjN5F+JQrY8h7Ysp7ku5u/GX8bqaeVafY3ViXGOMy/rxbycZtyWse0lf90ct2X9ONk8S4PMtpU49Otr037cj/F2YbySpewOFD8fh/Pxy/L1U4Y/LysnQJpuQhI+G43oh1BvX49WssVl4UG2OvxDTUREREREREREZOBE6WGMlz6Hsfj3UEt/D1F4N7IOFr9Rzm+s8/kxy+832BWXKeahYr7iMmTTHFrycZotccX4IGGDNRO3z99+YuM1sWGaiZiXOM/2iZVBjHGcDfcct6tFrHyLG1uOjdhWjj+/iPWwTgHWwZaxfWzLM5/tf78ult/qZfl9FmOyvFYmcb0sm3HGbHnmtaEta/Pm8iGnLdaNlcE8Vrat1+prcctLnLbXxNbrJy7DfcF5fj6y+Zxm8vct49xWThfZ8mTlMa/Vz99vNt+myZbnkB1Qti6bP986WY5fFpcjzreYrdMS62P7wOpGnLbttXHua7I8LJPL+KwOtpzlHUTcP0yso+2rhfKX4/b601a2z/aJ5bOhxWzozy/moazcFEFw3P1d+DBG4jdhtPIkaqX9iAJ7Y608dbKIiIiIiIiIiMjAKgcHsW50D0bqP41S+DYgPAqk8fmGt6zRLR/atDXQ+Q1zNm5xW47jfqOoNRh2azXzy7b8Psb8uI2zLC4zqFhPbrftB38byBqd2fjNcX8+G5t7dYowP2PcdmvI9huwuZzNY8O1xa1hvBvmZR7/ShArmzjks1A4ZNzyMD+n+WN3y+8vw3r5mIdsm227bXli2basXxbvpMQ6Go4zrx1T3G7ms+20oZVj+a3OjDMPx1kGh2xPZl5LVk8uy/lc3pbhfCvD8nOaeZgMyyCbzyGX9zt0GGf9mZfJYt2WtSHXYRcZWP14NQ/nWz2JZXCa87gc48xPHDK/lemzaRuyfC7LZPvLX471J8tHth5iPk4zcdyW5dCPE8swjPnLMg0q7mfuG6tzL/48/1jxl7PjmiwPY35+y2PLcGjzbdzKtHGfn5+yvC0E6SdRnfkh1NK7MVp5BKXgZGf+CtPtwkREREREREREZMAk2a+Sa+EXMRJ9BNHc7yMoNc43vvmNc6Zbw5zx53FojYtsBLUGV2KsW9nEOPPbfDfs65ksHBbnDxJuE+tb3F6LsWGZ+8jPZ3kt5rNpNj5bwyrzGZbHRntrQOc4Y5di9bByOez22jEf51vjOfMUt8Fny1m5Np957bZe/nawrJpLzG/LGhu3MpiX28dp1ofzbZ6N+zHW0ertzycOmWxf2jI+25e2HUwWs+X95fx8tp+Yn+vgPBtaHcjqyE4TK5eYz9/nVib3n3WaWF7/Nbfymbi81YNDJuKyfj1YL66f05xHNq8XrpO4LPOyPPLrwnHGra427teJ/Dy2PIec9uth08X4ILH95w9ZVxuSzSO7XVjFvQH8uC1juk2T7f8iP39xnLrNo3NljaEdfAPa0VeimdyAerwdSco36spQJ4uIiIiIiIiIiAyMAC1UwiOoBZ9CJX4HouDTLpr/TL5bA1uvaRtnskZR02u5bsv7GKM8b89OFsN4r3mrjdvABk9j22oN63ZlAuvv7wd2LjDGPMxr5Vg+Jr+xnQ3QtnxxmV6sDpbXEmMs25ZljOvgNBPrYMv6dbBxm8chlyWOMw+X5baRlWn1t+VsG63BneOcZ+u1mCWyZWx5v16Wx89vrJ7MZ8uYbrH5cL1WRyoub3Ukq5e/bnZocMg6WT6Ocz73BcfJpm19jHOaHRBczuIct2XIyrXlrQ6MM/FYrOYxw/qxXhxavmK53Vg+1qm4rB9nPYnzbJxD1o1s/5BfBvNw3MeYnwYRt4dsG2xI/ngpQrKuhKBc6PTm0OfH/X1j+aw8stfBL6Nbmd345QSjiJPnICm9FM3gRdmzWuK0hiTlwbO81MkiIiIiIiIiIiIDoRScye6tX22/C1H6AYTBo0CQdm9ss8a1SzXEdWus82OXasyz+cX1uel5O1kY6xZfbay/n3xs7LTGdHY4sMHZGuO5LRy3xliyxlHLY+X5eRjjfA6Z159XZMuzoZ0N6LwlljVk+6wh3hrwWSaXteVtSFZHDpm/+NB5y+tvh83jNNfDZZks7pfJIXHcMJ9frj9vEBXr2G3f2Djn+dtt82yaLC/3HfNzP9o6OGSM85ivuKzN42tleYnLWqeK1cHKJ45zPX7Hy3ysPlyumJcx4+cjro8xfxsN41Yfy+djrFt8UHCbbP9y3LbFtpXT5RKSiTKCSuH5J/Y62nL+0Fwqbjht9fDncZx6lZlL061IwpejVfoqNJOb0GhvQpxOuDlepiU2qC+piIiIiIiIiIhcIYJkGiPRYxgLP4mR1s+hjL9CGD7iZvitaQXFWX77mT/OxjryY36jXbHBrpd+8jEP51kaJKwb94Ulf3s4bh0hNs76+/mt0dtYjDhuy9s4WYzLWXm9MC/nMz8V12csbkN/vRza8mT145Bx1oHjHPrL2roZtzIsxvxWtm0DG9Y5zTI4ZMzHmCnOG0SXqqNtP1lef18R9xf3FYfEfLZ/yfY5cZ69NrafbXnmtzJsfzPGfe6Xb9NWB39djFs9e+F8lsGhrYP8dRDHWQ/GiflsGSY/LzsmGbN6M1m5xHFb3o8PCv81KuI8v86cZiIbt/kcFvP7/LiNW1mmWCZx3M9v8wv5guAIouRvUGn/Fmrtf8ZYZT+q0WE3x3+xlpauZBERERERERERkVVTCk5jpPQQqq0PIArehiB7cDFbIR2/Qc1rRMsUG9h6NLhl02SNn/58xqyhnEN/2mdxLmvlOOls4UoWK3/QcHtYbypuG9mtwQwblHmFiN0+q4hlWR6/cdvWwX3Va1kfy7DGcrslFeti+5rlMsb1MA+nu9XfcP1+frLyDcc5v8jqy3UTy7Jy/Jj0xtew2+tu7wu+FkX2WjNxX9txYMeWzbch2XFgeex1YvnMZ6854/Y69ovrt2VZjv+aW92sPsbWSbYNnLZ6ctzqTjZeLGdQsM7cbn9/c5zDSuFKFouTjReHLGu+7bxUGWTzab78ZMu4kTSddC/ZV6NV/ma0ks2ot6911Vn624epk0VERERERERERFZc9uwVPI7R0gMotd6BKPyYC3ottL0a0YqNaedatpziPCo28FkZ1oho+UxxHRza8hYjl+eC24V1K2u1sb6WyK8/cXczZo3UZA3bNm2Yj9vHZfxGbMvH/Wnlc7wXK4e4LMsqNsxbnGx9Vid/G/x8HLdGcCaOF8s1LMPqaEPWievgsrJ4th+5jy3xteB+5r6119Iwbq+hvbacz3IskQ19jHFZWw/Hu+UjOzbmy2PHM4d+vaifdTFmxynLMHYs8lZ1xl/WtneQ2HYSh6wfh8VOFrJ5TPbaFqeJ0zb083Xjl2n7xmLUbdzy+eO5OH4h4pHvRyvehUa8Da1kq8vmV+7yqJNFRERERERERERWUIpSOIMa7kQt/DSi5rsQlPbn85xzLVUevxGt25C6xYjT5MfIj3crx/Sa58bPdbIMaiOpdSD422Nxfz7ZOLeDjcTERmOOW35uJxuqObQ8xPm2bywVWdw6MZjf1smhlck41+tf0eJ3fFhexmyerY/TZNM2tPWQX1fiuvzyZWn5+5evm7/fffaasEOCxwHnc9peb8vPGKcNl2OyY8LWx3KI+f08LM/K8sspKi7DoU0z2boszmTHmXWwcN0c59DqYfM4XhyyrEHDbbK6czjflSyG09wWW45l2HbaPCouZ/wybbzbeoxfNvnL+ILtaCX/BknlRajHN6MZX4U4HXEzLn/Hq5NFRERERERERERWRBg0UQ6PYSR9PyrRxxC2PuiCXmt9sRFtvoY1wzx+I16RX0a38W7L+/MsP4fWcEhuXjozgXBq6sJlBwHraA2+Vl9iwzC3gUObb9tu8zjtb7PlI1vO8tmy5Ocr4jyWZQ3THBqbZ4msjn5ey0eWt1t9mex147LMY/MZZ35bTlaH7X97bfi62DFoHSB+5wRjzM8hTxfsQLHXkrHiccB5XN5eYyvT1kP+kMsXWd2IZXG91kHiY11sW6xMW9Zi/rpsnHXy4zb08wwCew2Iw15XspDtB39Y3BabtjKJMVumGLdpG+8W68bPf4EAcfrM7MH4TTwX9eQ2NJPNCIKLMi4Iqy4iIiIiIiIiIrK80gYq4X6Mh+9CNf1DhPH7gSDvYGFjWLcGMYv58UvlKQ79cv28HPf5MctXzONz84JktpNvULC+bKxkYzXH/fozZol5iOM2ZF4bGstrZRpb3vLadBHn8yW2sskvx8Y538qwxlnislYHDpmswd3KtDpYWcW8Np+sXBvK6rD9z9fGkr1e9jracUOMWR6TnzqysngrLstrGGfi8eTn5TiHVh6H/roM85Dlsw4Ai/t1sbhfBsf9/ORPc2j1srx+GhQ8v12qB8Hqa+dMOyf2Ojf6+cmWsXhx2mfzinqtiy4oJ0UUfB6l+I8xkrwRo8FHUS0dy+ctnjpZRERERERERERk2YVBgkp6N6L22xBg/8UNacVxXzGPP5/jftzyzleWP4+Nnf7ylr+4fLc8QXw+32rjdljyWUOyxf181qHhb4M1/LLh2uYxWaOytSbaNPN0w+WtQdtfh5XFxP1o8znOsm29HDIPY1YHYtzn18PKNLZef3kZHPaa2JCvlw35WjJuxyMxxnl2XPG15jjzWX6yaR47tox/PJG/LuK84rHl18sSMW7zrC5c3jRcsvXa8ch8lsfqx04lf/sYL65rUHC/cVtsu41tn22rJdtHNr9bPn8+FfOSjdt6bTmy5f0YFfP4w0yKIDzj/ibdhUr0IUTBmTy+eHZYiYiIiIiIiIiILJsgSBDFjyOMD7ipvMXLb/iy8WKDWbd4MebHGfNdqrHSbx3jsn5DqD+0xkFbnxu3C3HO5VktrJvVy3CczzUhbpPNs3xM1kBNLMPfdksWY4MwG6GtsboXlsn12vLEob0u/vJcp70+ti6+HlYvW6e/PivX6sLlOSTGbV+QDWU42OvFY8U6IOy1tvcaWT7G7bji0I49w+PGP76Mn49xOw79cossH8vk8nZsWtxfP28hxvnE/JbPYv567LZmxWPcYpZ3EBR7EmzfE8dZV0uctvy2PYxZPk6Tv90WI8b9MsmmfTaf84yf32fxc2VwZNb9bepMXQ49k0VERERERERERJZdGDQw0fwj1GZ/G0HeOxEEKdIkzu6Hn7oUpG2kbKFM/ZZSxxrXrDHMWrMs7ivmNWxJS0tuyJlMkRu49QRcX966F4RuvOUqW3FDVy/3X5oV5LUu+mVz8bhxfnql2aZYMlZHNlRaI6bF2LDLoeX38xJ3hc2zcW4+51u8iHGmzst6HmO2Li5vjai2O/1GVb7kzMt5fh3IL8cauFkeh8W8svbYM1HsGODrznGymE0T81u+4jyy48ee7ULMx2PP8tuyjHVbnsedDW2+Hdf+NMf9uF+WrYPDYj5jcT+2WrL94c6JJXd+tLqzXtl51O30lGfLxJ3LOe5inE/91N3PWxzn0N/Pxqa7LdunZPRlmKr9EubiG/LI4qiTRUREREREREREll2IWYy13onRqT9x4zPodF50ca6hLHIDtuQ5XRrPgqyVlKmHbsX32QiXBpV8LOcvwzLYGXOuRTSv42pgw2M31hHBDhWrpt8pwW2wZf1Oi6Ji3l64LNdTLMNfZ3G+lW2vSZd1ZbudnWBxO+uQu2Q9umEh3bZtOSSugm3u9CsYX8PIvdhtty9K+ZAq1c6wizR0C4U9zwgdnFk4PjL+MW0F+ON8/ZmnF5vHMtjpwmOFy/J45bL9LM88ZOtkjOWwDKZuGGd+e49YXr4f2UlU1KucZZR1grPjxNUzTb0KsFOa70duN7fBtv8ctxGp26gg6XSgZ53Ybnm+P0I3tE5t6rZ8Pp2959npnU24dNF65he4dSZdd+Z5ydgLcab2E2im2/PI4qiTRURERERERERElh2vXqkFD2EUd7spNprP32rIDpZznSxdxQiXqfU8QaGT5SKsF1v9OvWUZZIdI7zSiA2tXsPsQqQBgrjzWi07Nh63+ECOKxhb5NmQHsdIS+690e68R4PKSDbsJo14JVvi3lELbEWXZcWXsiO5oJMli6e9z71pdn7n1SwuT3Z1oDsW3Hky6xjP4uxJ6kfqzvGL77RM3Xs/uzJyHkm0CWdaX+byXeqcPz91soiIiIiIiIiIyIqoRvswUj4EhL0bXEVERFZC3A4w1XyaG7u8jtj5fzIgIiIiIiIiIiKyVJIGzt3+RUREZFWxe+Tyr6BSJ4uIiIiIiIiIiKwY3uNfZC0LsgdrdI7zIHuiP4exS51YmMd4yzs+KJzO5+N051ZMlo/LdZ5BdD4fy++shzF2XHaeaRLmsc7Q6tDp2Ozk76zPbsPUqZfFLq7X+Tr49bKOUt7iy+qlzlO5cul2YSIiIiIiIiIisiIqeASj1YMIorE8IiIisjra7XJ+u7DLuxZFnSwiIiIiIiIiIrL80hZG8EGMld7beZ65iIjIKmq3r8Lp9GfAB/NfDnWyiIiIiIiIiIjIsguTk5hIX4+R8l+6qXPNUSIiIqsiTcdxIvlntINr88ji6HcDIiIiIiIiIiKy7IK0gSA55cbUwSIiIqsvCKZRSvbmU4unThYREREREREREVkZaedh2iIiIgMhjfORxVMni4iIiIiIiIiIiIiIyCKok0VERERERERERERERGQR1MkiIiIiIiIiIiIiIiKyCOpkERERERERERERERERWQR1soiIiIiIiIiIiIiIiCyCOllEREREREREREREREQWQZ0sIiIiIiIiIiIiIiIii6BOFhEREREREREREelP4lKcp5QBEZErmzpZREREREREREREZH4tIKi7NJcPvXHOS9P1SMPnucDGTn6RIZWEX4Kk9OUuvQpx9DIgvCaf47CTsZ0ndjRyWq546mQRERERERERERGR7pLznSpoumRXsTC13ezoVUg3fQjY+CkEG98DbLoH6fp/RVL5XrfQDpdJZDgk1R9BsHkvok1/j3DD2xBteCuije9EsOnTSCbeibS5E8Hs+fdD1snIaTdUZ8uVTZ0sIiIiIiIiIiIicjHeDqyRJzYic9pSEiCd/BaEO/4O4cjLEVZuRhBtcWkHwuqXIdrwp0jWvx9p+d+4zGWXRAZVCRj7BUTrfh2IrgHCTQjCjW640Q03ueE2RKPfjHD7PwOjL3HHf9B5PzCxs7Hl0qxLvLpFrkjqZBEREREREREREZGLtYGAV6/4nSuWqjcj2PBzLsOom+gmQFS5DcG6P0Rae42bHMnjIoMkRFr+KiTlb0Dqjus0mXPDHr0lpVuB9a91wxvPdzqSGwaxS+xoYaeLXHHUySIiIiIiIiIiIiIXYgMyf6FfvIKFKagAE98MlK93E/MLou3A6E+7vF/pptQUKQMmWIckfA7iOEG7eRCt+qNoNx5xaS/i1hEk8ekspUm9k6ovQTr2ardc7eL3Bd8rvHWYXHF0ZhMREREREREREZGL8Nf53aSVW5GOfo3LMJ5H5heWrwPKL3FjUScgMijCzQhrX4py7amIyttd2oogHEWSTCNun0C7cQCtuQfQnLsvS636g2hVvgRxdMvFnSwuBeyY1NUsVxx1soiIiIiIiIiIiMjF2Fhsz56whArS6vMQB1eh3dyfpebsvWhMf6Jnas7cjTjmk/NFBgyfvVK6GUFYRRhNICpvQamyC+XaU1Cu3uCG16M8cpsb3pSlUvV6RKMvQrj+G/MCulAnyxVHnSwiIiIiIiIiIiJyIf4yn50qhV/qIxlBHGxAq/EI4sb+7BZKQTiCsHQVoso1KNVuRmXsBaiOv8gNn+di1yKIJpC2p/MCRAZHmpbcUVl8XlCAIChnHS+8qiWMJi9IUXkb0vFvvLDzsZjkiqJOFhERERERERERWVlqax9eYYCovBMj674K1YkX57/wvzFLpcpORKVNCALeFqzTUF2qXN2ZN3orF86KEBl2abDZHeITnXOZJV7BYuc2neMG3xK+RjqziYiIiIiIiIjIymHDVpAP/QZJP9FKxsifNygx8uetVIzJvUYp+0oKv9BPkwApH3y/QEG4nf9euA4mKo7bsDi+WjHy561GjHrF/EQrGaNeMT/RSsaoV8xPixRVtiMZfcnFZXHIFnf/HOfPW6kY9Yr5iVYyRr1ifqKViC0RdbKIiIiIiIiIiMjKYgMXGyFpiRu7+rZa6/V1q8Mg1MuUXLL6nBta78sS8be3uK6V0m19K12HbgZh33SzVuqVnYNSN7iM+3uxfCYWYeN8e3Bo5zgqTtPlxor8mC3TLeZbjliRH7NlusV8yxHzFedfJnWyiIiIiIiIiIjIymIDl9/oZdPW8GXzbMi43w7qL2vL2bLd2kuZx1/GFJexssiW4bQ/JBsy5q/PX9bG54uRP278ZcxSxWy8W8wfp7JLbD20svwyFyjBJvdv3hTpr6O4TuPXySwmZuPzxcgfN/4yZqliNj5fjPxx4y9jlipm4/PFyB83/jJmqWI23i3m6xYr8vIEQeImW/nUIrAefp3ZwWJ9kMVt6XWuMH7MxueLkT9u/GXMUsVsfL4Y+ePGX8YsJmbj/cZ83WJLQJ0sIiIiIiIiIiKysro1gLGVio2QjFvjGmOc5rMOrBXLlmVifovbsn4+Kubz181ybRmL23IcMm7lGoszZvVizJbzt8FiHPYbs2G3GMv2LSbGcT8Z1sW2hTjNxuLincH8ZRak5sp0hdo2G66TLObP43hxH3Xbv/3GOLycmA3n27/mUjGO+4m6xYjjVh9zqZjFu+2HbjEOLydmw26xhe4b48c47idj48UY62jJyvCfmWLS1P1fXPHipe4wv2AdVgc711jduEoOyfL7MauSX7VuMZZb1G/ML8evA1ldyY9x3IZUjNn2+ds7X8yWpX5jHPeHNF/MZ+VxuITsNCYiIiIiIiIiIrL8io1nHDKxQcxaqjj0G9Ts9jvUrTWL8/zGen+a/OX9Bjb7xTnXYesjjnP5bstY3K8XY0wWI4v7Zc8XI8aYOL9bzMomxrisv75LxWycZds8JpZNjJGXL2s05jQbSJlcPEgt4wIELMwtV1yU0yzXtpdDW59fT47bPrAy/JgpxpjXYiyH5ouRxTjfjzEV18cYl/XXd6mYjbNsm+fHyGJWBz9fcd90i3Hc6soY+TFjMS5DVodLxTjOGDHG1Cu2kH1DxZiNs2ybx9Rtff5+4Hyycjm0eRdwGbOOFlugT2k7H8mx7BGXWA+yIYu17WDitNWVQ3+7bJ6/XTavW8zfZ71i5McMy/PLIotZPchiVl/O6xVj4jjX10/MluXQj/n7pluMOG51ny9m28wY+du7RGxVIiIiIiIiIiIiy89v8LLGM7JWKsaYx5LfMGZDG+cyftxvrLM4Y8RpzrPyOOQ8JubntOWxOpDVq1iexYnzbFl/uWLMX0cx5vPLJs7vFuOy5Jc5X8y21Z9XHDe2TNmFR90wzxOksRudy2YtRIIxt7AVmrP1WgMw2b7368lkdeeQ0zbfYmTlWX7yYxzSfDEfyy4qxqwc8sucL2bbYDEm275uMctvMWusni/GcorL+jGymA2p35jV1ceYj/Mt5i/PIfUbY31tfYwxdYtx3GJMxvaBxTmeS9MW2s1DaDUec2kvkvZxJPFZpMmsm1foRCkIG/d1Gv6ZXLmpO8T9ss+tz/ZBcb/zNbM889XfYj7LTxxyulfMWMxn+5FsXq+Y1dffnm4xjvtl2HyLcdrqYvOKsW77xo8ZW9ZndS7G/enivMtkmyoiIiIiIiIiIrJy2MjFxjBrQGPyG+aMzWPc8tsyzO/HLM5EnLby/Hkcp+IyltfWRVwH+esnixdZeTaf01YuWRndYkzE5cmPd4uZYt2oW8wfJ6uDlV2cJi4z6kITbsgH4S8lrsfq5G8f2TwOmaxuHFrM8lqMGGPqFTPzxZiouDwVYxYnlnU5MWLM1mExDhlj6jdmZVuMesWYesXMfDEmKi7PZDEu5+elhcSoV4zrsPUYK4NxfznyYkEQIgxH3aQLpE206o+i3diHVuMJtOsPufHHkbRPIolPI3XzTZo0gLmD58rKOiJ51RcV68JpJn/brP5UjFn9LJGV6cct5pdrirHi+slixBinLxXjcKExW5/FyOrRK2bmizFRcXkm//zs5yV/fIn41RMREREREREREVle3Rq4LGbDbg1zfjLMw+lig5op5jfMz3hxvVZOcR3kd5pYomJeW6c/v1hur5glc6mYxS8VK7K6GWshtLy2HcRxJna0rOdwzo3s45wFiUob3b/FFRf4dWWdbB8Rxznfj1n+YqyYj/yYLdcrZslcKmbxS8VMPzF/2mJk4/3sByrGmHrF/JfHz8dxG/qJitN0qZjFLxUz/cSs7v50r8ON8XNlRQjdsVmq3YBy7WaUR56KUnU3SuVtCMJRJPEU4vYJNOfuQ3P2XrTmHkC7eRDtxt7O/olcUeNuyKtYerW0F+th9ebyVg+L2TQVp+lSMX/oj9s2+689DUqM09QrZuP+0MaNxZiK+9wvYxmok0VERERERERERFaO3wDmN3ZynImNYb0a/W05snHGrUHelre8looNbMxvceLtfshvKbN5fh38mMWtLLK4TftDi/vLcdyGVMxvy5ANFxMzViaTz5/2x7m8TbOeFTc51gRKRy/4VX83cXwGrcbjWcN0Y+ZON/yci+66sE4sm9PcrxwW96Wfl/OouLyfr1d+fxs4bkPqFvPLY4ypuI7FxEy3mO0Dw/FiPouRxRcT8/eNse0v5uN4t33Ta3+RlUOXEzPFfUMWszrYtF+OJcY43/jLBiWX7BIUt1nRRCex46V6Dcojt2adLpWRZ2TTXCS7pVjr8ezqrpR9h34Hi63f56/P6mH16rUfbRnTLcZlFxqzOIdWB398ITHqFrNtYsxcKmbLW4wYY70ZMxbzy7GYKa6H4yyDQyYrn/zxy+BXUUREREREREREZPmwQYuNYUwcz59lkE1z3BrKLA9ZHrJxW9by2KMTOG0Nbn4y3ZblNFvIOG1xxvzGuG514Hyul9MWszxWhsX9+Uz+uvyhjdvy5OdhIn96oTEOrQ5Mlsdi/pDzOPTzc5DWkcaznYlMmnW68Bf+9ak7MHfm/WhOfwpp+zSCcARReadLu9ziTz1fTl7WuSHXZXXhkDjur7tYJ7J5TMUybOiXYXl6xSzOaQ799ViMiWzcj/l5FhLj8TRfPhsSx1mvXjEm6hazsi1m27vYmMU5bfPJxv2Yn2chsW77xt7nxDrY+9HqY0Pyh/64y8Pn3ac9m8hDBEHZpQrCaBxRaQsqI7eiMvoMlKs7EPAWYXxOCNn68nLPTXNIVn/i0LaJqbgsY2TLWD6y/BzaeW+hMZZZjDF1i/nlFGNW32LM3w6b7idmy1uMibrFOPSXJVue/PIsT3HI+UxLQJ0sIiIiIiIiIiKycti4WNQtZvx5Ns6GMY7btN/CxXmXavEqrs8vzxrd/MY3P7+N++splmcsXqyPxTm0xDw27rP1+HHL12/MZ9M29OtWzN9j2QB19+/Z7FZKzbkH0Ji5C43pzyBpHUZUvhq1yVdiZN1XojL2LJRrN6JU2Z5dDYCQ91XKCuhetsVYp177/1L70ubbtOF4cV92i1G3GHWLcdqP2fRiY/6QbNy2ixizOho/5pez3DHqFiNO+zGbXqqYz+pAlqdbXosxv5sIS1sQlTZloQVJp5BafbKyPDbtr9/yki1j9SW/nGKcqbht1E/scpYljlsy3WJ0ubEiq4+vVx0Nx/3Xg9M2n8vafveXWQLdqioiIiIiIiIiIrL8io1j3fgNZmaJG8gu0E/ZxUa8on7KYJ5u20b+8v2UdSm9yrD1z7cO5inWs30A8eyn0Ko/yAmUKrtRHXsuKmPPQbl2PQLegqmbaGP3be5nP8yH+fwy/OV6jZt+Yyvlcuo4SLFB5NeT40EFSfiszvQCBe1PdW/wp4Xsj2KdfJxeyHtjIetdav3WZ7ViZr55l0GdLCIiIiIiIiIisrLYcGiJ/Oliom7xfhJ1i19uIn+42ETd4kuVTLd5TGxw7Ba3RMxTaJhMkykEYYhy7RZURm5HVN7ips8/16KXoPbKfCznr8cfJ5vuN1G3uJ+oW1xp8JPpNz5fOqcERDfl4wuTto8VynL88m3cT9Qt7ie61DT5MaXFpSWkThYREREREREREVlZxYZ7m54vUbf4fIm6xftJpts8S9QtvlSJusX7TcbGu80vxvzUQxicQRS1s+dUzJuxIC0998LsxXX1mrdUibrFlQY/mW5xNpgX4/MlE1SRlp+XTyxMkDyUj3kuKLtLom5xJvKHxXE/RsX4lZioW7zftITUySIiIiIiIiIiIlLUb0PcEv8i+gJL3BC4ZJITSNt7kab2pOz+ROWt7p9r8ymRVRaUEFWuzycWKNnTGRbf/5d6z/Y6Xyzkvb6c55xhMkDnR3WyiIiIiIiIiIiIyKWda9x1I8lRN5jNp/sVIC19eT4usrqS8KvRmPk84uYhpGnTHc9JPmd+cesg0niuMzGoHaGyotTJIiIiIiIiIiIiIpfmNSgH7bs7HS0LFNS+LB8TWSV5Z2Fa2okwHEG7uR+t2fvQajyGpH0aaZJ3oPQQtD/m3gpnOhP+VSW6wuSKpU4WERERERERERERWZj2HgTpqXyif2n5BUiDnfmUyCrIOwvD2leiPHIrKqPPQFTZnl3NknW4zD2AduMJxK1jLtbqZM6lSR2ovyO7ZV7Gv5JFV7UMrmXuAFMni4iIiIiIiIiIiPTHGiuTJ5G0nmCrcx7oTxhdBVRfkU951EAtKynahqDyzGw0CGuIyttQrt2EUvU6RJVteYfLXrRm70Gr/jDiVueqrTQ5iyDJb5NXbLjXlSyDa5nPL+pkERERERERERERkY5LNRR7jZVB+8Pu32Znol/BOFB5SWdcjdKy3OwYKxxrSfh0BOFEPtURBGWE0Tii8tUoVa9HZeR2RJVdbk6K1twX0Zj+JJK6O+bT/fkCncE56igcPN3OMctw3lEni4iIiIiIiIiIiHQUG4qLDZLedFK/96LbKc0vcfnbSNItSMPbejdKL0MjqFyh7BizYX5shSPf1BnpIQhK+RUuV6Fcewpqky9DqXoD0ngWaXs6z+XoWB1s3c4xvc47l0GdLCIiIiIiIiIisjJSIODdpdgwaY2TNn6pRN3iq52oW3zQEnWLXypRj+kwvgNJ65FObB5p0kASn0Fj+nNozN6FBBNA6WluRniurAsSdYsrKXVL1C3eLVEwgbTyynyiXyHC0iaUorMI0uMXlueXf6lE3eLdEi0krrS4tATUySIiIiIiIiIiIisqSJVWOy0JllX/m3yiizRG3D6WPdOiVX8EUXkTKqPPRnnspQiqrwTCTXnGi3Wrs5LSfKlfafkrEZa25lP9C9IzSFv3uwJm8sjCdau30tKnbrL4MlzFQupkERERERERERERkZ7mbZes/yWSZC6fOC+JZ9BqPIp2Yz/C0jqUR27JHioehiMIgghB7aVAdEOeW2QF1V7BfzrjC5EcBdp78omFsYb/dJka+eVC3Tpbsn3fowPmcgWTk5Pnit6zZ3EHiYjIIDg5l2L/VILDMykOTcU4MJ3ibDPFXBuYa6Wox0AcJ6iWQpcClENgfS3AtetCXLcuwO7JEDdtiPLSREREREREZClF8ZOYaL0WI5X35hFZbRc0+LKF0JtmA2XfDcKbPoSg+vJ8wn33bh3OrlwJo0mUazcgCEdctPhb7wTpmZ9HMPNGt+qLO2mKDaQil9LP8ZqET0Gw4c8RVl+QR/qVIpl9N4Iz3+lGZ/NYb8X3jz+tY3vlXOqY4GtxKnkL6iV2vC2eOllEZCi1E+DR0zE+vK+Nj+yLse9sjMOz7g+ei2cntSBAkqZw/3PCDd2InVjzs17g8rj/OTebVQoDXDsZ4OW7S/jmp1Rw04Ygi4mIiIiIiMjlUyfL4Om7E6Wg2ICcVL8G0ab3IE3qaDeeQLt1AJXRZyEqbXBze99IJ2l8HOHJb3Lf2Y/mkfPUEC0L1c/xnI7+Z4STv+wOy4k80qd0DunULyKYen32KCFrW+ql+B7xp3Vsr5xer4HvdKxOlnk1YuBUPcWdT7ZxZDbFiVk+WW358Rfyhg3BkZtkQy7F3NtpiihvuGUjcOJifkNu02WqcKFcy02XvWmOh5d6J68y7ntfcRu4X0J3ZIduxzTa/W9Lwy1XcsttrIW4ZVOE69eH2FADxsqhKyvPtEr4Ok43U0y5dHwuxTF3vJ2oc1+kmHGxlqs78yxkeylyJ27/+CguX46AHRMRnrYlwraxAJMVdgzkM9eY2VaK0w3g7x5q4O8fbeOBE0l2LC0H7sMXbC/he28r40U7Su44C7L3sogsXr0NnJhL8OiZFPcfa2PavafjZXoP+0bLAZ66uXOl2kb3Xh5350kRERERWXnqZBk8fqPvRY2R7ntx4D6vd2uUtPznlou2oD32l4jTUQRhFZWRp2XDfsQnvwNh/a351HksW2Qhuh2rGcazY3oLMPkmhKPf1YkvRHLM/f/VCOK78sDi6dheOT2PiRxfC13J0gMbXR8/k+Cfn2jhbx9iQ2yhxV/WjO1jAb76+jJetivC87aXsK56iXfOMplppbjzcIz3PtbGR/e3s1tWsUNlJbET4LnbIrz6xjJesrOELSOdqzTWAnZQPXIqxnsebbv3dBNPnF25nctbir14R4Tvvb2KF10dYf0qHWMiw6ztToiPnk6yc+TfP9Jy42kWW2nXTIZ41e4I33RzBbdtjlBZox3SIiIiIoNKnSyDZ74GyHMdKP0IqojLPwRM/gyi8jYEQSmfcWlJ8/MIjr/UjZ3tBBw1Qsti9T5m3RfA2lcB634PQbQ7j/UvaXwEwYnzt8Sjru8RTrt4cZ4/reN75fRzDluKK1miarX6C/k4fvRHfzQfG168YuLD+2P85p0NvH1PM7uCRdau6Rbw+WMxPv1kjBk3vmM8zDpaVrJz4WwT+F93NfD7n2/ijgNtnG6kq3KdEX8h/tjpBJ882MahGeCGDSE2jazgjlgmZ3jlysNNvOmzTfzDoy2crOczVgjbgfdNpfiU2698ba9dF634MSYyzJox8KF9/LvcxDseauMYb+u3Sn+az7j38N1HE9x9JMmubrl2MrzgylERERERWV5hOo1q8iGUo0fyiKy6+T4O2zx+fr/kx+YYQVRGOPKNbrgxj/UniLYhae9D0P5sHuljdSK9eAdP1plh08EE4vK3Ii09D2E46qYX9qu7dOrn3TF6TzZ+rtz5DtTCvGwyj823mCyxPnZ2Pf0mtMPr8qnFWXOdLJ84FON1d9Rxz9EYcT9dVbImTDWB+08keHI6za5oWalbwbDR/Rc+0cBf3d/EibnV6Vwp4sPdHzyZ4J5jMZ6yIcTV48P7U23edu2XP1HHW+5v45HTK391kI+dePcd57NfEjzfHWMTut2QyCXZDx9e/+kGvuDOSav5HvadqKf44rEku/XkTe48qWcviYiIiKwMdbIMoPk+Ctu8Lnm6NTKHaQMoPQVB+Zl5pH9B+alA81NAcrAznf0rsgj+cekfSOVnIxn9cSTxWZfOZLezC8JaPnN+SfsAcPZHXXHNTsCVe0EHTh+yrHn+BSwml+sSO5uv41J0sqypG2Xwodf/+YNzeOxMMhCN3bKy+DyUf3qshTd9trEi9/jn80HeeGcDf/dQ66Jn0Kw23obnriMxfv6OBg5Nr8DOWAYHpxJ8/z/N4m/c/j26Qs9TuhR2YH1gbxs/9ZG5PCIi82Hn9298uoGHTg5OBwulri6HZhK80f29uPMwO3D1qUFERERE5CLzfEw+97tmL0+aHAMa7wOSQ3mkf7x9UzD+nzvj+ngui8TjMjt+8mPo3LHk4mntNSjXnu7STW4iRnPmc2jO3oskns4zzWP2z1xZF+Yr/rb/UsftubrJ6im8ZrRU12ismU6W2B2kP/XhOo7MpFnjiVyZ+OyOtz7QxIOnlrdRPnUH2ccOxvinx9rZg+0HEd8HXzyR4H/f1cjeH8OCVd17JsH/989zuPtonL2mg4TPfPrQvjZ++ZPDtV9FVho7e//43mb2XLRBfKtkHS3TCX73c/XsakgRERERkSuZ3/jbrSG4v8bhFGnjX5A2P5+NL0gQISm/FGnl2znRiYksEI/Tbo3mSem5wOi3ZcdZGK1DZfTpKI89230vbKA581m05h5Eksy6hS/+FXUSn0Iw+8Z8qrd+GuuXqkFfFi47hy363HZpa6aThc/C+MyT7XxKrmRslP+lT8xljeHLZaoV4AOPt3FkZsB6AAp4q547DsZD897gr8n5XJlf/CRvLZQMdIfpX9/fwEf365wj0st9xxP8/SOD/x756IEY73+8lU+JiIiIiFyZ/MZfjhcbHm1+rwZJiwfJcaRzb3Nf8E93An1I0zbi9nG06gcRs6Mluj6fI7Jw/jGaHbdBDcHEbyCMJjvBXBStQ3XsOSiPPsNNJWjN3YemS0n7JNKk7hbudLgEjfe62ecfEHzuWO/xXiB/3nz5ZOV0O6+Rf+67HGuik4UNye9+pIU5tXdK7uMHY+w9u3wdII+civGFY+5DwBCcKA9MJfiE2x+tQbpXTw+nG8Dvf76BDz7Ryn4FP8jOtoC37WnhbFN/LUW6+YMvNLK/z8Pgrx5QJ4uIiIiIXJl6NQD3anicr6GS8Wxe/R+Qtj7XmXEJSfs02o1H0a4/ilJlF6Lxf4t09PuA8MIGcZFFK78EYe3L8omiAFFpA0q1G1Gu3oggHEGr/pBLj6Lljsu4+RAw9xfuAL/wtvE8zovvkXPHv+PP65ZPVkfxtaClej3WRCfLiXqAh08lA98oKyuHV7Es59UbvMXM/mXsxFlKfF7M42cSnGkM/vvj7x5u492PtNEcgl3L5/7ceyzGPUfVuytSxGdWffzgcJwj6e4jcdYhLSIiIiJyJbLG4X5Tr2VMmJwCpt+EJJnJI93FraNo1e9DmsYojzwVUeVqhNEGYOR7EEfPdjm6tIiK9OHcMRm442nsR9zI/E3gQVBGWNqQPa8lOxbLW1w0RDL7EaB5nzsS04uOc5u+VLyYZGV1ew38tFTWRCfLkZkY0/oRqhQ8enp5Gsz4w+xjs+lQHXMn66zvYH844W3C3ngnn42whGe4ZfbkdIJPP5kM3HNjRFbbQffeODE3PO9lvocfOKE3soiIiIjIkmn+C9L6e/KJogTt5gG0G48gquzOGrbDaCKfB4TlaxCt/y2kQSmPiCzS2L9HUHuFG+m/TYy3FYvKV6FU2YIo+TyC5Ml8jkhva6KT5ehsgulh+Om7rKjDM8vTwMdfaO+bSjBMF06V3Ts9Wsru2WXwIx+YyzqDhkk95nMnYhxz5yAROe+IO//yGUvDpDkktzYTERERERkGQdJAePYHkMRn88h5rbmH0G48gVLtFpQqO7OrCC4UApVnI1n/1nxaZOHS6kuB2ve4g/F8B96CND6PoPFBN6I7mMilrYlOFjamTzfzCZHceGV5rtzg7beOTA9Xo3rodkUYDO6VLO98sIkvHOs8UGzY7J9KsgZlETnvoVPD1/FYigb7aj8RERERkWETxA0Es78KpJ2HhqdpC625B5DEp1EZezai0sYs3ks0+k1Ix3/NFVTshBGZXxpuAka+C0HltjyyMKk7RuOZf0DQfiiPiMxvTXSyHJ9LMNtWI6dcaH11eRrMZpq8kiWfGBKjpQDVKJ8YMCfc+/ct9w/v/f7YycttEJHz7hnCTtNdE2viI5GIiIiIyABx3wtm/xJJ/f1Ik1m0648gSaZRHn06wnA0zzO/YOI1SKpfizSo5RGRS4mQ1r4Rweh359ML1575DOIzf7pGWs5lJQz9ocJbNx2dBVrD+SN4WUbXLFOD2Vw7zZ43MEx4VU9tQDtZPrA3xkMnh7eT4mwjzW5zNky3jxNZbsP2EPmxMnD9Ol3JIiIiIiKy1IL4CNLZt6I1+7nsSpbyyG19d7Bkwi0IJn4ZqHylK6ySB0V6S6Jno136FiRx5wqqhUqSWcSn/wTVyok8InJpQ9/JcraZ4vhcCrVvStHudctzeJ9pAqfrw9OAyOexXDUaYLQ8eA2IpxspPrKvnb2PhxUfmM1OFj3OQaSD74cjM8PVyXLNZIRaSZ0sIiIiIiJLLm0harwfUfvjKFWvWVgHSyZAULkVweRPIS3dlMdEukvCXUjX/zZQugat+kNI4jP5nP5NP/lWlFp/p6tYZEGGv5OFvyLXrXqki1s2Lv3hzec47zsTZ89lGRYjpQCbau7NPoDth7yC5aGT8dBfBcJbyLV1KYtI5uBUgnp7uDosbtukT88iIiIiIssmPYWo8QdIW/dxohNbEPd5vfJCYP3vI43mf46LXLlS9zU03Pj/ENVeiHL1eoSlTWjO3oN281Ceow/xCUw9/mMoVRd3FYxcuYa+VeHobIoD02rclAttGwU2jSx9Ix+PtH1Tw3W8rasG2DGAzxrgXrzveIzHz6iTVGQtOVVPMWyPSbt9szpZRERERESWUxo/jnD2l5Amp/NIv9LsNmNp2kacXoP22O8iDSfyeSIdaVBFPPrTSMsvclMhgrCKcu1GlCq70W48jNbcnuw46rRGdZcmDTxy5w9ix44pXkAlsiBD36ow494fvJpFxHfzplI+trTSNMW+s8PVKTBRAbaPD95b/XQ9xf0nkqG6KqiXWjkcyCuFRFYDO07nWsP1d3nbmN7AIiIiIiLLKeBXhPr7kZz9NSBtdoKXwIflx60jaM5+Ac2ZzyFuH0VQ/RLEE3+CJLo2zyVXvGAC6cgPI5r4CQThWB7s4C3qKmPPc8fSTOeqltbhvLOlKMapg3+NddHHAT36RxZhqDtZWnGKQ9Mxpob4eQ6yPJ69dXme8s4j7f4Tw9UrwIfeb1mGq3ouF5/b8MipNdDDIiIX2J/dLmx4/i7zuVW3bFqevxkiIiIiInIeO1rC+p8gnfsrpPN0tLARvN08gObc/YhbRxGVNqMy+kxUx56LUmUXSmNfj3T815BGt+RLyBUrKCGtfQXCiR9HEF2VBy/E5wBVxp7jjqNNSFqH0a4/nD+r5fz31tkzX8Cpvf8HE5PH84jIwgSTk5Pnjqg9e/bkY8Nhupnit+9q4Pfu7q8HXK4cf/AVI/i6G8v51NJhx97T/2Qqe/j9MAiDAF99XYT/4/ZHacAutbjrSILXvHcGx2aHpzG2l599UQ0/9PQyqpF+DS9XtlYC/PiH5vCuh1rzXIQ9WLaOAh/+jgmsr+r9KyIiy2+2leLuI23sn+48128pbBgJMe6++lTCNPs8um08xM6JMPshgcigieInMdF6LUYq780jciVKS7uBydcjGPn2PHIer15pN/YiSeZQqmxDWNqCIOjSvpPOIZn9OwRTr0MQP5wH5UqTVJ6LcP0fA+Wn55H5pEjiacStJ93wLMJoHaLK1UjjBg4+8D9RnvkDbN3RcPE8u1wxTiVvQb30inxqcYa6k4X3ff/FT9Txtj3dLvOSK9nffP0oXrRj6W8Zdu+xGF/1jpmhaTwsuy9Z33FLCa9/6UgeGQzcf+9/vI0fet/s0D/0nn7lJTV8z20VlPRFVq5wT86k+LEPzuJjB4bnKrWnbYnwjlePYlKdLCIisoyOziZ4+4NtvP+xFg5O86pPIFmiG75HQZp9DuUPrEL3SXtdLcTtmyP8wNPKeIb7O6fb2sogUSfLFcq+99vQnZjS6pcinfw9hJXb86CbnTTQqj8EBBFK1d0IC7d+ukhaR9r8OHD6NQja+/KgrGl2DLm/bUnpRqQb3oXIO4b6ksaI2yeRxKeyDpe50/fg8P0/j107T2N8Ms+j9p21zzuWlqKTZagPmdl2iodO6aHZcrHrNyxPt/MTZ+Jz78FhwC9cOycHrwu+7d62j55O1kQHS8WdRTeNBOpgEXFOziWYHrLfPdy+KUBZv1QSEZFlkqQpPns4xve+Zw6/+sk67joS4/BMitONFGcbyZIk/viQV4cfmUmyHzzsORHjnQ828Q1/O4NfdutkHUREVh1PRfa9OUkRND4GnPkfSFpP5MEUceuwG7ZRrt5w6Q4WCmoIqq9EsOUupOGteVDWvgBp5dlIN3504R0sFESIyltQrj0FaTqGvV/8bYyNnMH4hJvHY1TtO1eGJf4RylAfNs04wJPT6mSRC20dDbCxlk8ssUeGrFOvEgW4Yd3gvc3ZucJnsqwFYxVgpKSfB4rQ0dk0a+gZJrsmw4G7naKIiKwNvI3m+x5v43v/aRb3HFv5qzy5/t//fBM/8eEG9p3V92YRWUX8uM3kf1Vw42HrH5Cc/QOk8Rkk8RTarQMoVa5FEFbzTH0KNyO96lNIql/r1jN54XpkTUnDCSS1b0Cr+j8Rljbl0cWJm0ew/75fRdB+Ahs3uoNGXwvlMgx1J8uM+9R4pqEzp1zo6onQnReX58z46cPD9aB2PiLkqtF8YoCwk+VMfW180dtUC7FOtxkSybDz9OwQ/V3mbVV2TUbuw5A+S4iIyNJ772Nt/OSH53B6lX+A8HcPNbPOlqMz6mgRkVVip0EO/a/P7rSUnv0DnDn0J2jO3oNSeSfC0oZ85sIl469Hu/rdSKNr3XqW/hbyskp43LiUdbCM/jtg3Rvda7wV7ebBzvxFaDf248C9/xWnDv49JifS87cJkyvHEn88G+pOlsdPJ5hr5xMiuWsnQwTL1Oa998wSvwOXWS0CblymW6ddjjhJcWwunxhy28cDbB5VJ4sInWkA063hOU+OloEd7j0c6UoWERFZYrxl15s+W8/+Nq62ZgL8w6MtvPfxdnZ1i4jIivM/btt4/rWhHJ3CmSd+CVPHP4mosr0TXIA0baLdeBStufuRJG1g/L8gnfwtoPRcN1f3fRpq/lfL6Gr32v40wvGfRFi+FlF5B+LmPqTJwhuX2o0TOLTnDTj8xDsRRcC27W5FPFT0tfDKssSv93B3spzRJ0S52O51vJJl6U03UxwastvTXTU2mFdZ8L7QU/y2twbsmghx1Yj+EovMtFIcmIqHqvFm80iI0bLevyIisvT+/pE2nhig76sn51J8cF+Mg1P6Di0iq6jbR28XW7f+JA7u+T3MHX9fHuxPEk+jNfdAdqsxPl+jXLsVpepTEI59PdL1v4u08qI8pwwlHi+pe52jXe71/H8Ixv8LgtLV2ayofBXC0mY05+5DsqCOlibOHvkbHN/3dqRJE9dcnWCEd4DhuvTV8MqyxL8PHepOlgdP6gOiXIyNZkv+TnEeOpUM3S+/rls3mH8heIueicrw//UaKwfZlUJj5TwgcgXjlaUn5lIM07N1t7oP0+PqZBERkSX22OkEdxxooTFAdxrmn+dPHmzjEVc3EZFVUfzY7U2v2wCUsBcP3/mfcGr/n+fR+bFjpTn7BQRhDeWRpyIsbfSe5RIhqDwLweb3IR77OaT6yD+8ai9HuvHvEdRe5Y6Z8TzoRoMSKrVb3R+4GHHzUB69BJf31JPvxd57fwXN+nGMV1Ns4cVTuuDpyrTE54WhPoz2qJNFCnjHl6dsCLNG/KW2dwivnLph/WDeg5S35tmyBq7+2DIC3L6Zt6fTJzYRXu13eMju9b5zIlwTHb4iIjJY+OOswzP5xADhVaf3HotRbw/RLyJEZG3hR29+ZbDfxjK5GL9S79qVoj57AI99/mdw9PE/RBLPupndpUk9e4ZLWFqHUvU6t3wln+NjweOI1v8CsOkDSEpPc7Fu+WSgZF8p3WsXbUcy+hNI1/8ZouqzXKhLE7aLVUaf6Y6VU2g39rrAfN9HE8yc/BAe/9yPouGOsyBIseOaNDv2ssX0p1Eu09B2svCKAt6WRMS3oRpg00g+scTuOz58x9utmwbzLc7OsGF/WDxrf81k6Pbx4D3zRmQ1nKon2D+VTwyJLaNB9lwWERGRpcLvqV88FuPo7HwNPauHtz9u6mu0iKwma6bgkIlfrlNgYh2wfl2KVv0I9t/7Whzf+2dIk4sfbJWmLZdnT9bBUq7e1KODxRciqH45go3vQjr+H4DSTXlcBg47OqIxpOUXIJ34FQTrfw1BaVdnXg9BWEZU3o64dTB/EP7Ff3/TtI14+n04et9r0JztXPWybjLFxMZs9PxxKFeWJe5YG8wW2D7sP5tgqplPiOR2ToYYKS3PmfHhU4P5RWk+N20YzLc4O1k2DvmVLNUIeNW1JWzS81hEMrxd2Mn68JwnS+70eNVogJr6SUVEZAkdnk7wxeOD+4yyRjvVj3VFZCCxnWDLthSlEtBqnMC+L/48jjz2uxd1tPAh90k80+lgOXd7sEsLyjcgmPwNYN3/6TwcP7AWdll1+R+mtPwUtCvfh3j8DQjGfqCPDjQKEZW3Iapcg7i53x0f+/N4Bzvlkpm34cSD/w5HjnQ6WKqu2K3uWIvYnMPE9euP45VniZvzhraT5aFT+vmNXIy3CluOW7/U28CR2eE64066PxrXrhvMt3gUpLje1S0a2jMQsG0swNffqJ/Ai1CcpHhyJsFUY3jOk3yWEp/hxdsXioiILJUnZ9KBfnZoOQo6t0YRERkkeUP3ugn3GX1j5ztFu3ESB774Szj88K+4eZ17MCbtU4ibB1EZuW1BHSznBDWg9kpg8teQTL4BSellLnb+OR+yOtJwHEntG9wB8DtIRv8dkgV2gAVBlF3NElV2I24fQ6v+6LmH4adz78DU3p/H/n2Hs2na6I6xyUm3HNuk7G+i/jZeeZa4+WJomzg/f0SdLHKhivvC8PztETbUlv7MyMv9zwxR4yFdNRqiPKDvcD4zZ4ur38ba8PayfPdtFWx22yAiQOw+kfK5VcN0luTtJXm7MBERkaXSTtLswfIHpga3k4W37M1+uSsiMmjc1+soAjZuSjFS64TarbM4+MDv4Mkv/jek7RNoN/chLG11aX0nwyI15x5GK70e7bFfQHv0tUjDrfkcWRHnvjgGSEvPRbruDxBu+L/Zw+2DcBKJe60Xih0tpcp2l3a75Y+jNfsFxDNvRfPoL+LA3r1otTv5xsdTbLkqzY61c/R38cq0xK/70LYQ3nt8+G7dJMtr92SAG9bzofd5YAnxF9qNIevXu3FAbxVmNo2EA3s7s0vhcfYfn7WIX82IrFGx+5N8Ym64OqJ5DuLtwkRERJbKbAu4+0iMeID/JPJHTiVdxSmDgE06SkrF5M6fvMJgcvL8ibTdmsahR/4f9n2BDyx/BOXajfmcxUjQmL4DcfsoKqPPRmX8pSit/2kEW+9HOvaTbv3ue34SXlgnpaVPaehe6hrisf+KdPMHEY59JxBudjMi9/peb5lcWijeOmwLKmPPRhg/DBz/WRx87CFMz3TK4t1UNmwARkezyYvrpXTlpiUwtJ0sw/h8DFk+/DXWM6+K8JSNy3Nz/SMzQHOQvy118bytg/323lgDbt4YDt0PBng7ul9+Sf6zGhHJ8AG69wzZjx8mqwE2jgztxyARERlApxop/uWJVj41eHiLTN7ydlCvdhcRyQTA1dtTjI+db4NptZt48rG34+hjf43W3L3Zg8wXJkUSn0Zj+s7sSomRyS9HGE3m85xwI4L1v4nkqjuRjv4gUHqKq4e+9y+5oAqUb3Jfxn4Y6dY9iNb/xoWvwzlh/hD7hUvj48DcuxCc/RkcffJxnDp9vtVpzB1TO7YOV9ueLLMlbJQcyo9Xp92HV96+ScRsGw/xldeVsXEZbhVGj5yKMdcerhPxzsnBfpozb1Xw7K0R1i/Ta7Yc+IX0224u4/nbS3lERKidJDia/zpoGGQP1RwJlu1vhoiIXJn4LJbjA3xl53i580MnXcgiIgMrPz9VR4BtW9OLniF1bO+7cOCe70Ay/Q4gvfCB+PNJktnsOR1BNIbyyK159GJh5WkINv4u0k1/jWT8x5BWnuvqtC6fK4uVhpNIy892+/Q/I934l8DkmxCWdudzLxZVdiKNz+ZT/Uvb+5CceR1w4t9i+uQhHHoyQDu/K02lBOzc5f5GqzlHfEv4sW0oO1kePZ2gpUeySK7kjuKvvb6ML925fJ0KR2dTtJLh+TbCWwDcsmnw3963b46yW28NAz5H5qW7Svi+2yuoDXb/lciKm2ryir/h+fED/25sHtEveUVEZGm959HWQN8qjD9uGqvoj5+IDDieR13avBnYvvnik+rRA4/j2P0/ifT0LyBpPZ5H55HGiBv7EYQ1lKs3IgjK+Ywe3Pyg8mwE634R2PB/kKx7AzDyzUiDy3sOzJUoDdYhqbwMyfjrsn0ZrPsVt2+fl+3j+USljUjis0iSmTwyP17ZlDY+Apz5r4hm/xhzU8DB/cG557DQ1qsTTKq/TJbRUH7C2ndGV7HIeV9zfRk/+uwKJivL0wlysp7i0EyaPchyWGwZ6Tz4ftBdvz7EV11Xym7BNchYu1s2Bvj3z6jgunXBRb+mEbnSPXQqQXOI/jRXowBXjamRSUREltZH9y/09jUra+tIgPV6rKCIDAv3vfvqa1KMjFzcFnPw4BEcfvh/ITjzE0ibd2YdKb3E8ensVmGlyq6so6Vf7IwJKs9FMP59aI3+GFrjr0fshmm4Kc8hXbmXKw3XIxl3r82mv0V79KeQjvxbBNXnX7qDKxeEI+6fCpLWsTwyH/dFtPERpKd+EsHsuzA728DDj4aYmjvfcLNhXYqtV7mR4WnWk5W0RG18Q9nCcNcRd/JUK+cVj79A/taby/jfXz6S/SJ5uZyuJ5hqDFfHHhsPh+E2AHwNv+upFTxty2CfiraMhvjvL6zhxTtK2b2sReRCj54arstLR0oBrlunThYREVk6H9zbxtEBvlUYXTUWYF1Vf/9EZMDxK3f+tbtUAm68/uJzK+9uc/BgHUf3vhvpiW9HWn9HPudirdnPI6rs6vHsj0trN/YhTgKUJr4T0cY3IOVD8jf+OZLKq/IcQnyVksorkGz6k+x5K+H6X0c48nKk4Za+O1dMEFRQquxAEk8hTZt5tLv26d8ETnwtwtbdfHgPDj0eYK6ez3RqlRS7rktR0h1JpJcl+vg2lJ+weEuSNB2+7kf+jShHQffkXomKe8MvRepa/iISbznFxEZlN3l+2o1fNJ2PW3L/u+El6uJvsxuvuqGlEfeHdLQcYMxL66sBNtSCrMH7WVsj/ObLa3jDy0eW/XYvp+oppprDdbw9fUvk9ot7EYYAn83yJvc6Xj0+eFeIcBfumgjxO6+s4ZW7S7p/tUgP9w3ZQ+/5d2a7O+eIiIgslQ/vbbnvqPnEgFpfDd13rHxCRGSQ8Xyaf1wfGQOu2ZkiLLT9tNvA0UPAzLHHgBPfgfjM65DGLsArG3Kt+kOunGrWYL8Ycfs42s0nUK7egDCacGWVEJauQjD2PQi3vhfYtgfJ5BuAyguA6Go3fzxfco1z+yHltobbkVSej2TdbyLd9iDCq/4Z4dj3u320Ncvj/unkX4Rsfzu8bdjFEvdaP4n01PeiNP3TCOIm4maKJ54IcGLq/Dojd8zsci/9qK7ilPksUdNAMDk5ee6j4J49e/KxwVVvp/iWv5vB544OV4MO8fZNr9wdoVa6+NVjh0S0RC9qYwl+UMwvCM24s4/jtNORYl17DLMx3BqcmTdxR2QUnDuU0HZ5KnlnSi/sHLEyOPQ7BWruXMxJlmG2Z1dnpFlHy80bo2W9esX37keaeN3Hm0P1vIH/+rwq/tNzqsveAbWU7jjQxhs+08Dd7r09CLdmY0ffC7aX8FPPr+BZW/nhQER6+dq/mcHdvMp0SNy0IcQ7Xj2qW4aJiMiS4A+yvuLtM9h7dnC/L/C71k8+r4L/7L4jiKymKH4SE63Xuu9b780jIpeQAo0GsH9fgBOngos6tDdOpti1K8XIpMvK531M/BxQebFbrITm7BdQrt2CqMx7RS1MmtTRnLsXYbTRlXFDHu2OeYP2vWidfas7xj+HID0NxIcQJMfd3OFpS5pXsA5puMG9ibcBpaciiW5DNOr2c+kZndt79dCYudPt/+0oVXbmkf7wOSvtxqNuGLv9/xQEWadNmnWuoHk30jOvR9j6ODOi1QIOHQxw9FiQtVkS2y23bE5xzTXuSOAPDHjcrEwzogyT/Lg4hbegXnpFJ7ZIQ9fJwofef+97ZvH4ED6X5UVXR/jzrx3NrsqQ4fEX9zXxi5+oY8adtIcBO6fe9PIavukplazXfpjw1/C/dWcdH97XXpLOwsXg/rtmMsSrbyjhO59aycZFpLe5dorn/vl0dtXfsPiynSW89dWj+ZSIiMjl+fiBNr7rH2cH+vlkkxXgZ19Uw/fc5kZEVpE6WWRBrGHcDWdmgEcfCzE7m825wIaJFNfuTlEdd1lLVyOpfRPi4EuA6jNRGbklz7UwrfrDSOJTqI49P4/Mjx0t9emPoVK7GWF6BGg/6NKjLt3vCnscQXIw63gZFmlQQxruRFC+FWm0G0k6gXDkuQgqT0UQXe9el/7+njRn78mehcOOkoVK2ifd6/CIW/YmhKV1SBufBKb/GGh8wO1Pt4/TFuI2cOBA3sHitSNNjqe45toU43ZxkR1LIj4eFyFwKr38Tpahaz08MZegNYSdwLyd1tXjoTpYhgyvyDkxl6IeD8/rVstugxMOXQcL8eHy/PL3H59Vxbaxld/n69xnhO+7vYo3vLSGH3l2VR0sIn04MJXiTGN4Olhox4T+FouIyNL58P4Y8YD/KZyshtmdFUREhoY1iufn17Ex4OqdCaKoM+07NRXgkccC1M+6RdqHEM78X5RmXodS6++A5Eyeq39JPI2kfRyl6vV55NLi9gmE4QSiyjUIqs9DMPbd7uT7swg2vAnBpj9CuuHPkaz/v0gnX4t2+cuRRM9EOkBfS5LSrUiqXwNM/BSSdb8PbPxrV++/ADb8LwTrfxXtylcjGHk1gtItfXewEJ+vstjejTBa59I42s0D7mV8PXDyPyCY/SsE8QFX4VZ2bPAKp6NHL+xg4a3ltl2dYtwdMyIrZeg+ZT18KsX0kD0fg/jr+K26LcnQmW6lODSTIh6A21f1a8NIiPHKcDYgsjPy+nUhfvTZFfzF147i228toxwu/77nA7D/+wureNc3juN/vLCCF+8sYWJI96HISuMVpkN0isw846ou38xEREQWYdZ9X7j7SDu7ffIgW1dF9gxEEZGhwVMWv2dwmJ++Nm0Abtzd/ZfXU7MBHnk872hJGgiThxBO/TLS4y9EUv+XPFd/kvYxBEENC3lYftx8AmFpcz7Vkd3iKrwaKD8dwcgrEIx/P4LJ/4Foy9sQbn0/0qvuQ2PirxGv+z0koz+MdvkbkJRfkj0sfkll+7Hqyn62W8erEde+B5j4L0g2/iOSLR/LnqcSXPUhhJv/wv3B+AWEkz+IYPTr3SIvRFC6FkHI56PwOboLv5V6EI33eK5KH4IIEQ6hdObb3Wv5Kwha97ltaZzreHvkkQBHvFuEmRuvSbDBHSsifVmi9oyhu13Yb3ymgd//fDN7Nssw4fMd3viKEXz9jXrS4DA5OJXg5+6o432Pt/PI4Hv+9ghvfPkIrl+/Njr1Hj6V4M++2MC/7G3j+Bw7vNwfUPf2T9I0Ow8W78faDT+P8ZcM3CN8zE/J/bOxFmQPs//q60p4zrbIvUfzT20isiB/8PkG/ucn3AfdIfIXXzvi3v/6eywiIpfvnmMx/uM/z+KxM4P9/fSFV5fwe68aWZWrxUV82e3CGrpdmCxSfgrbvzfAoSMXP5+FyiVg9zUpNm1OwedyUBqOIxn5NoSTP4mgdIMrp/fzqdK0mT0wPyptQVTemkfnl8RTaM7ehdrEy/JIPxK0Gk8gdcuWR251db3w6hBeGZPEZxCiiSCddhV7AkFyEvHcfS5v2dXvfIdOdkVMaWd2iy834rZvN/hMmjQYccMwe64MrwjhLdDCaAylyjXZcv2Keduuufvd9n1pHukf901j5tMYmXylm+rvb1CatoD248DUGxDMvNUFuP35TFdEEiN7yP2x4+4YyMPE15vN3Lfe4qKD/WdZBkV+SJ4KrrBnsvCXsj/70Tn85QPtgXgw9kLwNmF/9FUjeOmuhff6yup54ESCH/vQHO51X56GxTfcVMbrXlxdc1dOnayneOB4O7ua7eHTKU7MxTg1l2CmHWTnhmZ2j4bzf7B59VjJ7QI+/H+j+/y0fiTErokQT9kYZg+9vnmjfskushR+6H2z+KfHhqcjmueGf/2OcdywRjqiRURkdf3pvQ38+mcaODPAvzfg3z7+sOjNrxpFVR+BZZVlnSzN12IkUieLLB4vXDi4N8CTxwIkXS5sGRsBdu5IsX5D3tGSNxWk0VVIR78b4fi3u4PxBneC3NiZ4eFVF+3G4yhVdiMsrc+j82s39mbPD6mMPSuPXFqazGXPK2GHR1TZnkfnk7r17EfcPo7KyG0Iwt4dRd10HuR/H6LylgV3snQ6kb6wuE6WZBbN6U+iPPqMCzqGumLnSuz25ew/AlOvRxjzuSv5vFy76V77QwGOHL/wteffuvWTKa6/IUVJTa/Sr/zccMV1spx2H1x/4kOzQ3VVgZmsBnjft47j2sn81ZOh8JknY/y798/i2OzwdOr9h2dW8ZPPrQztLcMWohWnmHZ/g1sJh/wVy/nXiR0sfD7NRCXEqH6wLrJsvuLt0/ji8e6X7A+iSXduvPv7x3X1moiIXLa5dopf+Hgdf3V/a6CfycIfHf3A0yr4hS/hL5xFVpc6WeSy5R/jmw1g//4AJ05172iplIFdV6fYssWdoPn7Kv/jf7QVGPtWpLWvcxlfgCBcl89IOh0m8VmUR25BMM8VL77m7OcQROtRXsAzXPhA95TrGb39oqtYukmTBloNXomyDqXKDhdZ2I/Gsit05vZkHUcL7WSh+tS/ojr2PLevRvNI/xozn82eV1MeuTmPXChNGwjaD7qVfBiY/Vu3Qz/a6Vwp/G2dqwPH2MFy8uJbhE2Mp7h+d4oRPuh+gP8mrzb+SHl2pjNec4dd6dKH3tqWnxeuuE4W3vf9pz4yh08dGp6rCgwfoP2x7xzPPuDKcOAb4wNPtPEf3j+LxpAccjy+XvuiGn7w6ZWsF19EZDkdmUnwqrfPZLfyGxbP2hrhPd+sJyCKiMjl23Mixs98tJ79MGuQ8a4KfP7ga552pbekyCBQJ4tcNrZ15F8/GnlHy0l2tHT5SlKOgE0bU2zfmaJqP74811YSIS1fh7T6MgSj34Sg+qqs2Nbcg9mttUrV3Z1sl8DOC17lUa49JesA6Rc7Lcq1W/q/JVn7FFqNx9wyNy5oPSZN22g3Hsk6SRbTydKY/qTbJ9f3XV9f3Dri1v0oquMvziMmRdJ8AODD7BsfQtD6gtvQ2XOvbyZ/vWdd+PG9AWZnLu5gqdWAa65JsN7tliulLazVBk7PjmM62YSj9c1oxynONkqYno1wtLEDzbSM6dYY5tpVNNoBpty8OOX7JMBcvXOpT7UUo1RyO9Pts8lajBE3XYlaGC/NYCw4hZ3rT7p4GxtrM7h+3T6MVfLembUkP16uuE6WTx1q47+7D7EPnhyeX8ya524N8e5vZneqDAteJfGW+1t47R1198coDw64Sfe96Re/dATfdosu3RCR5XfX4Ta+6x/ncLY5JCdJ5ztuLeO3Xj6ST4mIiCze+x9vZ50s/NHBIFtfDfA7r6zhVdfqO4KsPnWyyGXLG91Nqwk8/niAk2e6t67zdmEb1qe4dleKin0N4PJWTuDOjaWrgOpzEVe/B21cjVL1JkTlS9zaKpe0T2edHwu5hVe7eQjt+gOdZ7gE/d3HMW4fQ9I6lnXMuBXl0f5dbidLc+4BhGHN7Zvr8kj/0jRGY+rDKI88I7tdWaZxB9LpN7nhvQiSg24DZzuviS9/nWfPAg89HqLe5dacfAbPDbsTrNvoFu9+CAytVlzGwamrsX/mavdZYwx37duB08k27J/egpP1EUzNldBOS2jElazdsp0EaMcB6nHN7boIrSRC4oa80qsVc3fmO8iOn6yxs7OTy5FbwoXDIEEpaLulmhgpN7OOynLYxpbRKVy/4SS+/vqP4TnbH8X16x/Plht6+S654jpZ3v1IG6/92NxQ/WLWfN2NZfzBV6hRZ5jU3QnoNz/TwO/dPcA3WC7YORHgV14y4r5A6QaUIrL8Pri3jR/+wBymh6iT5ddfWsP33KZf8oqIyOXhD7L+6J4mfumTg/9dYfNIgL9+9Rhu26TbKsjqUyeLXLZznSPZVEcbuH9PgLMzvVvZq1Xg+msTrLOLQPyseXmdh8XfhnT9jyMc+0YE4WRn/jz4UHg+j4VXvvCB9P1o84H3SBZ0e7Gsk6V9KrtiZrHazf3uX7eVi+hkaTcPuvUfR2X0GXlkYXirsiQ+glJ6EOHsHyNofQJI6p2Z9nXSXlvjpk8cC/D4vgDtHk+OuP26BONXuZHh+Ura1VxrBA+cuBlfOL4b//rIDdgz8zQ8dGITztTZCdc5WO0H4Oc6S1ZBGKQYKcd46e4n8K03fwzfeNP7sa5yJp87hPJduRSdLEPzKYsH0ql6jKkhasjxvXC7PtAOG15qd2h6SO4TlrtqNMTV46t3shWRK8vdR2M0B/km9F3ctKG/X4qJiIjM52Qd+NzR4bjDwmg50LNBRWTtsa8hHJaAp96aYuP6tOftonhrsccfC/DkIZx/houVkS8TpG2E6RcQnfp+4PCNwJmfRVL/BBC7hdJZl+Pi7z5J+wTSZGG3UWo3n3CrXMiPYxMk8XQ+fnlYTsoHzC9QVFqfbScfvN8ft6/SuWzfxfVPodx6JypTP+H27XdltwZzwQv3v/+6uXF2qhw6EGS3COvWwRKGwO6d6VB1sEy1xnF0dgMeO7MDH33idvzvu74D3/+uH8FT//gvseXN78Rz/uzX8Jr3/H/4swdfhU8f2IZTc2UkaZjd4ouJnSur2cFCrMdMs4R/evhG/MA//oCr8+/jpz/4w/j8gZ04Ux891xF0JRqaK1nq7RRvvruJ3/5sw72geXCIvOXfjOIV1+jqgmFyqp7iW/5+Fg+cGJ6OlpfsjPCbLx/Brgl16onI8vvxD87inQ+1B/phv76KOzXe+5oJTFRW94OpiIgMP35H+L5/msWBqcH/I/j8bRH+7pv0PDIZDLqSRZacfbR3p+NWC9jLZ7Sc7P4wfLNja4oNm1KM867+XN5O5f7XBMY4HYZIKi8Dai9HUHkRULoOgUuWuVV/2P2boly9wYUu/YMudnA0pu5AZfz5ruh+z80p2s0DSOPp/OHxi2vziZsHsytieMuxIKzl0f5ktxurP5JtY7nmtrVHHfiMGsR7kTYfBNqfBeofR9D4iNtbbW5Gnikf+vub8n0+fRY4cizA6VNBdpurosjt5s1bUlx7Tdq5RZiVN2CacRmHpzdg3/QOHJ2ZxKeefDoeP70FXzh6Aw5Or8ds8/La7kJ3bEal823NbC9nCoLQvb6Bm3/x8ei3qXO8265jR2XxpQkLOzput12eJMvbajaxbXwG33XT+/Cdt30Yt2/dh0pp4R15qyLf0CvqdmFs8P6VT9bxVw8MyYtU8MnvHsfuSTV8D5Njsyle9tbp7NgbBjzfvfqGMn7z5bXs4ZYiIsup5b60vOa9s/jQ3vagfqa9yLXrQnz8O8c7H8RFREQWKUnT7FbW/+VD9ey2YYPuG28q43dfpVtXy2BQJ4ssC+/zPa9YOfxkgGPH+XyKPNjF6GiKbVuATZtSRGynZhk8pftDsvGwijS8BijdCFRvQ1J6IcLK7Wi1GojK21ziJRWXlsRTaM7cidrkwhp02TkSNw+hPHKr+z6zuNsf87ZmvO0XO0n4bJaF4vKtxhNu+ZsQRhN51O0iXsnTfsClR9wLwCt/HsyftfKk3y7f4e9jn4s1m8Dp0wGOHA4wM5fHCyrutbrqqhRbd6Qos5m1WM4qa7aAPadvxecO7cB9p27Ew8e34cHT1+PA9EZMNxZ+V4VSqZQlPrQ+DTvjidtZbfd9PIgiRNnB29kNvMolTlL32pTcMdKjkyXb+R3M2233RWHg5erwr6FJ0wRxzKu+Op0sTfemq4QJKuksXrzjMfzbm96L77zln1Ar5beDG2T5Rl1RnSz7zib4mX+dw0f2D9ftm4gPI7/3NZOdN78MjU8dauNb/n4u+xI1DCru3PlDT6/gtS9a2K8RREQW4+B0in///jncfaTHzXEH0JfvLuHPvmZUnSwiInJZ2LHysx9r4C33N/PIYHvti6r4j8/q72HMIstNnSyypIqf69l842LtFnDqGPDEwRDxPFe08CKAdetS7NqeosY+hx7lZWw8H6bRTlfAViS4AcHIlwK1r0BY4VUm84tbR9Gcuwcjk1+eR/rDThY+y6U88tQFXAFzoSQ+g9bcg9nVMGFkD6dZgDRGq77HbX8JQTiBUnIf4vodCNv3IogfRto+4YZP5plz1qTm7buMxXPT0+475pMBpqZ6P3+FD7m/eluKLS6V/P6DQlkrrZ2U8OCJa/FPj78QH9t3I/ZPX42DZyZwsrnOHX+2wfPjVSnlSgVpELljq4JKpYqGO3YThNm8zq3C3Hjkxt329roKZbWUQh6jLTcMsbl2Cv/xlrfitc958/nXe1Dl9buinsky406Qh6YH6fDp3zWTkTpYhtDes8nQdLBQJQqwsTboZy8RWSuOziSYac7zjWUA3bopVAeLiIhcNv4K9GMHhucOC9vG9GVURNYoNtlYovyzPjtPNm8Dbrxx/u8rbMznrcW+uCfEmRMu4JfFIcvzy/ZiQXwAQeMuRI2/RXjmZxAcf7H7kvRStE+9Fkn9X5HG3R8GzttuhX08UL+IV55kHSPp4r+DBUHV/cPeCduo/vFZLEnjowin/xzRqR9F6dhzgRPfiujsryOY/Xug8cVOB4tftO2vwr7z87AT7Mhh4NFHg+wqll4dLLxi4qbdCbZu9zpY/HWtguOzW/B/7/p6fPnbfwcv/etfw+s+9m34x0efj88f2YVj9fXzdrCUymWMT0wAtUlMbL0G0cZdaI5uRWt0C9rVdZgNRhCXRpFEVbSDMuKghCQIsytYeBHtKm/6RVivNCyjhQhP1jfjV+79d3jdnT85eBVdRkNzJcvnDrfxmvfN4ejs8L06335LGW98hS7PHja/89kGfv0zjXxq8G0dC/CbL6vhlbvLeUTkytROUvBhbPzg0Rnn33VeNtv9w2h2GW3W8s7fhbgPbO7TWylysXxcuvvHR1v4+TvqODwzPH+Xf/FLq/ihp+uXvDKY+E7iJfudh1p2ppP8HMazV5rFGXXD/Ecg/DEIz2E2bRjj2YvDbDr7l3k74+4Ud248tNsBuDJ47svGRWReHzvQxr99Nx+APBz+7hvH8PztF98yRGQ16EoWWXL88HLhR6HzMTc8PQUcfDzAdJ2fmbK5Pa2fSLFjR4rxic5nJb+cC1g5xfkcZ7+2S+6jG5LoS4HyU4Dat7uDfxui0na0W+zNaaNUdXFmDLhAcQUXS5NZNOfuR6myA1F5ex5duNbcA1mHTal6jZvievlJky3kTZf4AwL3iTOZRtI+iqB1B5L6pxAmxxE2P+DmZbMvVtwHxGmL+8Mcv56368CeRwPMztnCF+PrsG4kxc7r8mfomC5lLrd6XHXHUQWfPHgr/ui+b8E/P/ZU1Nvz/33NPo/nB9P45CRaKCGqjqPutn++q6zWgpGogd9/8evxXTe9DVE4oBubH3pXzO3CWMF/eaKF17x3bmgeruv72RdW8SPPVqPOsPm2d8/gjgPDc3u6XZMh/vArRvCMq/QFSq4c/JNwup7iTCPFaZemmymeOJtkz1RiOjgV47j74DbrPiue5rW2XbCxcbwSZlccbhkJsGsiwFWjAXZMhNi9LsT6aogNtQCb3DxdlXjeH36hgd+8s5nt82HA+8r++deM4OXXdO5ZK7Ja6m1eoZ1kV2lPue+ydffhttFOcdaNn5xLcMKds+bc9EzLJff+4rPhTjU6MX4R4wVkzXbizn9Btiw7g9mh7ON3hZGSO2fxBOfU3EcD9hlX3XDSndM219Jsfq0cZMMR97YYdYnnPT7XjWXyNqRVt/xIyeV1Jz93mszOgTWXTx3QslT43e7kHI9/9z5wH7ujIMVkJcC6aufYzNokBtDrP1XH//rccNwqjP71O8Zw0wZ9R5DBcK6TJXzvucatCxpLu8XIn98tRv78lYiRP79bjPz5Sx0jf36/MfLnL3WM/Pn9xsifv9BYUT5vbgbYdzDA2bP88V1nVi+VMrBtc4r1G9xnoFG3eL/fAbku5uXQr5Mbpi7u/sQhCa9Fml6LgLcVq92ONFiHsLQZgUspqi6jyxyU3TpH3HASSVpx4y65WOfB8w8jiCayjpbzK+gh5efFvE0r6zzhdZgzaM89gDSeRbm2zWU5i6R92NXtLIL2vUiaD7rxaQStT2b1zdi22PRi5eXwShW+HsePBzhyYv5t4GuxbjLF7p3uMy+bVa0uvmLMn7bxy4jxVmBHptfj4MxW/OOjX4p/fvTp+MKJ61BvWcaL8SoV3uYriEru9a0iqo0hDiK0+rx12Fpy+/rH8Kdf9jN4zpZ7+trf2ZD8+d1i5M9fbIzc8IrpZOE9b//oniZ+6ZPDc1WB73e/fATf+BRdXTBsXvgX09g3NaA9rV3cvDHCW79uBFt1OwBZ46aaaXb1xCOnEux379GHTsZumGbP7jo8k2SNNEuBf28nqgF2jge4fn2Yvcf44PRb3JDTbJS8UrFB9w2faeL3v9Acigf+EjvK3vUNY3jKRp0jZeW03McIdgQfnU2y25CemEuz5xkdceeq4/n46Xqnw2XWfeHklSyrqRy6r/cRO1gCjFcCTLi02X3HX1cNMe4+yrIDhlfOsvOZ89e799UG94WXzx9cVwsx4eZHeotJH/jDiD0nYjxwMsXdh9s44P6en3F/39mht30U2d/bZ28tZT8eutr9HR4k/Jzx8rdO44kzw/E9ge/rPT+07or+3CKDJetkaehKFlkm8/zJ4APxjx4NcNiluI/vjKM1YOOGFOvX51dQdCvbb6j1dYsXY/l4GrgPW6XtSNNJl4UPKx9HEK1DEu1weXhbsVEXc38c3fJxMuvys5Nl/cXlJ2ddYmeK4/KmaLsyO9O8CiYMWgjSE0jqDyON6wijups+4r7cnTxfFuu4UN22tYj1cfv89FneEgw4eTpAy3327YXFjY2k2L7VfY/bmCL0/4Ytpo6LEKclPHJyJz568On44OO349NHbscTpzfkcy8WRRHCcjW7ZVapWkM7qCCNSmv+apVLqUQxXnP9O/Grz/stbBhxx+igyY/dU+EV0snCD7K//Ik5/PG9+cliiPCXfu//1lHcukm/HBombOy4/f+dXbLG2pXwgu0R3v7q0XO/Wl0rnpzp/heJv6bdPLKwlhxe7UD8daQMny8cjXHn4RiffbLtjos0a5BhIyUbMVcCf027wR0710yywyXAC68uZVdFXDV65bUo8hfHr7tjDm9/kB/c8+CAu3FDiD//mtGs4U5kObFT5f4TbZdSPHAixhF3vjrl/v48OZ3grBvOuS+UQ/K2uQjPgyWXeEXMaCXEmPvCyw4WXg3IK2E2jwTYyFQLso5pjm8f55UznavJ5MrGq7gePNnGv+yNcf/xGI+d6fwtn22nF/0t4eGybSzAbZsjfNdTK3jprlJ23K02bsNdR9r49n+YW/VO0X5trAJf/MHe9/5nB++ZHlf7GnagsmNVZCmok0WWnX+64qnapt04G7zPng6w7yAwV+/vvDY66j7vjKfYsjnFGB+Oz68ThXK7jpNNF+O9+PlsOeKQKawgZScMr1A5d6mJk43OAkn+QbPXuvwyyR/3l/HL6FWeLdtrXcZV6dSZAMdPANOzARp9XAi6ZUOK7dtTjPL5/sU6Lze3vi8cux1vue9l+NSBG/DAyV04VR/LbuHbzairZMu9LrzUJo3KSIPSUN6FaTldM3oYb37+a/G1192BcNC+jufH7xXTyTLdTPE975nFp58cohbvHG8v8y/fNqarC4bMXYdjfN3fzuRTw+Ebbyrjd181fM/+Oei+XD98OsEhN7z7aJzdLuX0XILpVufWKHWXuuE95PlLW/Yp8TYovFN9tRRmwwpbgHL1Voqm+wvH26uw84xGy8humfAy94X9ZdeUskahQcRGufc/3sYdB9rZfpp120LtNEDJfaDiFP94c3O5mzq3b0nBB45lMTfkL4oZ5TJsnGDaMhrgFdeU8fLdJWx144Ps0HSCD+5t492PtPDEmc7tRHgLndVu1+C+5q+6t42H+MprI3zbLRVcdwU13rNR7Gc/VscHnnCfmIfEV1xbwq+/tDaUf49P1lP806Mt3HUkzm4lxedwsHGPt5IyzaTzXA7++o3zeW684FzB84LbdJ43eZ708XhmA3i18CtnXtHA08qO8QBfdV0Zz9oaDUQj5yDiVXUf3R9nD8J++BRv8dW5OoUdKsVbea1lPO54PJXdccJOF/7wg7cZ49UwuyYj7JoI8cyrwqzj5cb1oft7PNh/gxaDf6s/faiN9z8R45j7PMPpufzvVvY+dXl4THDLedOOIu5Dvof5fuVfcObl+27TSOg+u4R45TURvmTncF0hzx+5/MOj9recV3QlWWdFP+8MnoO2jwX4gadV8P23V5bsmOE+3ncW+PC+Fh44mWRXl51y9eIPrNzp0uk8m43nQasp59Vd4ndT/thjWPBY4g/+eCzZZ8bOEXger0rt1mnE9zBfA/4N4fuay/OWgRtrIb7UfY7+uhuuzB+byOVRJ4usmAtPdee50x2vajn2ZIADx3pluhB/aMJbV61fl2LnthRlNr3wtMnFbUj+uOknX7flDOdRt3J5Crb5vcqYr2zj5ynm77Y8Y0WFZXhbsOPHgRMnA9Qb81+5YkbKKbZdnWLTBvc3p5IHTbd1LgXWm2W79OCpG/Dmz38z/uHhp7nPBhvc55XuX3541Uo0MuEOilHEAW8N5gpxB4n7eCFdhO476f9309vxy897IzbUzuTRAZEft1dMJwsb1b7qHbPuQ/nwdbLwy9DffsNY1tkiw+Mde5r4Lx+q51PD4b+/sIr/NETP/uFtU37tUw184IlW1gi1WnZOhPhvz6/g1TdWsvvPDwJ+iX/vYy284TP1rGNhuf5O89fH/+k5NXzfbeWB+XUiG4n5AeXhkzH++N4m3v1IO7s92KDjr7a//2lVfP/tZWxy44N6D/mlwlu8/PeP1ofqxw8/+LQKfur5VUwO0ZVsbAT833c18Ef3trLbTK0mdsI8Y0uI/+H+1rzg6lLWEHyl4pcnvhrHZxP88xNtvOX+Fh5056xhuvp1EKxzf4PY2XLzxhAvcscUr1i4dVOIWvZDidSdR93Q7Wx7eP+g4z22P/BEE7/x6QYeOc1OleV5z3JvfMmOCK/7khqeuika2L833Hqet/735xpZ5wqv6LocY2XgZ144gu9+avmyOnv5suyfTvDD/zyHLx6LV+xq2LWKnyX/2wtq+PZb2AGWB0UuQZ0ssmLsbyT/BHX5e8kO5KNHgScPhWgusE3i6k1pdhurCbt7VHEdPdaZsXmXWsaf7lVerzj1Km++Zcif322cw3nwtmD7DgQ4fQqYm+e5JUUj1RQ3XZ9i1G7N1uf6Fi0vO00DHJrajF/59Pe6z/UvwVSjd7taELrPqpObkFbGsx9eSP+urp3EB77m+/DUDQ/nkQHijoUrppPlyGyKF//FFOaG8AD+muvLeOPLa0PVqCPA6+6o4//eMzwPs6Q//ZrR7Jfag46/ovvYgTj7Ffyg3Muav/D75qeU8VPPr636fb/5rJE3f66Bt9zXzK6+WW687dpXXFfGjz2ngls2RavWcNp053c+s+Czh2O86+EWPn4wPnflzjC5YX2IH35mFa/YXcoeor9Wn03A9/BPfGg2e57EMGAj5E8/v4r/4F6bYbkS4+hMgl/5VAPveHCwbpXKBrX/8cIavvWWyhV1f38e6WcanavrPne4jX96rO3OU60r8uGVy4kN6VfnHS98/hV/rLRrMnTHXefqQXbA8Lkwg3ZuPdtI8KdfbOHNdzezqxxWAm99+F+fV3XfNUp5x9Tq44UQvGrlMff57p3u3MXOlVP1pdsf66vAG142gq+5oZy1iywUP1f8vavTr3+6mX3mkKVRDgO8+sYSfvy5VXdc8soXnRdlfupkkRXH05L9ObJTFKfz8akpYP/BADMz/T2rxfBKv4nRFJs2ueFkish9NubVLvP+kepVD68+fY2bbsvTQqfJj803XtB2+6ztvrLMzrjPRGcDHD5eLHh+Jff9bNOGFDt3pij7+8/W22WdS2G2PYoDU5vdZ4NX4vfu/io8cfriW2vyxz5BGCGquA8h1Qn3R29EP9C4DL/6rN/FzzzrzW6/LtOLuhj58bYUnSxRtVr9hXwcP/qjP5qPDZY7n4zxtgFrZOjXK64p4ct2lbOGTBke/+/eJh4fkodZGn6xGYYrpj64N8ZPfriOg9ODs3/ZKHDf8QQPnUqy2+HwAdmrgQ0Tv/apOv7q/lZ2K4eVwG3n1TK81c0ztnTun7+S2OnGX/y+57E23vTZRvbe4wPth/WDCxuT+Mv2R90+HS3xAdHhmry90v3u/fLuR/nL/QH6cDQPvgbffmsl+6X8MDg6m+LXP9PA3z7Uyt6jg4RXa3xkfxvj5QC3bwmzxrW1jL9Qe+hUjE8eSvCW+xr43c818K5H+CyJxL02a3vbVwPP/bw9Hv8ef+JQnHVm/eOj7ey8eu/xGPceS7K/lbyFEztdBuE5L/yRwB9+oYnfvquxolfm8sHxdx1JsH08wM0bwlVv2OZVp584GONP72vhzXc1s1udLvX+4Pvx0HSKr72hvOCOJR5bPJZ+051b+YMWWTr8O/XQqRRH3X7llY78+yAynzCdRjX+kPsM8UgeEVlhPE0x8c+BG1arwLpJoFxyf9dbQXabq35w8YbLz+eNnDoVYHrGxfj5MP8uG/Grh50S83WdY+PFYbd8jBV1W97ycdzixp/28xlbrw17jefYqVKvu++/bttPHA9w6MkQh4+5fTDrZeoDn3GzY3uCrdvc/uftwbqsa6k1kwruP3Yt/uy+r8LPfuyH8Nf3Px+n6xdfvVKuVBGNjCMcXYd2ZQJxWBm472bDZqo5gR98ytsRhAO0I/NjrR58E9rhdZ2JRRqKTpaP7m9lDbPD6KuvL+G526KB+BIo/WNj71L+8m65TVQC/PcX1Qb+9i3suPpvH5nF3rODuW8PTKVZI8HztpeyBvKV9lt3NvBnX2yt+EPS+EGB286Gq6++nj8dWRk8Hv76gTb+6N4m/uahVja9Vj60cFs+e7idPTODvzZeS1czsqGKf5c/8EScff4dBptHQ/ybG8q4fv3g/+KBDbZvf7CFv7ivlT2MeBDxffr5o3F2u8Vh6bhaqOlWijsOxu4c1cKf39fE2/a0sivtTjc62y8rg7uaDevW8XL3EXZ4xfji8ST7W8n3NJ8ztJre81gLv/zJle1gMXxG2Z4TCZ5/dWnVnjfFZw/9q/ub8Ef3NN17pZV1rvBWz8vl6BxwnXvdb1/guecBt59+67PN7DiSpcfbsPGzT8u9X19+zRV0maMsijpZZNXxowP/VHkfIdghMjEBjI6k2ZUVfIZIsoA/Gbz1GJc5fbpzRczZaaBRD9BuBdnz6UvdvmYXP8IU6jTvl61eH39s24zlK5ZdZMsVl/fETeDsGbeNJwMcPc4H2Yc4knes9PO8FR+vWLn6qhTbt/G2a3mHFF2iDpfr0MxW/OX9X4HXf+pb8PYHvgRPzlx89UqpVEJlbD0wsg5JZRwt8O/afDtP+nWssR7ffM2HcNXo8TwyAPKX9orpZPmTe1u4330wHjb8zve9t1VwM++XnMdk8PGBzrxVGB/IOSyunQzxg09nt/9g+/3PN/CBvfGKdyL0iw1nx92X92vc/uR9zlfSv+zl7StWp5GGuO2Pnk6wazJY9m1n48vb97Twq59q4P1PtPGYWy8blteaafeBmldI7TmZ4KaNIbaukQfD8gHOH9jbxp2Hh+dF4y2HvuGm8lA89P6BkzHe/Lkmnjg72J97eDtD3tKMv1rmM4nWkvc82sKbPtvEX93fxB0H29g/lep5KwOEfyf3uc9qd7HTq57i2VsjVFfpdlkHXT1+7o569kOF1cIrWva588W33LzynwPZcfHGz3Z+IMLOL/5Aabn3xP/P3nkAuHFVbfudGfXVavuu1/a695I4duz0XkiABD46AULooddQA6ET4KOXUEMLP3x0AmkkpDhOj5O4925v70VdM/89o5Etr3ftLdJornQemGjmaqSVZ+a2c+55Dxnz+8Tfee3isf97yRn1e1Gf/y3qtiQBmFJCY0nK2bZyisscSzPMaLCThXEsYjhBUS3lQaCszICeEGPeuDLuvo3yu0SjCgYHFfQPZCJdRFkknRidHAxqdjOZGcbQK/2xzOtoZN4f3tSe7HOZv3Gy7yWyzkuQU2VAzGt7FRw4oqCzU0VXj4Je8W8aEv+W+AQEh0jytabSQNN0A7W14nr7rDdO9btywL92rMFNa9+DP20/Fzu6pyJpHG/3oGT2Ln8Qhr8ahpecKxovrsoxKXHNy7UILm96zCpxANYznwsnixSjHzL8yQjJ7pDsUKaNYuSAJASSkj1y86qcX5W3iUnXw4dSjjemk0b340eS5oTcTki3fKDAaYDIiPjj5/P3IxIpyseTxJvvCpt5jzZ1pGzTri8ElMSfVsM/dDCJd94bMVcbFwNkXKeE3zJBfTFF/DmdaDL9vFCUCE3AnAz9vh3dBh7YL9GKhJNAbf5DBxN48V8G8YH/RnHfvoRpOC9GB3AxQM9fZ8TA7ZsT+NTaqFVqP/fuS5oSl4WGoq4eE/2rXVC9IHnPN989ZC6aICePnUaIDWL8MB46wpSLJcka6jZAEZjffqZwdZJhGGZSWH0Z5VapqgTmLzCwcO7EOw/qG8kREY4Avf0KjrQp2LFHxfZt4lVszc0K2kRZbEicTH8705eeqk+l92lqM/ynnexz2d+fjfU9sUGgXfyW5sMKtm9V8OzzKl7YomLXXhX7jqSdRQNhkkdLR+1MBHKwzJxqYM5sw5RnU8nHMdrvygXW9K9lsAHvv/c9eP1dn8QjBxaIuWxZ+g0LyrviC5TBXdGApL8WKc1rypoz+eGP+1+Wv3s+EXL4WxxvmaXnen+vnDPcKp+KACdjkY594nmTrUE9f5rzw/LXt6VwyOErswky3JCcGWl+28XGjhReaHeGVBYZTTd35rbNpVWjbVaOiXfcF8FTLSlT/qVUoPt6QDz7V/150EzqL7vRNiwG1qS9LhPkZKmQQLKtK5o22srSBZETkWTxKKJFRqi9J4nIJ5uTeM/9EbzlnojZFkeShjT3oNQh5/0/RLtKcpu0bye0ICfdnxW+baHn9d59E1hOOk4oiuj59hT+5x9DuPnRdARPIcbM9DvGE+1HEaX7++Rsp2SEFChosQDDMIyUULdmbRRtUlENnLVax9TGdFL2yaRAo7EnSZANRBT0DCo4eETBvoMKnt+i4oXnFWzeqODATgXbtik4ckhBV7uYew0AsZjY4sM2KhNd/9H3Rjons1nnDXaLeeleBTu2KHhmvWr+vSefVvGk2H9+m4q94rccbFbQO6SYyexTYqPfO5munq4Xya9VVxhYslhHvbiOarb5Kk/DKEqN0x/x40/bLsZlf/o6frjxGgwl/eK2HvuD5FxRNBfcwWqkyuoRVby5tLczo3AgXI2HjpxvHTmAHD6DjvcAUBh+t2gMZKSpXEGFh6uobGwTE7GknqeWPk84PSSfVr7v6tHRLzp4GaDVsaT/bhe0CpbyoTgBir44kkMHU9uQbia1v+5fQ2aUTL9D/p2FgOrBFx+Pmo4WuyOlcgklu6f7Kgsk3VnnVxCUIJJla2fSTOwtEx2iveyysb3MFSSx9NiRJD69NoIb7ong/v1JjlqRFHr6/rIzYTo87ITyTxwS8xSdLCYOYIcYv+YLcqTQv/d766N407/DZm6cQuISw17/OJRN1x4qjog7WSCHJ437GYZhpMfq4slRMKPJwNJFOqbUGwj40+W5JJpUMBhT0NKnoG9QwaFWBbsOqNi4XcXzG8W2YYTthWGvo230vviOzXtUtHQp6AkrZjQK/b18QWmpgwExD6s2MH+ObkYFlVEASeZP0itd31wPo6zv39S5AJ979C14538+iG2dDelCC3KuqC43vMFKuKqmIe4JcbSrzaw9crq1V1w43smyvVveGS9Jk/gKpBHNTJz2sHFC1KWTIQPiohpnV+WOsG5JSTjDEHEqBmK6mbDcLpqHDDNxrFMIkzdgkiR0A+tbk2aemU88HDF125l0+/K99XHcvTchVd6nbAZF3SADtSxQrobagAIZAkvJISlbJCVJx1EeBlkgSTZKYP+Np2N43wMR/HVnsqSdv8VCy6COe/bZK/VJiyMoR5VT6I3mp5+lyK77xLWlyJWfvhC3dRHKaDSINn08ObYoGT9jHxTltauHvdYMwxQJmW5PvPp8wMwZBubO1jG90UDweNUpRuDRgFA5MH1a+jqZ0mCVx3wrRx0reRpO9EVD+PWmq3HjvR/C956/RozXMklf0iiKCpevDFqwBjFPBRKGBJPEImRd1zmIpvLgrZwIOXwWHf807ezOU82zAZoAyKABzxyDEnJTTpaUREauevGcTQ06uyp3hu2V35osuhgC2OkSIMNIMa2gJoPM/9uawM3rYvjrzoRjonScAPkZD/SnE5s/0ZyUqq3JsLdPlyoJeNCtoFGChPcUQXfvXgd5W8eILoaS1GbKAPXvP3o+hk+vjeKOLQnT6ckUBwldMRNut9g41iDHDo0bixmS0/uR6K+++HgMaw+nHNP2N40jgpv+DQcHeKGH3eik08IwDFMsDOvuKSKDnAhzZumm0yUUNMx8I6UMSYJR1Mqc2Tpmz0zLq/kD4o3s7iDPw6bd3Y34/Lo34aZH3oonjpyYwNzt8cAVrIIeqEZSO146jLGX/UONONjfaB0VD45vBnZLmo/FI65sY1CBnyNZpKJVTJj7YnJNxKaWj0MvoUCQTFhXRB5DhEsxxGYd5BlaAU6yiI5ZvS7+3eHkxP/xfTHgc49G8bWnYtjYnuKw2xEgRwtJxH3+sSh29cpTLzJQ3iqZCLoNTC93/qzn0cNJaSQVswm4xARKc/5z/HRLEjf+J4zbXkhgS5d8udeYk0NSlyTdNZ48HZOFHKOU5LtYobwab/x3GD/ZEDevrZMWBSysGnubvqWzuBayyABJxNAiMIZhmKJGNHOBAEz5sPnz0pJYFaHSG19S3poZ0wwsX6xj5iwDlVWA3+YAhZThwmPNq/C+Bz6Mn254ETrDQeudY7h9ZVBDDUh6ypGClm9/D3MKemJleLrLQZJhOXogHG11oAnTnl45LXQ+V1oubDJJsRj7GaCkYJJNmM+od/5DFk0ZGMyBBJVdUIir2ybf1YC4LvTcOYmJ9C9kfNnZrePFfxnE77clTPkdHriMDl0b0iv/8INhdEi2mj6fuv/5IOBWUBdwtpOFnoDbnpczAR1J9tQ69PqSQ5OMqyQN9po7w3i6JYVwQrRN3DgVJaRlTvfXDugZIicLyScWG+SAvGdvAjfcHcYzrek64zQW14x9kMayVfbj1hTMreRJMMMwpQHZ/CghPjkXFi8ysOZ0HQ21hul8KEZ7IP2b6N9WV2Vg8UIda87UMXWaAa8/Hc1iN0ldwz17zsOr/v4J3Ld/OSJJcTOycImb4w3VIFVWh5jhEvMu7p+cQDgZwI6eOc6xGeXosXC01aEnlg7FlxFKsFvp5corG4fF8zYgmVrL1KCzI1nIEBGJG1KtIqzwqih321N/e6JwVtJo8VPKXGP/PXR/SS7lj9sTuO7fQ2ZiXGbsbGjX8fWnolLlONnRI89vJSpFfW4sc3Z/TI6r7RLKo5IhbUG15kjJSsp59Fx7CtffNYTvPRvjlewlQEp0SCmbqhHlJUnnmrMKHMBk80DS4jbKoff99XHc9HAUhx0ssTVftDtjZWsnj0vshh7F6RJE2jMMw+QcMS5QPcDs2QbOOE3H/Bk6qkIGPF5IKydG0YkedzqJfWWFgfnWv23ufAMVIXECjYUKMR4Sf/PIYD0+9/Abcd3dH0frULn1xjFcHh+UQCUSnpA08salQjTlwebeeeiNVVklxYGjqzlJ6EQkDcOv8auOz5PBnEizeOZkWpVIHd6sCmc/ZyQXdWRQF42oVSABFWIQFLLJSUoOFjJqyArd25+8EMe3n41LlXfHSfxtVxK/25KADMFepMdPsoqyoIlGsqFMMaNLncw/dsUdZawdK5WirVxWo8DtsG6I5Cn/tCNtKF53JFWQeR9jPyTVO1lHw1ih6I5+h8nLel2Tq4j7+gx8d30cP3reGcntR8OrUSTL2P+tOyVVRZCZCjGGnjmOvDkMwzDFCEW3VNcDC+dT7hYD06YYqKkyzOT5ZMdxMhStUl5moFb83qnid8+aYWDZQh2LFhqorjHMf1shB9hJ3Y3nW+fjIw++B19f/xoMRI/vczRNg8sfhFpeh4QrKOU8q9ihW9IRrUFruCFdUGhy9Iw4evRDCUpl1cxOR7JYB4wUJFIGOiLkUbUKJMAnJprTHO7MiyYNHB6Qqx6HvKpZh+1gMJ6WqZMRWuX61Sej+OXGuLRRh04gJtqe/9sWw7pDzg+jO9CXwpBEix9UMVpyuiOaVsOvPZQSg3/5xjt1fgUrpzjLg9U2pONbz8RMxy8lQudJVelQLZ7HWrHZAUUftosxo5NwqxN/2J9oTuKz66K4Y0scETFuczJkvC8bR7Ozl50stjMz5PzFDQzDMLYhpiKVIcOU1Jo9K50sn16nNhioqDJMqfJCQ1E25FSpr007VGbNTv9W2qZPN1BdLcYG1K47YIgQT3lw/4E1+PDDN+Kfu1aJsf7xcz3TwRKshhGoRtz80YxTOTLUgN39TdZRgcnRFMLRloedPfImKgyS19rvbMMOczz9CZKnSzkqseepoIipsuMlJx0HrXw/LFGEg6ooqPfb4ySl9u3QQApDDtM7L6PlwKeAktq//d4w7tqbwkARatLbCdnWD/Qb+P3WhGlwdzLUL8vURpKc1aJqZ/fFd+1NYLeERkBagTe/SkVTuXOu77auFG78T9SUL2wfYsNqqUEyvTU2OlmcFtU3lr57JO7bl8SnHonikUMpM/rY6VC7M1aN+/19upk7h7GXc6axUYthGGYkXKJ5DJUDdbUGpk0zMGemgUWLdTNKhJLH19eIrTz//VZ5AGmHynTxtxfpWLxEx9y5BmY0GWYif8opQ0n9NYc157qh4J6dZ+IjD70T6w4vQix1/A90e/1QQ/VIuINmcnvG2XTGqtASrreOCkyOqp2jLQ+0MjolKpFsuEieJKCYie8ZeRiKGxhMyHXPZlao8Dt8HkMrIvf2yuMt9WliYBFUzHqcbyiCgZKeO81mrZ3in/7o4SRuvD+CjR26GQHGTB66jA8fSuIRsTnZyHWwX677Tc+yk5PeH+rX8eihlJTJsz3i4l492y3aSqugwDx+JIm33RvB061JM4KSKT3K3Mq4IhwmA8kZDzpsgcR4hy200OOfu5P4/ONR04EuSzTdohrNXBAzFkh6WsYoQdlZ4vDFDQzDME5A0wCvGwj4gWAIaGw0zFwusxcYZjL5M5bpWDRPbHN1TJ9mYErF+PozGqPXVqadOStJ6kt815qVOlav0bFYfDdFqTRMEX+7XGziN/i8aSeQuaLfiV2n+F1ff/oGvOauT2J7Z72YPx/f17i9Pihl1UioPsfZV5iRGUx6sLunAUMxB8hAjXMcPRqOHQEldTI+pJCUcGBM2uQNZTy4lA3ScG8dlCt0aka5Ar9NCdonChm72sPy1GPSc6cIITtw6rUZzVBDBpl/7ErgYw9FzdWhTG4hox1p4e/pcW47tFYCSbNsyMkyw6G68DT4f6olhY0dcvU7Gap9Cs6dXngvP7VLd+5O4KMPp9sltqeWJpR/aVq5asv4m+YotBBsyGHNIUXRjxVaAPOXnQnc8lgUByTqz8m3MrtCGXMkS5s5xnL2OLnYoH73rGkOD7NnGIZxINS3mZsYytB83OsHKqvEVg1Mn2pg1nwDZ6/RcfZqsdHrWVlbpjyzibJVomzeAgNN4rOeUPq7VE2006JrJIXRzN+Tgb5oEF954i349COvQVw/vo9RxD/CWyb+gcE6xBWPVcrIwv7wTPQliyf5vWM9AUcGUuiOKVJOlkkTuTEoSWvFHKU/bqAnZh1IQmNQNROAOhmSCpNJTiok+uWZ5fbUX5IJc2JkQGiEKDyKrvjXngS+8XQchwbYwZIvSC7sjq3OTdJzULL8SiQdNKXMmf0xOVjv2590dILpk3H5TM22/BejQQ6Wv++M42tPxaQyFDO5h8ZCFEVuBySD6sS2cKw5MKje/HlHEt98OiqdrB5FKy2scY3ZbbK+jRyvcraxstIkxtA0lmYYhmFyDHV+mS6NXqkLz2zDuzpRptA6riLoAlsG6vD5J96Orzz+P1bJMVRVhaesAnpZLRKcf0VKDgw0ojdWbh0VkBzVFcc6WfpiQDgu18A/g9+tYrbDE+0yJ0KOgL6YPL0QRUyRFr73VNpOBWZXj1z12CcubKXPnvpLkQtHJEkYf9eeBP73mRj299Fojcknf9mZxPpW52WXJ2m7IxLlVyKc2hdTFMvz7SmsO+y8+zwWyKD91uWFt6L9v61xs11iBwvjE8/kNJsWOMWSBg47MH9W9RjGLuQg+uXGGG59Moq2IfksLxTBHRiHDeVwv5xtrMwsq2MjF8MwDJMbWgdqxVj/9fj1pgsRSR4fwUIOFlegAil/FUuYS8y+wZnoSVRaRwUkR9MIx3oCmsXAnyILZMQlbk6Nz9mGb+Z4aFUfrSAPO0xf+2RQwvsKrzJuDW67kU1WKiAqcINNK997oobjVrFTuK1vmAQdSfF85Uk2ZNpFf8zAt5+Nm5FOTmJfXwpJyQRuT693Zqgf5WMiB4FMjv1sLpjuwoLqwl7bHz8fw7dEPZHN8cfkB8pP1xSy55mkNWCHHbhAovEUYxdaTPStZ6L43nNxM3G/jMyt0szx71iIJjNyYYydrKx3rHmBYRiGkYi2vjJ8cd2bcPumS9Ab9VulaVTNDVewGrqvwpRxZeSlJ1Euxmu10Audjz1HQ0bHjoJaBlMYkEv6/Sghr4I5lc407DAjQwYvWtEn01Ss0qegXIJwfJkiWahZrw8AVTY4SelZOzzgzMTxalZNWHs4hVsei5nJYxn7eOxIEmsPOWsFbqtpzC7w4GecLKt15jCHcrE47f6Oh7cUOIrlFxvj+P5zcXRFuF1i0lBUr10LJGJiNt/swD6REtyOxmDcwA+ei+E3mxOmI19WmoIUyTK2+9weTol/t3XA2MbsSnayMAzDTBrqqnOxyYj43YNh4OOPfAC3b70EvTGf9UYazeWGJ1SLhDuIZKEN88ykSRoqdvXOQnJYrh1byWFdceQoiKRzaQIQlSiqIJuGwMknOozzoATkzZLINmWYFlRRH3D2g0Y1mFa/y0Imca4dXbWuG47Nb0Ergsn3s/ZwEp98JII2yTTbiwGKrvvdlrijIkde6JBP2366qM9OIyHu6Rcfi5p5jmRkaa1WMOcVtUv/tz2B76+PSW0oZnIPLXCqtzEnS7cDc/hVjCIXRhEdd2xN4PZNCaly5A3HraXHaGPNPdMr7hG1t4x9BN3AGQ280JBhGGbS5GJII6P/QXTbsYQXN/7nZvx2+4VizDVMIkzT4KusQ1T1iVPZwVIsHI40ImkUx/jBkRZakgk70G+Y4fgyMpujWKSDcmPsd6C+9skgqbBysTmZlkEDnRHrQAI0xcCCKnuaRZr2b+9y5jMXFvXhrj1J3Lw2Kp3cWzGxrSuFhw46J9qBJBVlIuhRTIeA07hjSwLbu+WsV2TkfN1it215q7KhqL8H9ifxw+diol9hwylzPHV+xUyKbgebOp0ZhTpSgAc56v+6M2HK68kkiTsSlWLMOzWowjVGnVxarMAGGHuhhQ1jvT8MwzDMKaDmdKRtOCOdQ5tsiGFK+1ANPr72ffjT7nOswmNQBIu/qgFDhtcqYYqFzV1zkShkJEsOcaSThQx8/RKHd8/lpPfSQROxjrB1IAGK6DTry1RUOFwubG9vUqokZBTJMsOmle90VQ44MMqHRPNu3xjHV56IYncvO1gKSVcUuHdf0pR5KTQUddEelut5aCp33uyC6vxvt8g7wJlfqWDNFA3uAgxzyDH1w+dj2MPtEjMMGhPZKVHkVPnMcs+Jbd4DB1L432eiReGYrPUDNf6xt+uqQv9m+f/dMrG4RoWHp8EMwzD5hbpC501zJk3zYB1uffoN+PWWC8Tc8/jOxOV2w11eww6WIoWS3yd0jmTJG70RHR2SGXOymVfgZLDM+OmL6eiJyvPMmdrjAQW+MepSF4p9fXJNbmnx3ZSgXddUcWTCZlKD+uP2BA5xDpaCQ0n8Nnfq2OUAo3LrkI5uyYx0C6qc1ReTM5+krg5IFhGUgQxnV852Y24B9Pbbwwa+/lQMz7c5zzHNFB5F/G9xjX31fUO7HM/hv/ckcMs6kvwsDkfD1KA2rrw75aLR4qgKe5lZoZkRjwzDMIwNUHNbJE1uXzSIn258GX69+WL0x453pKiq6M8DFYhrxye/Z4qHtlgVuiPV1pHcONLJ0hMz0CrxhKCxzNphpGFPn2Gu1JYFnwZUOVwqjKDk3TIRcgNzbJL729aZRJ9DcwqwhLlz2N2j4/k23XS4FBKS/qM8BDJhl/TfWNncmcL9B5LSXccMJIV60XQXAjZJMmXz6bURPHI4xW0TMwqGGHvb91zu63fmg1iZZZN48GASX30iikMOzf02XlSFcu4A1b6x3+e0hJx1wOQdWgC2ot4FD681ZBiGYcaKGKboUHD7C1fg++uvRk/0eEdKxsGSdAd5HlDERFMa9vdPt47kxpFOlsEE0C1RVEE2ZKSd77DVs8ypOSBZ3olKMcmcU4DVxONlv2SRLKQlbZcMDuWd4nECcyoiSQNPNyfQFSlsG0X5WOi3yMSyOuf0xZQL4V97ktjeLeq9hBWfpBRPr1exptH+fodysNyzL4UUz6yYkzAjZJ+T5Ui/Mz2lmQiC/+xP4lOPRMRktXjqjFs1MDU4vrw7NFZeVjvGLPnMpCGpsBmholSwYRiGYfIBDVNEp7Fu5xJ89NF3oDcaSJdbKIoCdyAE3V+JpMG9S7Gzd3CWtSc3jrPSUv6G5gEdQwmrQDJmctJ7KaEE0zLhdymo9jvbyUKRQbt65LquM23Mp7RVsmeOKRyPN6cKvhqZJK4iEgWmka1xZsgZbaRuGFjfpuOevQlpHQW1fgWvmO82Jzt2Qdfqrj1x/HRDHIaMninGNmp9wKwKe8bfJPM54NA5SlzMof68PY4vPFY8ESwZyLlCcmHj5XWLXWb0N5NffC7gqjluzLapHjIMwzDykzI0PHzwTFx7761irH/iHMMTKIceqC64ogNjE0UydHWclZZkNA5KPDFwmjwJMzZ2dsvVcpd7gCk2SmNMhN09KTMHgUycPdW+yeEL7TxaYMYGJSymHADJAhnoU+LPdoTlklQkp0CVzzooMANxysUSN6OBZOWC6S6sabRvRTg96ttEv3z7piR6okUy4mbyxgwbDbvrW5y7CuzuvUl86YkY9kkWnT0WQmLcO6di/OPes0S79calbrg5N0veoEUNdJ2vnKnByz4WhmEYZiyI4f36loX48EPvRF/0xDmG2+uD7qswF+EzjEw4ziNARpzmAXlXeJ/RwKNL2QiL+TIl1ZUFmifWB5Rx6VIXguZBUZltXPWcC2bZuPJ9fxEaQZj8cf/+RMGclgNxA50RHSmJogkoKs0pyXcfOpjEffvkyk+VTcir4F0rPOZKZbvoCOv41cY4nmtLsv4yc0qW19rXd+91sAzqt5+JmU75YoRyQY0n6X02H1vjw6sXukzZQyb3LKpR8d4zPOKV58AMwzDMGBBDlZ09s3HrU6/F1o6pVuEx3F4/lLIaJMCSn4x8ODKS5fCgvBOEqUGOZJENksEJS5RrgCaJMjxnW7t0qXIP0CpHu3I4tIUNtJATimHGyPPtesFW9NPf7Y2J8bBE9XlepX35lU5Ge1jH99bHMJSQd1xzwzI3FlTaZ5xM6AYePJjCXXsT5piQYU7Fqin2GXefb3fuQ1msiz2p9ZlSpk5ILowIeRR8ZLUXb1ziNuV2mdyxtFbFl8/32xoJzjAMw0iMGKu0hyvww/Uvxn0HViCuH99/aG4vUFaNuOKxShhGLpznZEkaOCKx8dEJRh1mfOzoTkm1UlYVPdM0CZwsO7p18UvlubB1AZJhs2fyfXhAFwMK64BhxsBgAlh3uDAyNf0xA4Nxuax308pVuBzQTH7hsZh0cpTZNIh28d0rvLZGBR3sN/CdZ6Poj1sFJQaNIyladWWDhitnufCeFR7cfI4PX7lQbBf48L+X+PGdywLmPm03n+3FR8/04vWL3Th7qguLazTU+UvLkDzDxijUnWLMyNiLqipijKbCMwk7fmOZik+eJerLOV4xhlZkC7R2HCTf9tblbvzftWVY3Uj9LV9QhmEY5tQkDRfu3Xsu7th+BcKJ4x0pmqbBFQghpbKDpRQp9wxae3KjhEKho5aT7du3W3uF45nWFF71z7C02nvfuNiPVy3IhLUplol5+L/FWQPR7ISytJf+dfTbR78H5JTIvEtTWxpcu8XkxyHqLOPi289E8b/PyGPNCXoU/OQKHy6d6bZKnAc9G6+/cwhrD8tjjDh/moY/vazMOsovf9+ZwHsfiFhHzFhQFdHGqAY8opGh1inbQKIbipnwl+Qmi1la6JypGv76cnue0Wzu2pPAzY9GzQgsGaBH47Yr/XjpXLcpr1gI6Eo9cjCJG+4JS5ebKgNFTX5ijQfvPsNrW99O1+o994fN3BLFDF1br9mepVfoL63VzJXgC6s1nFanTcqYnIFkUPf26ma07gvtKTNPx67uFMLi0lJbSde6UHmecgnJ2O19Z8g6yi8U1XfW7wZMpzdjH+R4/Ny5PrzttNwYXUgC86EDSdy9LynqSMqUWEvoYmRhzYdofEF/k+pJr7jnsk1JSVrNdHoYuvlvoeZbETtjacaz/6nZ59MYzC/qWn0AuLDJjWvmujCvip0rzMTRUi0oj94Mv3KPVcIwTNEjuozHm8/AK//5KbQOlVuFaVRVgztYiaQnVLSRuczoqIqBRy99Fc5t2mKV2Iw5WBJjfdcdiLouTZdNEMc5Wf6yI44P/DdqHcnHRU0uM3SaSInBOUXm0GSaBrkZxwSN4XUHTWzpl2QSGqfEk6WKQTn94JQx+sC5O6pjyFrZXONXzVVh9O9eUqthdoWKMjHAl4VX/zOMx47IY9Ch1WP/emUQ88Xkxql0iQnrq+8MY3uXPNbFty1340sX+K2j/PLlx6P48Qslukx7HFC7STIfjUEVcyuojdGwWGy1os3JGCGpPW0b0rGlM4UtXTr29aaNiZEitNFWiLr/9PXltkVcZfi/7Ql89tEoBiWRvKI28pdXBXDe9MLp+JJh+0P/jeDp1pRUMmvZnF6n4sdXBsw+3Q6SYujxm81xfHadvGPAU0GLJJrKVbP/vmSGhhX1aceKXZDs3x7RRlKk6fNtSfGcGmgX7We3KQlomPdANmaLvuGxNxw/Uc8XG9pTuPZvYTFmlrRSSwoZ9/9wTRnWNOanrpDDsUfMazJzIXKwNJSpuO35GL6zPi5VJCf5PL5+kR9TxbyM5mJ+sXnU9FzUN4bLR1HW9HjTKCM7iX25R0WF1zpgmBxw1MmispOFYUqFI/3VuP6+L+DBA/OskmO4fGVAWQ2SsG9czDiHmf42PPvyl6PW25MehBQC8XeL0slC2uVff0rMAhnpoJwWNNm9fJYbV8xy4Yz63KzGzDdn/nYAzRLlAZperuLR64LHTX6cBhkibvxPxDQ0ysI3L/bhDUvsCU19891h3L+/uFdqT5aQV8WZU8gQ6cKZDRpOF+3JqSBDye5eHQ8fTOKBAwmsbyWjSXEZw/7v2gAusNF5QNf0h8/F8O1n49Al8RbMDKn40RV+U26pEJBBjpyoP99AuVisQskgZ8BNa7y4fqnHtr5mfZuOd947hJah4qqzBDlGz25Ucd40F84R9XdBleaIPrxfPKu7e3TsEe0mLYp4vDll5lOTKZr8CjHm/M2L7VkgQVF9774/WhQRQDJBObb+85oy+GzOp/KNp6L40fMxMY4o1Gx//NT6FWx8iz1OR4aZDOxkYZjSoi8Wwk0PvQ0/33ylVXIMl9sNpbwBCcW5Si1MfnnbzD/gexd+A2Wuwqq99Lgn72Rx3FJ4Ms4yckLGzJ1isv7TDXFTWoaikshA52Q6wjrawtaBJDSVK452sBBHBiiSQC4jxAKbVhNHk+mcLMzoLK5R8YXzPPjyBT5cv8Q9JgcLQU7dJeKz7znDY+YqIL3wKp88xpGxsMnmPpIStrcM6tI4WIjpIRWVBbrvFMH6RHMK/9iVkNbBQlfuzAbVXCxhV1/TLvriX2yImhJXxUTABVw5S8PXL6KcKn68c4UXy2ud4WAhKFKQnJGvXujGJ8724R2neVDrs96UBIpytIvt3anj5JSY/EP5oN4qnku7HSzkaOyLU4SdXGMIWojFMAzDMI5CDJ5+senF+NPui62CY5CDRQvWsIOlhJnmbcOr5jwAvxZNyywVihwN+Rw3EiOZF0ZuUrqBrV0pfPOZGH63NX40/N6JkF45/V6ZIMkkp3NgwDB132WhXPTpjWX2TKTJmDjISmEjQpIgH1jpwa+vDuCVCzyYFVInnHB7UbWGj6z24sNnelFTREmgn22z18kSThjojMrVRtb5gbICKYVR3po7tiZwUKIovuHUlal41SIPZthorHvoYBKPHUkVjQYz5S9YWK3i1ot8+ObFflw7z+1446dH/DxyCpFMo0zMsEnOjjjYbzhK7rcUuHC6htcstN/wQnl3uiO6dE61WaHiGe8wDMMwxcHaI2fi9s1XoC96omqI6itHXLUnIplxHgEtihvm34lzpm0y87IUlBz9eXayMHkhnSfBwPfXx/DoIeda2zskXDVLSXGdDuXIiEnkZJkSVOG1KbMzSeGQ5jVzDDLqndGgmZrrHz/Lh6YQJVO13pwg9J0k0fP20zx4+3K3FNKFY2Fbl47+mH3tFskJHZLMYVDhVU0dershBwFFsNy/P2Fq2ssI6fmf06jiFfPd5r4d7O9L4c7dCTP5dDFAl+2lczVT2u9VCz2oC6i2XcvJ0hlNO1ZlYrGNOW1IArU4nlI5IIfBZ872monc7YaiOIckGsdmWCrBHIFhGIYpHdqHKnHbc5dja+dUq+QYbl8ZEu4gj61KFK8Wx3Wz78aHlv0KFa7+dGEh50w5+tuOcrJs7kw5Xl6KGR/kxPjJhphjc55s75HP2t1gU8TFRKGJKRnLZNIsn1epwWuTFAU5kqOSSanlE3qe37bcg59d6TeT2ubDGPm207y4fKaroH12rqD6dWTQvnbLjGQprDTquKCExZSonWSQ7ObZlhS+/YzcOeXIwfnh1fZlN46JMd89e5NYd1j+wR/56SmJ/dcu9OEnVwZQH3DcOqZT0hfTEZdIHqnaR5FX9vxe6rt7JIvqkxVqx0+vU/G/l/htk3IdDvW1gxIlvM8wpUy+dodhGIYpThIpN+7cczHuPnC2VXIMl9sDxR8CFF4cUGp4tSRmB5vx2SU/xrfOuhW1/u7COldyjKNGYiTdxBQfTzen8GyrMw0oO7vleuZo4kkSJE6mNwZ0Rw2pViTMqlTNa2sHFBUQKxZNnElAzpTltSpuOdeHT5/txbQ8SulQEm/Kh7DI4XVnLMTFs7PPpr6SIhIpr0i/RKFXQQ9QVYCcEpQ4/KaHIwhL7EClNpDk+igpu12YUSx7ko6WFR0LlGPl/OkufONiH9649EQpBFkgKUuZ7kV9mWZb390b1aV/TmWAEre/YgHlZMvfwoux0B0x0ClZtDvVhflV8o9zGIZhmOJga/cc/HDDNeiPHb+AS9VE/+4vR0rzcRRLiWCqjLiGsKp6K9694P/wxws/ik+v+QlCHiuCxQnk6GF01EhsIye9L0rIPnf3XudlACZD9+EBuZ65+oDi+NWxnWH5Vns2lStw2aQBSVJqiRJv6ij3ysvmufG1i3x4+Xy3LQltG0Td+eTZPoS8ci+TSOgK9tgkq5kyDBwcMBCVSDKl0qva3kb2ivbum09FsVvyhSJXz3Hhf0R9tJN/7Ulia5fc142kjCjnys3n+LCqoXBG4clCK/c7RP8tUxQqyUn5bPIJHh7QEXbeUFZqaMJNDsppQRWrp2h48zIvvnwBLbzwYJU4dhWwMlFOlgHJ7jdJE4bk9fEyDMMwxYQYTv7w+VdgQ9uJMmGaxwfDEyyaXIzM6FS7+3Fe7Qt4y7x/4hurv4Xbzv08bl39DaxpeB6K06aAORp2Ospa+xw7WYqW52xO1jwWWobSxjGZmComok6HjDQUySILZPCfHlRsmczTdaHE2KU8oCAZpxtXePGZc7w4o97e8OBzp2nmClmZoUAJu+QXdTHSONAnV79c6VNNQ5NdkNzVLzfF8N+DEor3ZzEzpOL9K322ODwzUFv4+61xJCRvEP9nvgufPseHxTXy5F4Zif5MFKpEt4PGRGSkt4NmMWaMsNTnpKF8a9PLVbxxiRufE+OA37ykDL+82o/vXOrHJ87ymA5LO9vw0aB7PSSZXBhFAXk0588TGIZhmOLnnzvPwh+2nWMdHUNRRT/lDYo5LfdXxYJH3MpGXx+afF04t3YD3jz7L/jcGT/DHy/4AO560Ttx+4Wfwq1nfhNvX/gnrK7bKMbuDpXXztGwTwmFQke/avv27dZeYTj7d4M4OCD3ikZmZMrdwI53hKwjZ/DEkSTe90DETEQuC+85w2OulnUy/9iVxGcejUgTzVInJqU/eZEf50x1WSX5gyQRP/JQBE+3lKZDudav4kNnevDqhW4zKb3dGIaBp1p0Ue/Djs0TdSroqr1krhs/E89svgkngfffH8E9++RZznvBdBe+e6kPjTY5pCnJ/efWxcyE2LJCRurPnZuWubJLeom4+dEobt8Ut47k5FWiLfvmxX7bDP35hPqnT62N4FGJ8uOQ1OQ7Tvfacv2//HgUP98YZ8mwCUCOldPrNVw5y4XzpmqYW+WCTwy5VDGbpQUuFNHiJCia6zebRdv+WFQqp+MrF7jxxfN9qPJJ7O1lSgYt1YLy6M3wq/dYJQzDFAud0Tqs+O2PcaQ/aJUcwxOsQtxbIfa4r7Ibiv6u93Sj1tuFOl8nllZsRrW4FT4linK1H6o68iBXUXRUuIbM/YArCZcREY24Do86hJm+XagqF+cYupleRxPnqkhCEwMoFxLiO7MGUrTr5NsufluP6w5EXZdaBRPDMU6WroiBlb8Z4MlLkRJyi+fLYU6Wv+5M4JZ1UamiLr5ziQ+vXezclfi6aExv35TAFx6PISWJ5MiSGhXfvSyAZbX5ty4+1ZzEJ9dGsUOyXECThQwotDL1lnO9tssRDac3ZuDrT8Xwuy1x8bxahZJBDsHbrvTlXRarP27gpX8dwu4eOZ5XVTxo18zV8J1LA6YBL5+Q4W17dwqfFvX5KYmdphR5cdkMF754gc+MZrELkry77A+DppyojJBh+JypGv7v2oBVIj/r23R8/OEItnXJ8TyTQ/AHl/vNyId8QzJhH38kgr+JcSNzaqh+BMRtmVqmmDKE18x1Y1GNPJ5Iks777rMx/Oh5uZzAN67w4CNnes08dAzjdI46WcBOFoYpJpKGC7c+cwM+u+6VVskxvD4/9PIGU/6ayQ+UVN6vRcQWw8xAK1aGnsElM3dgTnAvFlbuQZln6Kijg0whCg37zR0qsRh+e7JtJpn3aA6Xfd7w7xjOyd7P/v5CYf22Hs/knSz2zahPwS4y4jhtKROTMyp8jnnUjkL62lGJbGNkDJtV4bzrmA1pWO/rTUnjYCGaQioqj8/FljeODBqmQ7mUIMM3JZz/3mX+gjtYiEqvgoubNCmk90YjmjIwYIPth3KxtEoU8aMpBhrK1Lw7WIi+eFrq6lkHSmGOhxmi/bt+mcdWB0tcXLKfb4hL62ChvvjsRhVfucDZUaXjZUDcEEruLgvVftW2HFudEb3k+u6JQBFF5Ex5+XwXvn6hD/98RRluWuOTysFCkAxkp2T3m2rCFNH/eW2UfGQYhmGY4Tx+aCF+9sKF1tExVFWFFqhkB0seCLgSmF+2F5dPeQzvX/j/8KvzPosnX/p6rLvmdfjRJV/Hq2b/AytrN6KMolFoqE/TV7EpGbXr4beEhkDZG5H9Stvwz4zltmY+O3wrMhxjZdrXl5IqJJsZHxU2GbHHQ3vYMI09skAr02ZXOtswHEkYUkUGEWR0p7wsdjAYN0pK052MkWc0qPjC+T5cNN05RpZVU1xYXKONaSzgRKjdCou6lm/IET1ow9/JFZRPhJwGdvDLDTH8YVsCKUkdBQRdL4oCOG+aTQ2gxebOJB45JG8OmwXVGt630uv4/ni8UJtCK/hlocYnxpY2rdgn+VOKgmRGpsyt4KImDTet9uKbF/tw64U+vGx+YWRBc0FUjNNah+Rq3GlxAS0aslPykWEYhmGy6YtX4v/tuALtkSqr5Bia14+I4kCjoKSoioEpvm68dPoj+PTy23DbOZ/HHy76EL551lfx8pn3YkbZIWgQ8y0azow2hB3PMG34uacaFme/X2JDaMcMxbZ366bUEFOcTHPYqvE+MVluHdRN3WVZaCxTTQkGJzMk2nEyzMoCXU6KaAh58/980srIZvHMRVNyGh3GC0WwUGJ7Mrqc3WivEfdUUHLY1Y0a/IUPrJkQlCicokzyzZ5eibzQAlpF3VSe/7r8x+0J/GxjAhF5/QQmS2tU3LDMY0vkTwaShL1nbxJtkhkwM1DU42sXurBGtGlaETXlFH3aE6U8TPL8o+rFmKhKtOV2QItHZMkzZyce0eaeN92FL1/gw1cv9OM9K71Y1aAh4Ja7clCUu2x522jBUFDSMQ3DMAxTHKw9tBT3HVyNWOr4yYXb4wF8FTCkXeLoLKo9Ebx91u9x+7k34ftnfQkfX/4zXNb0NGr9A6M7NCYyrDnZZ2jKnf3+8FtLx/T+RP6u5DjG8r2/N1WK179kWFjtLKmAnqiOfsny7c4oB5yuAjAYp9V/1oEE0OpLklewY+XfgLg2LUOGVFJqE4WUHxdVK/jE2T4zbwElvXUaqxtUlHsc+MPGwEDCQFs4/0bqzR1yGcLJ4Dc1z06W+/cn8bUnY2Z9lhm3auArF/pF+2dvp7KnJ4WnW1K2OAlzDTnlVze68MqF9jqm7ICMygcH5Fp4Uinm63YZlSmKRSYpNTuYVaHg25f48ePLfXjFfBdmO1zOdjzERPvUYUMfm0so712FTfJ5DMMwDDOc1nAl/rLjHBzsPzGKBZ4ypFTn5hWWhZArhg8s/DOefvHL8PXzvourmh7D7PLDYl4nBi5jGcKPd5h/smEFfVfmfdrP/u7hxyWGI0bEg3GgKyruQwnfiGKn3mZDzqnojhjoi8k1gSIZHLfDl87SxJSSZcsCrbas8NlzTSmSpb9E5EYomoAkws6fpjn2mT1rqgvTbYh6yAd2yYVt7ZKrjfRpwMzy/DxvND7Z0qnjG09FpTO+DYecBR9Z7cNpdfY+/3QN17elsK1bzusX8ij40CqvGQlXbFD/1DYkT/9EzzBFsoRscJQb4sGlvnuIc96b171ajJnet9KDu19VjlcscJvGfaePTcdLPCXut0RRXUSNaJeojWIYhmEY21EUbOlYhL/svQS6cXxfpLm9MNwB6BzFMmEoif0VU57CPZe+Ed8++7OYW3kQla5Bc2HriGSG9PSa2TIMPx4PJ/tc5nsn+t1FhCMsTG3hVMkYH0sRqvvTgs5qVNsjkC6J6fSQMyMCMog5KXb0pKRa4U2a7tOD1kGeIYm6ZomMWBOF5Nduvchve56HibB6ipxOFlptbkc+KdnkwqYGNTN3Va4hKdN9fTq+8XQU27rlrsNkJL18poZ3nW6/JnLLkI4HDyTNiEfZIPnD1y1244wGZ0Xl5grKQXFkQJ76Tr4VcnZR9Fq+GUxQ3kjdHOOUKtSqknOFnCq/f2kAnzzLZ0rnFSN0mzd3pkxZTpmg+xPiSBaGYRimAPTFfPjBc1chHB9hbk1OFhfnYpkImpLCsoo9+N6Z38TfLnsvzp22aexyxacaxtD7I22jkXlv+Lkn+0yJ4ggLU0c4vYqOKU4o8eW8KmcZJsjgTRNnWSA5q1khysliFTgQUhlpligfC0FyYVW0/N0G+mO6dIlUx8usCg1fvdCHi5vkMERe6KBk/OOBIgLy/SRRDoJOyRzRM0L5MTC1DQE/fiGGRw4mpc8dN1/0xe9d6YPXZh8oXbU9vQaebpVzsLe0VsUHVvmso+KDxuCtEi0CCHpV1NkUUUQOKNkW5eQSmsyvmqLhk2f78MXzfTi9XjOdtcUKNfGy5Yyie0TSjxzJwjAMw9iO6HoeP7AQ9x1ebRUcQ9FcUH3lJSGXnmvqPV14w6x/444LPoF3LL4DQffgqR0a9P5kL3XmO7K/Z7TvnOzfKlIcYbI92J9CWEJ9bmZs1AfsWW04VmhxWldElyppcZVPFZvi6CBL6jyPSJQolMIrK8U1rbbBbkZXhZLm9hZx4lyS3vroag8umyFPsoLT613wS5hbIWUoeY9k2dGdQlIyn+CK+tx3NBRl+8PnY/jnrgTikvtISU7mTUvdWFar2t6X0PP66OGElMnDy9zAp872Fu3KfSKWNNAhkSOh3G3YJvdIC3L29xX3AonRoGTqHzrTi69c4MNrF7nN42KH5OEODcjVTnlditm+O3khFsMwDFOcxOLAV569AdHEiZ2Q5g1wLpZxQtHzC8oP4XMrfoTvnHMrTq/dnH6Dhian2nJNvr63yHHEcIxWz0XEBI8pTuZUKqZWvlMYSpAshlwJXmmFGkUEORlyXu3skccQQY1ftTcdaZVvyFi9v99AokjtNLR68k1LPbhqthuaRJN8clySvJlsUMuV7+ZrX698D+u0HOdjGYgZ+OQjEfxxW1z6fAyUM+GSGS5cM5cci/b3JRQNcN8+igSyCiTipXPdWD1Fzqi3sbJb1Hd63mUh6FHNnCx2QAty2sISPriThKTxvnGxD+85w4vldZoZUV0K0J3e1SPX/Q640nJhDMMwDGMrouv5+64L8WTbAqvgeNRApZRj/0KhKgbOqlqPH665BW9d+DdUe3qsdwTczUuDI4bMNHmhCThTnDQGNXOVlVMIJ4DOiHUgCVODJANgHTiUlA4c6pfHMEvRVbMqXbbIXpBDTzbppbFChpdr57tw/TKPueJbNs5qLG7j6UR5qlU+JwvJ1eUKchi/+Z4w7tyTlCrqcTTmVCh49wqPmaS6ENy/P4HdEjnhM5Aj9tUL3aa0ZLFC8ki08ESmHooWR9jlIA8nDOnkoyYDRUNcM9eNH13ux4vnyBntOTkUHOiTS9aQIoxIUphhGIZhbIOGxmLw+LXnrkdKP3Gc7A1WIm7wPHs8LA3twe8u/gwun/4E/FrUKhXQIL04TUlFScFHZDRxockdeziLE0VRME1MhL1jztCUfygxu0yyVgRFCngd3keRs5TyOMiCRzyTjWXWQZ5JiIHH7h45cxGcDJJcO2eaCx8704sKSSOBT6uTb/Bn5mTJc24Q2fIrBd0KZldMbkhDl7Rf9A937k7gHfeG8VRzqijGJgFxbd61wovFNYV51klKkpxVsl1KTVVw7Tx3wa6bnRyWqL7TfZkSSMu45Ruq/3t69aKNQh0OSU69b6UX37zEj1miPSXJilKDcud1SSZrSG18lZ+dLAzDMIyNiK7yX3svwIG+KqvgGIqqwgicWM6MjFtN4aKG5/HQ1TdgbmgflOxZk2wTKKbwThaS4CD5JqY48aiGmKg5y0EwGDfQMiSPwZsiLUy5MK+zJ1BkiJAJeiZnhux5MBMpQwxAis9KM69SxU2rPbbJtuSDKRLKhVHgJ+VQyBck33lkQC6n4Pzqyd1HchA/ciiJW9ZF8LGHo9jVI9fK/tEgmbDrl7rxukWFCzM7OGDg8cPyOZkbRb9LEmsUzVLUiH/exk55+icxbUddmT19NzlZDvcX3wKJ4bjEQHOxaEMpsf3H13gdHzmdT0g6TzaCnnROFoZhGIaxi8FEEH/adTGGEn6r5Biesoq85w8tFrxaAi+Zthb/d+EHUePrPOZUoddimIzKQg6vdcGtS7RaqDsrEoopLip9qrnC2ClkVir3x6wCCfC5FDQGnR/JsrVTrp6UIlmmh+x5NiknS2uRabrXign9p8/2YdUUubVEmnKcx6MYIIdgf9w6kISlNRMbzlA07Z274/jS41F8+MEI/m970nTEFwO04v9Fs1z40Jk+q6Qw3LUnibBkkrAUfLuyQcUqsRU7lOibIsplgRyH5OC3A3pqm4eKq+8eDo0tSRbs6xf78T/zJdT8zDF7JXOyUDtPksKck4VhGIaxkyeal+DJI3ORHCYV5vZ4YHhskguRHJeSwlVTH8Otq/4X9YF2dqoUmhxd/4LPHjvClKtAvlVDzNio8QEVXucM/FNkTBg0TI1tWaCElhVO97AINnXI5WSpERPSBpvyE+zr0zEomdH6ZNDjSIbbS2fKL9Y+vVyFT+MRTTYdEUO0ldaBJKwaZ2LydYcT+N9nYnj/AxHcsi6GP21PFF1y62W1Kj64qvCr0u/bL19SGxq3XDXbjZoSkOAZEH0TjcVlgVL8zbJpgQS1gzu6i3eOQrmGrlviwafO8ppORQZ4tlWu9kpTDDGWZQcLwzAMYx/huBf371uOgwM1VskxXN4ypJSSS+g2bqjnvrD+Odxy+g8wz5QIY4qFgo+oB+M6hopk1ShzIrTanaJZnIIumi9Kzi7TE0fXcGrQOnAwhyTL4dAUUs0Er3ZwQDxz+c6hYSfXzHPjZfNcZtJ72aF8URUOl+KzG4pkoegrmThVRBIt5nhgfwKfeTSKy/44iHf9J4ofPRfDY80p07lSbKMQkrr60CovFlUXdsi+sSOFfb3y6QWQ8/XC6aUxQXymJSlVzhFVMVBrk1GZ5MIOiv67GCEHyztO8+DDqzyYIcZDpZh/ZSR298h1vykquxTyRjEMwzDOYUfvTDzcfAbiqePHypqmIaF5kTJ4THEqZpY14xOLb8Pp1dugKcU51ixVCmpZiiSBvX06wvItcmTGSJUpF2YdOICUaL8oqaVM0IraOpsiLiYKrfaUTcd6yQTlhSYC5XcoBsgGs3qKhnev8BaV/rcmm4+FHHZ5NIhRXY5LFMriEfdvRb0LsVQ6x9tA3MC2rhT+sSuBrz0ZxTV/C+PcO4Zw/d0R/GpTHNu6dfREDfP8IvJ9HoWMp29a6jHziZCUTCFZe4ikwqwDiXjVQjeqSyTHweEBuSpBhRhXLqy2x6jcPkTR9sXXSFA06k1rvPj4WV7UivEl+1fSyOhUI2lDytvIMAzDMHaQ0hVsbGvCpq7ZVskxFI8fhlbCid3GiFeN40OL7sCVsx6Hyg4W55Cj4VRBTUuxlIEezsdStJBtpzGootJBOsEJMYPaLJmsVblHQYXYnMyGtqR0yc0WTDJR9niglcLFwJRA2ng7r0o2r8TokHFJtkgWykngJ82cPJASbWTrkFxyYZS36rYXYvjsoxG88a4wLv3jIK768xDec38EP3gujvWtSQxKJBE5GSg67/KZGl632ANPgRc3x8Wc4fm2lFQOOyLkVfA/C0onN8Wz4h7JxJwK+9rrjR3FtwqM8ndQgvt3ns5GkOHs6ZUvHxlFskwT95RhGIZh7KArWol/7r8E0cTx4zFV06C6fTAUjq48GWQjffWMB/HBJbdzDhankaP7UVDLEuXFaB2UzDLLjBkyfNUHFEdJCtEqNco3IAvmCrWg6vgVtYcH5fPA27nyr1nC6zMcMti+dK4bL5qlFYVMGDMyPTGgPWyYbaUs9McNfOuZOO7YmsBTzSkz75ZM8ke5ZPUUFz6wyuuIlc37e3VTRlKmZ4kgKUTK2VUqPC9ZDooFNjr5d/cUzxyFnmi6dp871483LOEE9yPRMiRZYyWgnFsNZTwoYxiGYexhT89UPHpkiXV0DEV1wXB5pRv3282qyk345plfLbAlnsknBb21g3FDTMC5FhYr1T5gbqWzWo+WQR3dUXmeOTJmk6PK6Wztksui6deA+VX2rLJoG9JNo7XsnFGv4e2ne1DO+UsKDkUr5CtKgZ7VAQpBYKRjZkjF58/zOkaff3u3LlVCdcKlKnjDktJZ4W8udgpbB5KwtNa+53t7d3HMUWgUuUi0Cx9b48WLZrs4/8ooyOhUo/xbtKiNYRiGYezg7v3nojPst47SKGJc4fb6oKscJXsyqr1D+MKK72JKWbtVwhQjBbWWUU4W2fJjMGOD5m9NIQ2n1TvD2JNhZ49cCZ1JN7up3PlG7R3dctXjqeWKKcNmB/TMyb6qPuhWcPO5fimexVJAgYF82VRaBlMYkEwuhSHJO+DWi/xYXueMPpfavC2dSXTHrAJJWFClYJFN+T6cwN4+Q4zF5XIkzLZx8c72ruKIZJlZoeIjZ7pxxSy3Oa5kRmZLp3z3e0nt8UmHGYZhGCZviPH9HTsusw6yUBTo7oBUctN2Qwo175r7B1w49XmrhClWCmYxo/pHySSHkrz6phjxiVbkqlkaGhwWhdEqmWyTz61KobXcJtl1nRa0r+mT7Zkbifec4caqBnawOAW3qsKbJy9LZySdPJ6RB8rP89UL/Th/unOsp51h3cxvkJBstvWK+S64S8gIvb9XLqOyR3RDcyrsu0Ekdyc7JCf1hfN8ePEcDztYTsGBPvnu9/JaHpsxDMMw9nD/kUvF2LHCOspGgeHyWfvMSJxVsxHXzbsLZS7JQshLiRyZVwo2MiOtvoP98k3AmVNDzyZJC123xJsucBAbO+SaQJEk0BSHay1TPW6RrK+4sMk+PfIN7fKuhCVJkYtnuPCO051Xl0sZl2rkzVjWFTXYySIRZaIpe9tyNy4V9ZRWSDmFtrAhncGyzK1g1RR3rsbXUrBNsijUGr+CKpvm8NR3xyQPZKnwKvjS+T5cMctlRpgzo9Mr+r5WCXOy2BnZxTAMw5Quuhgy/vDpC6yj4ymvrCrZfJhjodwVwSum/xuLQtusEsaR5GgYWFAnyz4JVwwxp+b0eg1fusBrGn+chmxSAOXiGk53uEQTae4nJctwNrfSPmvDVsmMWNnMCCl4zwoP/EWuRpGS7Pkl/fXyPEjexkXz2BHWEZMrD3bJQo62a+a5ccNyj2lMdRLUL8iWc295nYpp5aVliSY5S5mYZ2PS+yOSR6HW+hV8bLUXr17E+uhjoXlIh2zpyKgPWFjNThaGYRgm/xzsn4JH21dZR8fQNA0JV7l1xAxHVQysrt6Ia2eshYsjikuCgjpZdkk2uWNOjltVcO40DV843+eYxLvZUA6gw5IZfcjB4nO4gZvkNBIS+a5otfcimyaltAqWIn1khFZ1v3KBCyvqtaJOkmuIJoHaBpkgJ0uIdHNyTG9MN+Xt5GolSxeKMnvvGV5MtVH+cCzQSrb9fToGJYuIWtngQqXDnFX5hJyqh/vlWnhymo05h2SOQiWJsDct9eD1i9nBMlYOijYrKll+Iop0p7EawzAMw+Sbv++5EH3RE8dhmseHiLxDprxT7o7gutn3Yn7lfquEKXYK6mRpLoJcBUyakEfB9cvc+PIFPqxqcKaLdnevjrBkE6j5Nq7anCikuy/T6r9Kn4IpQXueUXKwDCasA4mgKfuZUzS8coEbQVG3i50ExT9LBPlXAnmIFByMAz1RdrHIwLlTNdxyrg9zHSgVE0kYZqSyTAFiZKgk53ughAyWzUMG+kSdl4n5VfaNL3f3ytkWkszsyxd4cP3S4o9CzSWHBw3p5OEo2phhGIZh8k1cjBf/e/A0GMaJ8w5PYKQcLUyGxaH9eOWsu3OW74PJEzkc9hfQyUJSEqXjZFEUBW5xtd2qYa4wO9lW51eObpUjvH+qjQxwtLmsbaILnlXRENCqf/rdJFuV+f4qL8zf1VimYGG1hhtXePCbl/jx6bO9WCgmwPQ5J3J4QD4X+9JaZzqssqGVsDLlVpoR0mzr4w7160hJ2MzVBFS8ZpEbM21MMFwwxMMwJJmh0S0aZj81zDmmIyKfxFMpQrJWt18dwKyK3D8DuYAiWJ6XLApgerliGiydOn7JBy1iTCTbyv1lNkayHO6TTzeRnt+Lmtz40Cov6gMK52EZB82DhqgPcg3Y1kwpgTEawzAMU3A29S7Hzt6mE+zQbo8HYcOBOQIcxDvn/RWV3j7riCkFlFAodLSubN++3drLP48eTuK1d0qWLdviVQtcOG+aC0GvanqpKPeI2xrn0mrI7NDtxqCKAK8kcwTffDqG7zwbs47k4M/X+nHedOd2XEMJ4O33DuGRQ/IY1Cg649uX+ExDdb751aY4vvh4VLrVkf8z34UfXRGwjoobSvK+5JcDUiXrO3+6Cz+50o9qX26f4QcPJPGB/0bQzdEsjoQMqEtrVHzrUj+WOdgBv7/fwCv/PogWiZJIXzFTw9cuCmBqsHSs0n/cnsAXH4uiNybHfaL27pHXB83k9/mGFoG9/O9DaBmUqy0kidkfXO7DWY088RgPFHX3oQcj+OuOhFRymd+/zIdXLfRYRwwjF1qqBeXRm+HHPVYJwzBOhKS1f/TcS/HZJ96M3njQKk3j9geRDNSKvrN0xs/jYU5ZO/a84sIChjYwY4YGgOIx7vHegajr0nTZBCnY7T4iaRQLJRm8dp4br13swUvmuHC12C5scuGcqemN9KJJviOzsYPFOezqkcvSTVFI86qd/QB1hlOmo0UmZlcoUG1arry/X4cu2aCDjIwfWe2zjoofyg0mk4OFHt0an5JzBwsZmToiunTyQaUC9Qdn1Ku45TwfFjs80TFFN3ZErAMJoDrVWK6h2gbjvZM4QDkoJBoW1QZU2yKNWocMqXLNEbRw5IOrPOxgmQB0v9vEJpODhXLlzSqFaGOGYRimcIiOcTDmw7MdizGQLLMK05BSj+ajstIaP48V6qc/uuD7fHlKkILN1Ld2SjZ7saCkqGV5SDjM5B/ZZHAa/AoaAs5uldvDwIBkRtl5VS7bDDXkTJZNLuxja5yZ5yFfdEfkahcoACsfK7lJNoiSladkSqRRIlB7tbxOw02ibq5pdEGzqwGbILt7dCQleo78LgUzylX4SsheSapI7UO6VFKfcyuVo1Hj+aZ1UC4ZVGL1FA2vWMCSHROhL2aYUa0yUeGlOsHzUYZhGCaPiCnH3sFZ2NE7Q8wRj59/uNxuJOCSaoGCncz0H8LL561jJ0sJUrDRmWx63RnIuBUsocSoxQKtUKOVajLRJMEKtZYhHb1RebwIZEyjSA07ajBJLnWEDTP/lCxQdMQ1c0trFWyreIZlggzs1XkINKLUDJ2SOZxKhSU1qpnz7NxpLjOixels65arTlGuOYpwLCX64wa6RB8lU6Tl7JAK0YXbwt4+A/FhxgSn864VXnOMw4yfIwMp6fq/KQFFjAesA4ZhGIbJB6Jr3N07Dfv6G62CLDQ3oHJE5Wi8bPp/UevvzmlCdUYOCjY8k1UubEqZipDXOmCkgSZQMckSvK5pdP7sibTcIxLlhq3xA0GPPUaIjrBuJoCWiZkV6nE5pUoBMjTKhEeMZWdX5n5AGxHP6p5eOfvlYmZRtYrvXhbA2Y2aFA4WYotkkcrlXsXMZVFK9Ih2j1bvGxItAqgzjcr29E80R0lIFI01LajiLAnGjE6FFsX0S5KbKMPiGvucjgzDMExpEk16sKVtCjrDx0uFEYbmgaGwk2Ukgq4Yrp29FhTrw5EspUdBRuR7e1NolTPnPWoCqm1GWiZ3tIcNSKb84OjExhlkcyTMCGkos0lNg3ISRJJytRWXzig9LffHDkvkJRSQUWVGee6fq1gKOCyZpGIxo4hbTDnefnl1mRnJ4nSJsGwo14dMeDUFVTnOceR0+mKi747LU98p38iSWhfcNsxawmJM0zJkmJJqsnB6PcndldYznEvIyTIgWX7BqeXUL1gHDMMwDJMHumKV2Ni74AT5c7fHA9XtM3N6MidyXs1TmF22T8zn+AKVIgUZnjUPyvmw0fSlygv42WErHVu6UohL5GWhZ21WhbNnTzQpPTSQTpgtC9ODCgI2Lf3b05NCj0RZhemqOD2hdj6QzbFARsaGstzfp7h4VGWS/itmvGKMceVMF35ypV86GSuS5SQpKlkgZ1Z9oPQiWajdo4UAslDrg+i7rYM8Q89wr2QRjpSbQ2E9iglBEV37+wyp8pFRu9VETha5ugeGYRhGJkS32BGuwIb2eVbBMXRFg65yHriRcKkpXFD/DKb4OqwSptQoyKxyr6SSJF4xwaN8DgHOySIdLYMUySLPfSP5koVVzjb60GpP2YyyU4Iq/DYZakhKjaIDZIGeufnVpeVBpnt0SDKnf7U/PwbhgwMUlWYdMAVlcY2Gj63xOt7RPhIUqZyQqFtQFQW1ok6VEuRQPSzq+0BcnhtVX0ZSltZBnqEFJENyBTia+dRUiaLdnARJ3pJ8nkx4RNdAEnEyRTgyDMMwcqEbCvYPTMfB/kqrJI0ixs4q52MZlem+dpxRuws+N0+sS5WCzOA3S6bXnYFWwFd4eUArG2TwIVkrmVap0eSJVqo5GTJQt4XluaYUAUDGaZ8NkSxRMWmnhOpkzJKFqeKZoxX0pcSuHh0JyXQEZ+Rpxf2ubjn75WKE2qgysqJJCEUByATZKEvNyXKwX8d/9ielyqc2tUxByKbxN8nLypSfgwztcyo181lmxg8tFjokWZ5QmotWeNMRyAzDMAyTD1KGC8+0LkQ8dfycxHSyuN1Syarayayy/Zgb3GsdMaVIQWbxsibXrRQD2mnl7LGVDZowd8fMiEdpIIkYp0+eSGKBrq0sBNxAyJM2quWb3piO9iFDKim1BZVKySW9f6FNPsfCqin56YN2dvNI2Sns69OxsV2ypfQW27vkqlOqGBmQgbpUoEUn9+9P4IV2ue5Tjd++KHJalDMgkeQdyRhPKXP+mNGpUNRS25Bc/V9jkPODMkUCNbVU/XjjjTfHbXHdhYePnC4OhqGo0FWPdcBk41J0LKk6hNmhlhGvKW8O3ogcDf9td7IMiomLTIbZbMq9Kqp91gEjDR1DKQxJNGEm5lRQJIuzJ1CRhIEBiVZ7VvpUc7ODcEK0deL6yMT0kFZykSwbOuRzsiyuyc8zvJWdLI6hfUg3I34lSul0lJ09cj1HpRbJQrlYfrEpLlWUJUVqNARoEYA9/TdF6ZIcqixU+RR4eP3XhKGxrGxyYRSVHZI02pFhGIaRANEtJhMqtnZNswqyUBS43F7rgMmm0tOPVVWb4FFZKkw6aCiYo+Gg7SO0liHDdLTISNCtoMYmIy2TO+iZkykRLzGjQqP+y7EkdcOUhZHJkTAloKDebx3kGdJ075BKSk3BnAoF/hKKZKEQ561dchmEydi4ujH3iQko4upgn4QW/SKFWo5nWlI43C+f40s2YyXlZCHZnVKA+u0fPRc1c9TJhEc1UBdQRT+V/99Nz++BPh0yqUg2ltnngCo2SC50d498Dm2qDxSdzTDSI1d3xDClAdVLBVjXthq9kRM7G5fHi0iqdGwG46HK048zqrdZR0ypYvuo/FC/LlVS1AzUjNBEnFaMMXLRFQWGJHIGuDUF8ypVR0s/xHUF+yUzAJZ7FHOzA9PJEpHnmQuJtq2+TIF49EqGHd0p9EXleoZnlCum5F2uaR7UMZjkvs1JkOwWtbG6IZcFoi0sV52ixQyBEjFQP3woiT/vkE+GLiT67Wqboo0oTw1JocrElDIVfpd1wIwLcqa1DFkHkkCLLaYFybFmFTAMwzBMLrGGXOsOzU/vDMPttWnVqoTMCLRgaWizdcSUKrbPLElrPCZZomHCJa5Uo5jIcEi+XNDKTdJaJvkmWSBJOqc78+KiDsu0ypoMaTV+kgvL/3WlqABaDStT4lySYqkuMQfy5k7RLkhmb7xgen4sabt6UuaKXsY59MXF5OZwUoyXrAIJoN/aLZFzmaBWrxSMlRR5+vWnYkhQByUZ5GAhR4Id9ER1NItrJROUn8OufDXFBkW0HpBswZBfzEMpR5GLtA4ZhmEYJk+sbR4hH4tAd3H+hJFQoeOs6hfg4XQ1JY/tTpaWQR0JCVVJPJqCGaHSWO1YTJBzpXVIR1KiOfM0MWF2+qpEMqbt65fnopJ09bRyexK707U5NCBXxB4ZaWpKyMlC+QieaUlKFeFGXDA9P17+/X3yGV5LgUcPpxCRaIFAV0SXMo8MLaIpZqhP+sWGGHZJli8nQ4VXMY3KdtAfh1R5I2lsMzWowKtxGz4RkoaCPb1yNVpBD0V3WQcMwzAMkwdaB6qwsXOWdXQ8CXD47EioioHz6p63jphSxn4ny5AhlcE7AyWEnlPJq4ZkIywetr4YIJPiysyQ81clxpI6jgzIY7DxahSpYU9zFxXPHDmTZaLcTRP3Irc0ZtE8mMLePt1cxSoLlDdndWN+nCxPtUhoGS8ByCi+vl2eezNg5j7jcZLTeOxwAnfvS0qV7D6bKtF319nkZKGckeQslAUaK1Z4VTO3EDN+zPyCko3XKKqrqbx0xmsMwzCMjVg2sz1DC8SY6MR5Z3koJNX82U4UxcCKup3WEVPK2DpKIwcLSRZIqFZghmWXmpxOMUCSTV2SyZdUetORU06mI5zOOyILlHNkrk1O0kjSwEGJ5CdI33tGhWbbSmEncLAfpoygTMyrUhBw5ece7eek946EDIB/2xGXZpHAkERRNxlIcWd6sHgNljTm/uP2pKjjcs6IKcpoSkBB0IZ8ahR9StJRMjmjSAKV8kUyE6MjLOYIUetAEijhvV35BRmGYZgSg7oXsT17qCF9PIy4zk7+0Wjy92Cqr9k6YqQkR8MrW2sJJRkmA6SMeF1iIs4rh6SDko8fGpBnxkyLEaeFNPjys2A9Z8hmlKVIFsrJYgckzdImkdxIQLRtdq0SdgK0+mZDRxJHBuXqi86f5sqL85X65L0sF+ZYHj6YxMF+OdrbcMKAIVmifvq1vbH0frERTQJ/2xnHfw9I6P2yoAi+Kpv6J5IybpGsX6gV16Y+wHOTibK5U66xLFHp5UV/DMMwTB4RQ6F1nWdbB8ejeDjp/WhcWXdvAXSimJySo2mArY8BGbz7TTkJ+SAjZB1PZKSDjD4yJSAn58rUMhUehztZDg7IVY9pFWx9wJ5JKUnmyKTpTkmf7bo2TqA9rGNDe0qq1coUSblqipaX3BE7u3XEktYB4zgoAf5de+W4QREJnyPyCQ3KlEBrHDzTmsTvtiSkvC8ZfK60hKod0GNwRDLpKMpXQxszMXb3yOVkMSO7xBwhxPecYRiGyRODcS82dUy1jo6haRoUF4fPjsZF07alIyHkNHczOcRWr0GzmLz0SiQxlE1TOQ9oZYNWrFNEgUwSJjRZDrqdX0e2SrT6j6KDqsR1rbJpTHB4QDd13WWBZCcocW6p0DxoiIGjXIa0Oj8wq4J0962CHEJGRYNHg47mzt1JMyrB6UTISs25IRwByXl++5mYKX8lM7TwxC4nS1QMGmUyulNNo0iW6hKKRM01GyUbC1DqvFJaFMMwDMPYz8GB6eiLnmg48Xi9iMgXAGobyyq2s4OFMbHVydInJn0UWSAjp9U5PLSAOYFYKp0bQ7xIQ0OZKkXElEzyQjQdnVKmwG1DnhtaFU3a9zLlnaLEuaWSj4WiV55uSZkOf5lYJvqfmjzJg5CRScY8aaXEftGPPdvqfC+LkSshWxuhR38gnt4vJj77aEQ8M/LPhKnfrvZZB3mGFubIFIVKUQ11AcXx8rJOZle3XHWExmuzK5w/R2AYhmHk5fBgPRK6yzo6hg4ecIxGlSeCBZW72cnCmNg2UqMFju0RA1FJ53yzK7lRkQ2aMPdIFjlFWssVPgmcLL3yVGRK7D6/yr5r2iKZAb9MTNpLRQpxMGHg33sSUjleiTPqNdSX5eceHRnQpUmsXqrQ4hRZJMNkg579hGwNwin4xca4Gf1UDP8siu6dW2XP+JsSoHdJNGYkWdlKCcaLToVyMcl0vwmvS8GUIN9zhmEYJk+IbvHJtsUIJ0+MZNE1t/hvaSzMHC/Tfa3wqHG+PIyJbSM1kglrHZJzxkd1ZVaIa4xskLzKfskSOleK/ixE/ZeDWd+WMpO7y4JiGPY5WUQz8Xy7PE4WckBNCaQdLaXAxo4UtnTJ5QSjlcrzxPPrzsMjnNQN0ykoZ89cOtCCgedEu7u3V65nVwbo2e+VKG/byaCItGdaU/j5xnhROFgIWrVvV++0tSsllcM56FHRVEJSn7lmT09SqrEsYeZt5HvOFBvU7vLGG2+O2GgcdHCgYcRIFo/HptBiCTmr6rH0Dl3HzCtv8m05wjYnC60g7pQoDD+bcg/QZJMmNJM7oilDKj1yUrOiiIJyhye0PNgnl6GP8ljMrLBnJawhRiYyRbJoiiHattKJ0vvN5rh0q9bnVqpYVJ2fe0RRLJ2SreQlvOJyuPKRoMbBULvidMkwcgbJBk0mZZWxzUYX/5BdPbqZh4XqdbFgVz4WYo9kSdD9LmB6Oc9NJsr+fvnqPeXgmcaRLEyxQVWRN954c8TWGy3DgZ5yMaY/fp6lqiriBvc/o7GkpmPE68mbRBuReZ0kttUUkm1qGZJz4kcJh0tlpXcxMRA30BGW55kj6QeaQOVjxXou2SRR0nsi5FUxwyZDTcuQXJrubpul1ArJ5o4UHj4ol+QS5SOYV6miMU8rVzsjBmKSqVCRc+W9K734xFkevH+lB9cvdeONSzx4zaLjt+sWp8vfssxtbjcs92COuJayQonMn2xOos/BURcpmcIALFIUzSVplHU2XaIu374phqfEM1JMOZaW1NpXZ2WLciQnSyMb3CfMVsnuNzGNnWoMwzBMHjkcaUJ3oso6OobL7RbjfLaHjgQpgywr32AdMYyNTpa0wVvOmd88zsciJYcHdKmkAMiRN1WCCfPmTrkmpg2B9Mp3O9jWKZcOviYet3wZ8J3GD56LSScNUu4GzpziypuTv22I8qTJ1S+vadTw3jM8YvPiY2t8+PQ5PnzmHC8+O2y7+dx0+afO9pnbJ9d4cOUst21tQa4hw/mGDgO7HSwZ5qVwTMmgq3lQoojXkaCch3/akTDzsMia93A0mmw0KsuWBL3Kq6DWbx0w42Z7l3yVxc7ILoZhGKb0ONBbie5IwDo6hqGI/kdhJ8tIVGgDaAq2WkcMY5OThYwDtApzKGEVSMbyOnayyIhs+ViCbnsNChPlcL9cS9/tSppLyGaso6et2lf8A6anW5J45JBkIRuCSnFvVjbk7/klOUWZ+mWK7HnPGR74XelnlqL+Qh7FTI5d4z9+qxRlVB4U79NGEW2XzVClft739KawsT1lGtWZ3EDjU5kkHkfisSMp/PC5mKOjnCYCRffaZVSmvJEyJUFXFQUNZWrJySbmkkN98jlZFpRI5DHDMAxTAMSQ4sBQE7pj1VbBMVyeABSVbaIjMTXQhjKPpIZuJi/YMlojgwBFFSQk1TCYy4NaKTk8INcEyusiQ6B14FBI9q81bB1IwtmN9tXfx1vkMtaVexQszFO+D6dAeSJ+vTmOQcnGPrRYaFWDy0x6nw9I2Ymk7WSSC6OEv0trJ/68njfdjWUSL5qIiy5t7aGEaIed2c7IuMCNhqVdUWAwLt/4lOrwrl4dN94XRl/MKiwiqsV4iBymdrC3T0dUoraQ6lpDmYQVziEc7E+hU9R72bBL+pZhGIYpPeJJBR1DPkSSI8yVOIplVE6r3IWAJpmBjMkr9jhZUgZah6wDyaCcBcsmYdRhCscL7XIZvGm1tdP1tSmxrmy+0hk2JnaXTW5kenlxD5joWb1/fwJPt6Ske25phfIrFriso9wzmKB+2ZBq8cOUgAIriGXCvHqh29TOlZWnWnQcHnDmPaM+zLT8S0ZvVJcqlxZBuWS2det4+z1h9EvoIBoLC2xcAEBRYjJBTdiKeja4T5SOSFoqUCZc4naXSg49hmEYxn76EjXYNzgDidTx8yRKeh/VFakk0e1kmq8FXi1uHTGMTU4WWn1Jq4ZkpD4AU3KEkY8jg/L0BPSE1fjSEjdOZn9fCoZESc8o58j8ansmpTHTmSzX6GNukeebagsbuHN3QjoDKjGjXDHzj+QLSpRNMp4yMb9Kg3eSfqfLZrqwuFrePr03ZuDefc5cci9hShYTksxrlmi8QOzuNfC1J6PYJ5ks6nhYNSV/TubhbJMsCboCA9M56f2EOdSvIymZtYjmCKYjm2EYhmHyQE8sKMbDJ0qFaS4XXC63dcRk41FTWFixGz41YpUwjF2RLGIcu79PtjVDaaaUKeaKMUYuDvSl0BmRZwKlippYG3D+g7aj24AuJveyUO9XMM0mQ8SBPgMDkq0oXlRTvEaapG7g8SNJrDuSMiXDZOP1i4/lHskH5GBxquzUaDSUYdKRLHRNb1jucF3GU0COQyfKWwXcChQJ5QQol8k+ifIzHBnQ8dMXYmb7Ru1csbLYxv5pc6dcC8E8mmJrvrlig+akso0LeMEfwzAMk086IhXYP9BgHR0jZXAUy2iEXIOYFmkSKQYAAGgESURBVOyGS5XT1s3kB1tmMPGkgRbJVnhnOK3OxU4WCdndq5tyGrJASUzrAs43eFMkiy5RHzKt3L5rKpORLsO8IjbSUJ/zm81x6aI1CEpo/Mal+V0xRPmVeiXK40BREtNFfabk95Pl2nkuzK2Ut2OnVdgPHnBekiFZI1koX9Mhh0qwDYekwX78QgJ37kkiIlEOkYlwmo35k/b0yDU5rg8obHSfBIcHdehmDLk8lHuLd1EMwzAMU2BEl9gXD6BtqMIqOIbm9pgbcyIN/i5UunutI4ZJY8uIbU+vjjCFs0jIlKBihuUzcnGwX64JsyqesfmVzp5AZSRVZKoNq6fYZ6TZ0S3fCoZpon0rRugZ/fWmOJ5tJXm7dJlMXDHLhVCeZUEo0q8rIs8zSxEoDQE1J4b8oFvBaxbJO1mgR/oHzzlP+7faR/+Vr8JRNMiO7hQODzi/Pvx8Qxy/3hyTdkw9Vqp9FIVqT/+0U/TdJMMnE/McPl50OiQhmpJscMBzUYZhGCZfJFIu7O6qw0DsRKlW3VDMjTmRpkAr6nzsZGGOx5ZRuowrvAmKLpgZYrkwGXm8WTIni3jWyh0uddke1hGVrCrbGcmyrUuui1PtpZwsxWmoeaolhd9ucd5K/7EQ8ip4/aL8NgYJ0Tx2hA3EdXk6t5qAmlM9+gumudAggUTjaGzp0vFMq7PanBq/Ktna8GNQJIuTI65JHu4Hz0XxrWdiUjqOx0udqJt2Sc+1h1MwJHtyOQH6xKFFWB1DunT1iOeiDMMwTL6IpnzY0b/AOjoGJb1X3R6WCxuFWm8PQlq/dcRIDT3jOXrObRml75c0MWfQbWBGSDQsEmqMlzp7euQyeNMjFnS4FEC7mJRGk/LUZZqQzq6w55omxMijeVAux970UHFKhZHW+qceiWBI0pXeFzW5zH4nn5DMUIuozzJJKjYGSJPeOsgBM0XbcPEMTVqnAPHXHQmz7XEK5R55JYwoj9vObsrf5Lw60RUx8LMNMXznWTkdxxNhUTW1gfbcC5qjyNQWEsvrTlxpyoyNgTikWmCQwePsKQLDMAwjMZGkhh2dJya9V1RVbJwDbiQ8qo45ZftR7emyShgmjS1Dto2SJZTMUO1X4ZVVZLyEiZIBUTKDNz1lAYdHshwZNKQyXJO8EOVwsIPuKKTKb0HYmVTYLvrjwHfXx6SUbiMoiuWyGVreDdURUY/JcCsTNX4FQXfuntmQB7iwyY1yiSWGKWLrsGiXnQRFIMgIOR6fadXNNsRJkKzfrzfHcfumhFSLHCbLomrNtkiW7d0pSOZjsZxQzETojMgpYT1QOj5WhmEYxmbiKR8ORGZbR8egSF9D5YUdIxHQwpji74HGPihmGLaM0g9Llh8jw4xyMuqwk0U29ovnLZzi+5ZrSEpFpkS7plE2z3ktMrQMpaSbtC+qKa4RQTwF/G5LHPfuleghHcbKBg1rprrhynPPPCie1QOS9ctVPiWnjmhNVbCsVsMyiVeEU5v83wPOet7rAvIafx89lERn2DntODl8frM5ZjpZuqOl42Ahponxt02BLGgPp40IskAO4tmck2XC0IKh/riETpaYnHNphmEYxvm0hWtxuP/EpPcUxaKwk2VEqr19mB06Yh0xzDHyPkqnZJJO1rk+GbQKvszh0QXMiZDecilolttNG8mFSRSUNiuk2CavQIY5ynMhE7MrissRef+BBG7fGJPSeEL4NOCcqS7TuZ9vIknDzMkiCyT9NzWompE+uWSOqAPnTdPgk3TuMBDXse5wUtxL5zQ+lTmUdLObVtHHPbA/bpdt/6QkxS391aYofrohIV3U2WRxawrmV1Eki1WQR2hxBEU+6xINGmv9CnIY1Fdy9EQNKaPCWsPWDsMwDMPkmC19C0TfeOLAKyXGowl71uVLR7WnDzP9h60jhjlG3mvMpk6avFgHklEtJjJelw2zPCan7O2hJKZyQRP8XgevVKWk94cH5MrhMKdSg0ez5/fu6CEpNetAAsj5NKeiOCJZ6A6vb0vhf5+OSevQJyiR8RUzNVuS2w7EDbNOy0LQnY6QyPWloWiW1Y0uTCmTc/JAduE9vTq2dxti3xnP/tniesoKXcFfbEqYcnqFhAzAP3khhm8/EzcT3pcaDQEFZTZFoZLc3qBkMkxzq1iXYqJQbeqJ6ohJqGJNDsHNkspvMwzDMM5me2edtXcMkm0tCwZ58fIoVHr6MT3Qah0xzDHyblnY3S2ndAutEptdoaGM5cKkY2+/AV0yzx51Xk6WmxqMk8SQdSAJtPLdo9ljPKWVxnEHJaA+FdW+tBO5GNjepeNrT8qbh4XwaMClM122SLjRY7pNXDNaKS8LJPuXr+f19DrVzG9gh3MrHxwa0PFUc9IxUo61kuZkydA6RDlQCtfZ0d+nvFJfFW2abNGRuaKhjPIhWgd5pl1cb4rsk4mlRZhPzS76YrTAQMwR5LrlR3mhjZ0sDMMwTO5Zd3iBtXc8Epk3bMWl6pgR6EC5Z8AqYZhj5H2kTissZYRkSWROiFvKUMSFLToTOYRsKYcHnFtXuqKUKFseiw85SUl2ya3m/5oOJQwcGdQhk51mXrULxRCkt741iVsei+LxI/LmYSHIIfjaRfZ0OGRcInkcmaB8LI1l1kGOKfcouHymC15NzgpBuYiebEmizSHyb3Mr5V9l/+PnyWlrrzGT5Bi2dKZw61Mx/PQFh2Xft5m5lYptC5wO9qekixaaWSRRqIWA7nVfVK7+L5sHDyZL1vnKMAzD5Ie4mEZv7j3RyUKjo5TKBtGRcClJzApyPhZmZPLvZOmSc9VNfUAxV9MxctEZ0c1cA06RThkrZGDZ2+fcmRNFanRHrQMJIHmhSp8C1QZnG10b0viW6ZGbGVLznlw9n5Bh+f79SXx2XczMSSE7bz/Ni1kV9twQcrLs6pHLSkMG1ypv/q7Pi2a7MS1oHUjIhnbdvKdOWJ09t1I121+ZoSTzP1gfN2X17CApbtzjzSl8bl0U/9wVl1LKKJfUir7brnxqLUM6whJ1IeQLXlDFc5OJQhF/QxIPGbZ06qK9L/EGgmEYhskpm3sWoydy4uCd5MI8HnayjIRHjWNxxR7riGGOJ+8j9YMOXp1/Mqp8qrl6lpELkgFwsuzWaJDJc3+f7hjJl+EMxnWpVntW+1XbNN0p0bpM14agpPeUXFhGqI78fmvMjGDZ2CH/ks7FNRpev9g+qzTlVdrnYIfucMhPSsnUa/Iob0ffffUceT0DFE13zx4yzhe+HSLpO0rMLTsPHEjg/221J6Lkd1sS+OhDETzdKmeuiFxCCp9zqjQEbIhkIWd92xAQkygMtcKr5LUtLHZofjAQk2+OkKEtrOOfuxIl304wDMMwuWP/4Fxr73hoAWkkxWOOkXArKTQFmq0jhjmevDpZSG6hPyanESzkEZMZdtxKB8ngUNJY2aBOjLTY9/U6b+ZEeuX7+iixuzzXtalcQY1NTtLmQQMdEiURpwiWmSHNXBErG90RHV98PCK2mOmU1CWLWBsOGaQ/utoLv425winaoVOi51VTFNT6VTMvSz5501KPbXkg8sFde1OOcdKvqJdfzqg/DtyxNYFHD+enT6amqzcGfPjBCD7zaNSUOSUHaKlT5lLMsbcdOZJogURPzDDlMGShsUwR/QYbPCYKRaf1SazGR47B/+xPYO0hyZIkMgzDMI7lvwdGzscSqqhwRJS8Eyl3R7E8uN46YpjjyauTxZRtgnyTAZrc1QVUVORRnoTJD3t6DekStGcgQ/3z7c4ztESTtNpTLmcpSYUFbFqYTlJhAxJN2kMeRbRvJKVmFTgcqg8kA0jyYK++M4LfbC6OVZx0/a+Z58ZFTfYapDd3ptATsw4kgPIrNQbz/7BOL1dx/nQbvV05ZjBh4HdbnNEQLa2T9zpms6dXx1efjOKxI8mc9cv0NZ0RA3fuSeDlfxvEn3awsTQbiiC3a+xNSdBpk4kZIdV0zjMTg/KZyBS5NBKHBgx87ak4HjiQRJQjWhiGYZhJ8nzPEmvveGI620JHY5q/CwGfdcAww8hrzSFJEhlX5pFRh+QueCIjH7RKLeEAyZSJQMb6f+9JYHev4agV+mTQJo16WSB5IXPluw1yI9S89UZJ5k2e65PUgS5xP53eNNPvo+iue/Yl8fnHYnj7vWFskzTH10hMK1fx6oUe+F32erv298nzrBIe1bAtmfrbT/PYlgsiH/xxe8IREYfLauXO+ZQN5T/4wmNR3CvaIVpFPhlofPLQwYRoz6L4xMNR7OzRpcrlZQfVppPFOsgzvTEDXRJF9RHUb8jcRhUampNKOkU4Dsp3etNDYfzkhRieayPVCG5IGIZhmPHTG6/E7u4q6+h4VI/f2mOGs6bmBWuPYU4kr0N1GgRK6GMxtaCnBnkWIyM9Ud1cqSYjVFWeak7iB8/FsNdBhlDKN3JAohwOtAiWVqXboelO+t4kFybTM0cSKX/aFscL7Q7RFhoBioL8+64EvvBYxEwG/Y9dSWnr9UiQLNWLZrmwvFa1PaJoT49cjiqPSzElcuzg9HoNp0ksdUXt9IMHCl+vZ4VUNBbRGGpzp47PinboG09RHqjx1x+KBP3LjrRz5bPrYqI9S5jtMHMilG+k0mtPfSfZRFpwIBM0tvHa7JgvJpKGgngxeFkEbWHgW0/H8IlHIvjSE1HcsTWOdYdTpvP2UH/KjACerGOYYWyBqmSmWmb2x1pGTLYseyNyUUZMtix7I8ZbRky2LHsjclFGTLYseyNyUUZMtix7I3JRRky2LHsjso639szHQGyUHAmavPkq883Kqi3HXUeT4fuZ14mUZW9ELsqIyZZlb8R4y4jJlmVvRC7KiMxrDsjrLJiSkMsoF1bmVjAjxJMY2RiIiwlzRO5VahT6f/feBD7yYAR37nKG9AtFabSJuiwLZR7VNiPNUCLdzsnGI4eS+PCDUbzh32F8+YkY7t+fEJPywkYeUsTUC21J8XuiZtTKlx6P4t97kuazJ3vuleEsqdXwqoVuU9bObjZ0yuWtIntiQ5k9Bnvq+18yV+4JxW+2FF5+yi8u4bzK4lqoQlF1v9gUN/tmaqOebE6JNmv0dqlbjEXWHU7i1qeiePf9ZASN4f+2J6xcUtZJzAmQk4Ukw+yApMJ6JXKy+DRysihmm8gwBDVBW0Sf/sdtCXztyRhuejiCd/8ngrffF8Wb747gtf8K41X/zN6G8HpR9oZ/D+Fd94Xxhcdj2NJVRCtYGDkZ3qbR8VjLsrHjc6cqG8s5xGhl2YzncyOVZWPH58Zalo0dnxtrWTZ2fG6sZdnk+nOiD3mufaaY/w9/E3B7PEUhz50v5pQfGv26ZjPaObn83FjLsrHjcyOVZTOez2WXjeUcYjxlOUYJhUJHZxjbt2+39iYPrUS+/u6wKbUgG/OqVPz8RX4srGa9MJloHtTx8UeijljJO1lI8ooiMpbXa3jzUg8un+lCyCbHQTZk237oYBJvuiucS+duXpkv6u+tF/pwzrT85wXY3aPjow9F8EyrnKMQes5cKhltDPhcCmZVqFggrt9FTS5xHTXMrVTM8nzydEsSDx5M4Z69CdOQSY5GWSX/xkKFqMefPMuDNy31FiQvzhm/HpDKabq0WsF9ry237Vo9K+oyGcWPDMhpeKr0Ar+6OoCzphYuLwo55n/8fALfeiZqlRQPimg0SQrNLdrM+oBoMys1M09GU7lqRjYe7NfN6MZdPSmExVAkIdqzpOhIWRbs1JBU73vP8OCmNV7zOucTulffXx/D95+TJ6HalDIF37/ML3XuqEJDsn8f+m8Y/RInv58s6bqVXgJJ/SpFfb9ukRsfXOW1zcHJMISWakF5+Gb4U/ekVxDT2gwaemUew1OVEVQ+WlnmlRjvd0+mjKByKsu8EiOV5es3jFRGUDmVZV6J7M+MVEac6rsnU0ZQOZVlXokJfvdQDDgyNBWdyeloCdfjcI8bz3UtQmtsKrpjFemTTkJ/VEO5T0dP2AWPpkNTDUQSGip9SfRG89//Bj0pMY5WTcdHhfibfeJvBtwpxFMKkroqfkdC/A43/G5dbJOzP3QOutE2FBB/78RIlvJQCAPuGuuIyYZSSkyJbYDflYRbM8SYUjt6r1yqDp/LwGBcPEfeJAZjmuh3DZR5dAzEXAh6xfwgroh5gYKQeM76xPMWcJMksWre38z30L2lZ4DKqwJJDERVcf7I97va24+LpzyDVQ0HcWXTQxOqN6csI6icyjKvRC6+e6xlBJWPVpZ5JSby3YQ47im7A1HXpVbBxMibk4XCld91XwQ7uuUzPp7RoOHP1wZskRticsf+vhQ+/nAU647I98ydCsoRdPVsFy5scmFNo2igPWT8PtZG5Auydf9iY9zUpJcFkvz5zqU+LLLBSUpa2O+8L2wa1YoR0sYn6cRF1SqW1mrmczi9XBNliuj8FfP5E8MEMVEX+yM8jLRim6JQaCBBhsaWQWBbVxI7Rb+wqVM3nfCltkrmYlGHf36V34yasBta/HD6rwesIzl4kWj3yGlgFx1h3Yzu+svOhJSGcTJUv+N0Lz59dmGceERKDFbv3J3AJ9dGzTwkDDMWQmKO/4mzfHjL8lFkK3II5WP5qimxVPjIr7GyuEbD/17sM+cozMRgJ8vI0GKbK2e5cPM5XsysUPM+t2AY4qiTRb/HKmGYNAndhaTYUgY5G8Sx4TEN0Lo47o0FsL9/GpqjTYikvNjVFsDu/ia0Jabj8EAVusJupFQfkIxZ38ZMBE9ZBeK+auuIyUaN9kEf6raOnMXiun68a8Hv8er5j6ChfBCaUmKGlslAU1YxAHK0k+XRw0nc9HDUXNUnEzSwfNEsDbe/uCxdwEjDnl4dn3gkisePyB/JMhpuMRFqKgeunuPB+dM1LKvVUO1PG7vzAUUUkIPl9s3yGCLOm6bhx1f4URcg13T+MAwDaw+n8Ja7w2b0RSlBychD3nTeG0rcHnCnZZ2yoZY/LB4bWtVOG8nnFFNelYlAK5HJYUCOwEKwVvTLr7szbB3JwbtO9+CW88RkyUZIeuXzj0WkNcStnOLCjy73YWYov23gySAHNI0Bt3Xx4J4ZG5Rv5CsXeHHFrPxL9lGk2sfE80nSmbJwxSwXvny+D00FrNeyc9++hCmVSk425njIKX/NXBc+dbbPjM5jmHxznJPFMm4dfSUmUkZkvz9SGZH9vh1lRPb7I5UR2e/nuozIfn+kMiL7/TyVRZIBDCb9SKQ8ZtRGT7QMUT1gOlfCcQ0H+urQmmhCX8yP9n4XDoRnoitWKdruINoH878QgwF8VQ2IqvYtcpOJQKwT4UHnLlqk6KsLpu7EJ878My6Z9iy8amzk+khk182Ryojs93NdRmS/P1IZkf1+nssc7WT5f9sS+MoTUdFoHv16KdDEKPMdp7nxuXPtNeowk2dHNzlZIni6pfiNOtQW1JcpuGyGC29Y4snbykZKmvmWe8KmZJgMUETFS+a48MMr/OaK7nxCUT6UzPjDD0asEoYZHY94Hr9+kQ+vXVy4ycHtG+O4eZ1cEk4/udKPa+fZmydla2cKNz0SxfNtcvYldQHFHMO8coG91y0bSipOev9/o4ggq4xhTgZJfX7/Mh9Or8+/HMdOMV684e4h7O+X5+mkPF63nOtFjZ8N4BPlvwcS+OhDMbSL9ok5ERo3v/10Lz51lteURWSYfHKcXBiRMXhlk12W2c91WTYTKcvs57osm4mUZfZzXZbNKGWRuAudiUYMJbzojXjROlSOsF6BrmjIlFZqD1ejK16JcNyH/pgHhwaq0Z+qRCTpM6WwKHqFKSz+2iZEDJYnHQ71k8mugzB0588RF1a345Mr/4obFt2ZrquZ+ppdb8dbls1EyjL7uS7LZiJltE/tjri/uXCy5G0I1TKom5rHskEreZbW8MhSRpK63EnvxwP9M9uGDPxpRxKfeTRqJtjNByT3tK9XHkOjphhmtEC+HSwEPWuHJc3bwNjPqxe68fIFhV19tatXvueVEj3bzZxKFWfUa6bmroxQ1NgTR5IFXeRS7VexoFrNe04npnigqEi7HAgJMbihxPeyQAtIGgIKQh6uT5PBo6nStut2QNHG/28rJcMv/sVqjIOgZi3TtGX2Ryoj8lGWvRHjLSPyUZa9EeMtI/JRJrbBZBB7B2fj0dY1eKjlbPxq6+X44jNvxocf/wje+uAn8dp7P4Xr//NhvPWBD+HGh9+PD669ER999O341OM34DNPXI9vP38NfrPlAvx512rcd/B0bO1pwuH+8rTUF0+tC47L5ULcyNx0JhvVIJubHOPHHd31+OxTb8Dvd780XXczPzvzOpGyDKcqo/3M60jfk+uyDKcqo/3M6/DvGemzEyQvsxla/d4pqzSMYaChLHP1GcbZkGNpQ0cKH3owgkN5kOajdoaSkcuC15VO3m4HJKW2u4cnosypWT1Fw7tWeOEtsHFnr0QOU4KMYctq7V9FRY6BK2e7UOmVcyxADuBnWnXs6S1c200LVlZPcZn5mxjmVFBOrzq/gsZg/vtvqhX7+3T0SSQH6HfR3ESFW+P6NBloAQ47WU5OXwz48fOctIaxEWqUM1NYeqXjiZZlykd7v1Blp3rf7rLM60nebw/X4z9HLsYfd12Nbzz1Mrz1wZvxP/f+L9b8+Tac/vsf4OK/fBGvueujeP09H8ZH1r0LX3/2FfjxC5fht1svxL/2n4uHDy3GE81zsaFjJg4ONqB1KIiheDqhO+NsPB6PeAT4Po2EHo+m64kkHB4I4QOPvAXbu5rSToTsjchXGTFaWfZG2FlGnKwsR+RFLowSx3760Rju2iNPHocMZARbe10QTeX2GGqZ3LGlM2Um2l3fWpqGb5KS+N5l/py2EesOJ/CaO+WRw6r2KfjR5X5cNCP/hllaBfvaO8PY2MGOFmZ0aPXxF87348VzNDO5bKHoF8/r1X8Zwr6+zIzK+ZDD9PE3BK0jexmMG3j9vyJY3yZPzoZs6Fn76gVevG6xu2DPHRmxb7wvbOYCMiSakDD2Q76D1y324JsX51+qN6Ub+MmGOL7yhDxJcWv9Cj57rhevXsha9JPhhfYUPv5wFJvFfIEZHZI3fe6GcnNMzTD5ghPf5x/DUKCblgFKGg8zcbyhiE2UD4QNbBlaje5YJdpidTjYH8LW/sXY1jcf/akKDKTKzE9mq4TQcJIsZMkRxnTkxD5qPRPn0WJr8y9bn4mJY6/YycxCkmKH2hoZGf5vMAwd8XgcqVQSip40yyl3Ky3+zMarGYilFPOauNXCDYzpt7q0tK0kKX4z/VZCVTW43aJc9WBQCVjPDpNNmT6ISF+3ec8z0PVTaLWQRWbOQ0W0n3lNQztKVlnmjeFl6e8bqezY/vFl9BuG/z3aJ65b8gx+e8nnRF0Ub1C9y/z87K+xPnP0/WNfnb8ygsqpLPNKjFSWr98wrMyxOVkoAfmn1uZPwiifTA8CT18fso4YmSCNbUp8/1SLnEaxyTKrQsOvr/ZhQXXulun9ZnPcrMuyUF+m4ncv9mN5Xf6XKnZHDVz0h0F0RY42oQxzHEGPYiZuf88ZHlMKp5Bs70rh9f+OoG2IRhNycOUsF3794sIlXfzZhhg+/5g8htjhvEhcv29e4jcNtIXiu89G8b31cTGptAoYZgTIOPPBVV58ZLXXKskfFAH8pcdj+PlGeVbrL6hSzbpMUZHMxKEIpk+vjeDhQ9wgnYrfiLH0FbMKl9eLKX7YyZI/UrqKnkQldvTMwNb+JdgXnon2SAjbeprQFp+KrngN+hJe06bIMMzYcSMJD1JHnRdEIpGEy6WlnRzimMaZtE8OjaShwC3OJcckfYQcbLTvVtKqT5l1cOQEpbFwQpxPJgM6pu+i/bg4UHXxNzUN8WQKXk0Vv0K8kUqIhtRjLlQyUunfcPTz4rPkaKF9+q31vlb89rzP4LyGZ82/x4yCuGY9QYfmZCEd8K6IPIacbGZUcIInWXGLuWcpJ2ocEi317hznXNjeLVc9Dojq2xSy5yGgiL3eAuY8YJwNDXgubnKZuVgK7WAhWsNiMCdZ0qolBc6PdtVsN6okXsn7eHMKB/IgIzkerpnnllZ2jbEPksFaVmdPfadWcHu3XEb2gJihy9wWOQXqi8vI2sGckh2Sjf8ZiaFGOTM8Hb6feS1EGXGy9wtVRpzsffGaMFzY3deEjf2n4UBkGg6Hq9Eca4Du8iOlaNANvaRtJgwzURJwYQheDBrHtpirTJT5zP0hOlZ8iIpzwqIsrogysR8Tr1GxhcV+uky8p4rz6Fyx0b5ZZp1D59Jn6LMJ8R79DTpPd5chovrNsoS7XLxa51q/4ejnrb+Z+a2t8Xrc37wGKRr+Dm8/MhsxfD/zOpGy7I3IRRkxnrLsjThVWY7IS/NKK7u75FEYOo7TbFgBz+QHt6qYjpZSJZJMr9LLJZs65JpkTQkothn0dnQbx4VQM0w2y0Rf8tHVXsywyel3KkgmLC6ZzYSuYSGhe/fSufIuvBiIG7hnb2FlW+dWarigiRevOAXqH0MOVJyilXxTbcjHQpBMyt4cL0jJJ7Qaku5ZISPSioUyN0xnFV/JU9MW5gEuYwPZxq3sjZrosZSNdxvr91LZeM4dXjbebTx/awzn+tQ4zq7dgHfP/y2+fNo3cdvqz+O2M8VGr2fdgtvO/jy+u/LzuGnxb/CmWf/GxQ3PYYa/DT6No/wYphiJ6H680H8aumPV6QJqK4aTXZbZn0xZNrkqy+yPtSybk5XRa2bLAXmZ0QzEdfST8KKErKhnt76s+F3pVWqlSjxpoDeWo5bBYnePXNJrU23MpSRbEnHGPkjH/KsX+LCw2jn9yeEBA3HJvIILcyh9OFFuWOaROtn0P3cl0F9gVaS3nSauIQ+tCk61D7j1Yj+mOzDnII3f5lXaU997o7pUBmQSn6jxk6OFXQOTJeBORzv72O97SmZwblLGbkZqlk9Vltkfa1k2+SzL7I+1LJtclGXMcJbzpUwbwkz/Qayo2ISrGh7GdU3/xLvm/RGfXfoDfGvlrbj97E/i35e8C49ccR3+cNYHcMvyn+LGeX/FuTUbMc3fC1UZ6Y8xDCMLJB12aLAO+wenpdsJ3o7fckzOR1DRpIGD/Qaiktofp5fzJEZWyLBZF6BkYqV5D8l+OphDY9q2Lr3gxrnxsqrBvknhE83sZGFOhKRIfn5VACvqnRVWd2RAR0KiR7bKq6CxrPBt+fwqFZc0yRsi2TwEPHywsA05RQivbmSrZiGh8dGvXlyGi6ZrKHegsb5BjN3sMnxvFmMbSkorCyTpMiWoHdXtZiYOzQ+oLvhKeEHWWKkXdZJhGEmh6kuGw0w1Hr4voJFtuXsQdd5OzPYfxPKK7VhTuQGvmX2/6Xz5/qpb8OAVb8Tul12MlmvOwAOXvhO3nflVvGPeP7CiYg+qPaWZA5dhZKUtVo8j0anWEZNPcu9kSckbYkwr6VY2sCFAVsi3QpMntyrn8zdpxL/fIDd1jmgZlC8abX6VffW3WcLrw+QXWml802oPVjVQ8jur0AGQg4US3svUMk4PqdAcYFWk33D1HLeZY0dGqE/4+caEmYSxUNCl+/AqjmYpBFSFZoq69N3L/FhZr5r3guSnnMYCG6PW9vTI1Xd7ROMzr5IrT65YVquxA2EMODHijWGYcUDN3ASGfhS1oilJuMXmVeLwKVHUl0VxWcNa3Dj/t/jZmk/i+Ze+BF2vXoaWl1+E/172Lvx8zWfxkYW345rGdVhWuQ/TA21o8HWjytOPgBYV4z/9qI+HYZjC0J8oR1c0ZB0x+STnI6hY0kB3RE4j9zSb9KCZ/NEkJgWUIJSZPHskk8MiY9KMkD33fjBuoHmAI1mYY4S8Cq5f5sarF3ngcVjgQ18cCCfk6pcXVauOWLlNP2FNo2ZGtMjKls4UtnYV1rB8er2Gi2a4rSPGDshBuFjUoy+e78PFTZojnJajsdhGJ8vWTrlW35JzcqZNY5tSgBQLqn2qI52NToHaClZ2YJgi4GTVmN7LTA0y52VeqTz7s9lTCBpOWtsUXxsurX8Eb5/7Z3xr1Tdw58Vvx6arr8Z/Ln07/nD+x/HD1V/Dp5b+Em+b+w+8suk/uKh+PVZVb8fc4EHUenoRcHE0DMPYBeVlGUiVmdJhzAjk8Lrk3GoQTio40C+n8XE2rxSTnjkVCoIl6mQhGYRc5g7YKFnSe0pmaleS8R3dKURSpfmcMSdCuaBeucCNtyzzms+h02gdkk/6b3YFrbp3xiiwzq/g0hkuRzh9JkJctFV37i7sA0CRwq9f7EZdgMdZdrG4WsEnzko7WFwOf3jn2ejE3NYt19iG5MIayrje5Ioav4q5Yr4ncaqtvFPmMviZY5hiIru9ywyt6TVTnl1GUHn2EDz786PtZ33H4vJduKRuHa5r+jtuXvYD3Lb60/jd2R/Eb8/5FH625rP44ZlfwrdWfgNfPe3b+Mji3+K6WXfjmmlrcXrVLtR5euEpVVUShskjpGrQEa1ENOW1Sph8kfMRVCRpoGVQzoZxPjtZpIcMcxWl2m4YuikrkStkk8Oie28XRwZ48Mcc4x2ne/CBVV40BnNX/3JJ25CBvphc9bkxSJEszrieZR4FZ011YYoDcsRMBN0wsO6wXtA2nVZGk1zVhdM5t4QdLKmhCBY/Lp6hHbf4gnqugbjz2oLF4vfaxf4+ufrvGp/CkfY55qypmuMiTp0EO8MZpojJDAkyr9QlnqyMyHSb2a+Z/VNB54lhh89lYEbgIFZWbcJVUx/F9bP/hg8uuh1fWv5dfHvlrfjBqi/h12d/Cn+68EP4xyXvw22rv4pPLPk1rpv5T5xTuxHTfF05XUzKMKXIUCqEuMFOlnyT01EUaX93hnX0xMba6jqLOVU84padujIVcyqdlQ/BLmilakAMYHIByWHJ5iyllYl2sbNXLoM1kx9IxuWjq7344CqvmbjZqfRFdTNfmixQNCLlIHCKMZ5+xpJaDUtr5c3ZRhHG/z1QWFmGOlFHrpnnZq3/PHNRk4b/99KAKXM3PIKFevWEw7ovyqVn1zOxszuFAcmkEyl/iI/TReaUi5pcKGf1wlGhRQ4Mw5QImWFC9nCB9jNdJb0OP4des88/FdnfR2TGIeI1oIXR4G3HzLJDWFG5GRfXPYmr6/6Lt835A25Z9n3ctuZLuPOiG/HMVa/Alpdchd+f90l8beWP8dY5/8Tqqh2o9w5ZX8YwDOMMcjqKMkQLuqvXQAHzq04YavtJu5qRG7qP18x1QStBLwsZfEkGIRccGDDMqDSZOK3OPifpxg7Ox1LKkJY7yYLdtMaLD63ymFJITqU/pmN/v4GoRLLHIS/gd5gBbFpQweop8ub8GogrePxI0szPUygoMunC6S7TwMmrEXMPXVNyYn3vsgDqy0Z2UpIOc8xh3dfMCvscqhTNJZsW9VxeAJZzav0Kzmzk6zoaJL3MMEwJkN0fDu8bqRmgbbhpYbQ+NFNOnxlpP5sxNDFuNQG/FkZIG0StpxuN/jbML9uH65r+gU8u/D5+edYn8PTVL0PrK1eh9WWr8cAl78DPzvoy3jz7Liwqb7G+hWGYbEiK2yly3MVMjp0sQIukyaCrfGSgHkOLzziec6a5UFaCK9QoL0RTjhJVNg/ojlvteirm2WSIID3LA73sZClVSPaIkhB//jwf3nm619HJpImhBNAdlWswNa1cRUC0Z06DnANNkkZhkGTY5k4dm9oL622jFflvXe7GvEoeb+WSkAd44xK32S5R5MNoUEswFHdWe7C81r46tV2yfCyEnQtISom3Lfc4PldRobAzMpxhGAdDw4XMdjKoKc00p9n7BO3T5zNlme8aqYzILh/O8M+ITRFbQ2AAl015FO+Ycwd+fe5H8eiVr0aFO5I+j2GYowTVHniUqHXE5IucjqJ03cDOHvkmMEStX+WVlUUCSU+8dE7paSvQ81vpy02V3tObctxq15Ph1YAFVfbU37Yw0B2zDpiSguwxlFfiM2d7ce08lxSa7uEk0CuZhOeMcgVBj/P644XVGlaI+69Jan862J/Cc20pRAscpUjX8YZlHtFu85grF9Cq/Hef4cUHVnrQeIq8QRRp7rT8THYtkCDI0Sgb5NRncs/ZU11me86cCEkvMwzDjJnsYWVmn7qu0fYzryd7f/jxcLLPy5xLpMS4yNuJSxqesQoYhiHIjlEXGITPlbBKmHyR21GUouDwgJxOlrlVqmmoZYqDtyz3wFdi95PkwsjYkgsO9euIp7JHLM6GEsPaZZQ90JdCQqJrw+QGl6hf18514csX+HDlLJc0BmJysBQy4flEqPap8KjOq2PkVHvxHJf4bXLc++EkdAVPNifRES78tX3lAjdeNp8TTUyW2RWZqDoPGsZgGG0X956eAycxPUcRuGOhRbI5Ci2eIackkx/evcLLc78ROJWzlmEY5pTQUDO7KRlpiEJlmSFp9rnDP0uMVEaM9Dnx+oYZfwKv5WGYY3jUlNgk0g+XmFPPyMYBtWuHJHWyTA+SUcc6YKRngZiUXjm7tDTDguKfm4tklRTB0hoGZErJMi1kn6Y7OaBSBo/aSgmS4qP8K18434fldZpUUY+Uk6UzLE+/bMqxVagoc2juk/OnuzFD4pXlGzrE8xApfONOuW0oIuzMBrZwTgRqgki+7rYrA2ZUHbVRY4HaAyfhUw0sssmJ0CHawZYhueYotX6SM5a3vXE6Z0/VRJvOzt5s2LHHMExeGGnoOdpwNNPtZXd/tJ85n16zj4efL8qXVe9Bo6/DKmAYxq3E4QHLsdhBTt0Kz7UmTf13GaF8LCwXVjzQqvN3nOYuqckprWKlaJbJ0jqkoysiV3LY5TWqbdraBwZoJbBEF4eZFGTw/+mVPrx7hQd1Afk88fGUYkqGyQLllqgLKI7NdeN3ATeu8FpH8tETNbCpIwknBONRffrseT7zfjNjh/r51yx047uX+sx8HePp+zocJlFeH9QQsMnGfWTQQFSydGpzK9nYnU8qvApet8g9ZidlKVDjQ8kpATAFhMYi5PumV94mv1EfN5ayzDUnhpdlH9OW6Tcz30MMP5fey5yffZz9fubzmfcyZUTms5nyzOdo/pL5nuxzs4/pNfPZzOcEte5eXFz3ZPqAYRiE3EOo8gwcX1d4O7YRmddJklOLkaxSYSQBQpEPHDJeXMyv0vCK+a6ScZ7V5shQ1R0xMOiwxLinorFcO26xSz4hQw2rhRU/ZOx/2TwXbr8qgMtnuaVMkJsQXfL+/hSSEnXNIa+CcodGsWS4eo5bajmVXT2GmZvDCayo1/CZc3zmQhfm5NAVmhpU8JEzvfj8+b4xyYMNx3DY6okZIRUemwzcNLaRqS0kFlfL59iXCerWKTfLKxe6zMVZDDBFtCuqhOMdRmL4ccsd1I4N7+dGatuGX/OTDQ0yn8/+nsznM3+L3qMy2qgsc0zQd9MxbZl9IlNGZD5LW6Ys+1xipHMJKs8+tv4tZdoQloR2iHb+ZP84hikdqt0dqPO0HKsrTN7IbromzZYuyWYvFpQonaSWmOKCjHWvX+I1E1uWwnxhenluqjNJyQzErQMJUBUF04OKLfc4nDDQPqRDZ7mwooWc7ctqVXxsjQ9fv8iPxTU57SZthZyBMtVlot6voMHhDgxywL1igbwSM3t6SfLQOigwFJVx5Sw3rl/qMa8rMzK0WOTCJhe+coEfHzzTi3KbcpDlm7mVuYnAHQsH+nVTDlUm5lfJ2//IAjl4XzHfjQXiWvPIjhx7ChSZQtkZ+eHHLbdMpNugxm94AzhS2XBG+lvDy7K/I7N/qu8lxnNuNtb5flccp9XsQa2nN13AMCVOpTeGGl/YOmLySU5H73GZkjhkUR9QUenjiUwxQhPUNy3xoK4EVsnOyFHyWKrFMtXkck96NawdTpa2sGEmEnfaamBm8tDzQ7k23nG6F7de6MPbT/OYjlrGXuiahyQwIF87z4NaSfsVcqTrDpI8rPQC1y914/Wir7bL4C4TU4Oq2R7depEPL5o9Oede0GF1a0qZYlsEQUTMUWRT+lxUwyH2drByigtvXuZBNUfUmRJ1tHiJYRhGdmYEmjEvuM86YpjSplzrQ5WbnY52kNOpzawKOWfH9QEy6lgHTFFBBhsySrxxqQe+Is9tWevPTf2r8Smm40IWqkk/2qZ72xUxzGgWprgg/XFqJ75ygQ/vX+kxDS7FAJlJPBJ1y/R7a0Q7Rjr5TmdmSMElM+R8Tvxuca0dZkQj6av3nuHBG5dwWHEGTdTdsxo1fPVCHz640i2euclXZpICcoosEim5ThHjb7ukGKt8qvib8vTfFGEv67xKNqiffPl8N96wuLTbH6+olKfVk5PFKmAYO+DnjckD2/sXoidagaA6ZJUwTOlC/Xq9vw81vh6rhMknOR29L5Z0xdXUctWUDGOKE5LVeO8ZXrx2UXF70nKVPJhWllZKtIJ/QZUmfq89hoi9vSkzcTRTPMyuUPDdy/z4ntgubnIVjQwPQcbUBhuNmJPF51LMiLwyh+dkIco9Kl42340KCXPgz6tUTQO+06CFAjef68f7V0l4UXMM1d13r/DgtisDuGyGhlCO+jhqD6iPdwLV4n43hcjxYRXkmflVilQJzmdXqJyA3Eao7//Qah9eX8KOFpLqpPyOHMjC2ApPq5gxEtdd2No9G493no1/H74S/+/Aq/H9nW/Fx5/9IK574vt40UO/xap778LMfz2K8//7W7z8sR/ika6zrU8zTOniVWOYGWiBW0laJUw+UUKh0NGubfv27dbexKAku1f9eQjbuuQRPSYDyWfO8fPqyRLhU2uj+MO2OOKS6XKfiiU1Ch54bbl1NHk+La7T77clkHB4hneyHb/nDA8+uMpri2H2Zxvi+ObTMQxxNIu00FPidQFTyxS8+wwv3rCkuJ2vTzSn8L77w2gZcv4zS8nkv3qhf9KSSHaxr08XfUoEaw/J06FQm/ml831401K3Y51vUXE5f7A+il9uSpg5hUpFnpEMm5QTinJDfFnUgzMbcm9hp77rpoci+Mfuwk+yzp3mwtcv8pl5WexgMG7gun+H8Wyr8+srPQvvXeExc4N52NFiKyndwIcfiuLO3YmimyucDOoNqF/45Nk+qRZaMfKipVpQPngz/Kl7rBKmmDBEq6IbGlKGauYy1ekVqjg+voz228IV2BtZhO5oCH3JEAbEtq83iEPxeeiOVaIjVoNBvQL9kuWZZBinUOvtxbdWfBPXz/prusNnRqUndAeirkuto4mRUycLaR3/enMcX3g85njjLEGas+dO0/DNi305kWFgnA8Zb77+ZBR/2ZkwpZ+KATLKfP8yP66ZlztH4aOHU/jAA2EzB4mTmVOp4msX+nDB9PwbZZM68LWnYvjpC3HR1hXHs1NqkAzVomoVV89x4RUL3DmT2HMybUM6vvpUHH/bEXdMsvORIKPieVM1/PAKv5knTQZonPOLjXF869m4NDKCtJr/py8KiHrgbMst5c/4y44EbnshgYP9KXN8Wcz4RRe2UNyTa+a6cP0yT94WDSTFhfzXniQ+szaC3phVWABo3HLjCg/et9KeBRIZ7tgaxycfiTr+eSJZtx9e7sM501w8Fy4A3VEDP3guhj9vT6BH1JNid/SSfOTMcuDWi/240IbxNMMQR50syXvY6CcxppMkWo9D4UYk9HT7Ede9iKQ8aIk0oCtWif54EEN6EF3xchwJT0FnrAp9oiycKkOf2GSwGzKMzMwqa8Ufzv4Yzq571iphRiMXThbN6/V+3trH+973PmtvYpCRpMavYFOHjuZBw/HRnyEvTP19Wk3HlAYkwXFGg2ZO6vf36+aKCJm7dVqI/MoFHrz9NC/cObSZ0QR/b6+OzZ26VeI83KqBl8714FUL3aaOdL4hmbB/7Y5jW5dzrwkzMpTv4eIZLly32I0bz/DispluBCSQpMoFZr4i0cg910btnXNbu6C4Hx8604szJcqHo4kGOOBRsaEthVYJIoUo99xbT/PhoiYXPHZpNE0Qt7i2C6tVTA0q6I4Bh0R/XawsrlFx3RIv3rvSiytnuUzZvHxBi4soN8mBfgO7esU4vQCPLf3rltZpZjL/mRX2Ovsox8n61hQODTi3vtLY5hULPbh2nuinJJI3KyZIVm55rYpKUVcoYrHPwX1nLiDJbKqPLxFjasplyTB2oBqD8MYfhFvfzU4WidHhwo6BWfhPy4VY23EWHu06B3868BL8/sC1+PuRy3Ff6zl4tHMlnupaho2987F/qBHt5GRJliGcchf9IhqGcQJNZW34yKLbxbgyYpUwoxH1vgJJdbZ1NDFy6mQhAu60rvbmzpS5EsjJ0IDy+qW5NU4zzocMGItqVMyrcmF/nxzGsZEgB8u5UzUztD/XGuvkjKKVzjt7UjjY78zrs6zWhZvW+NBUbs+MsDNi4N59KewVE27G+bg1MtJqeNVCD94q2vrXLfLg/OmukpPBIKNqY1BFOAlsaE+ZEVlO5M3L3OI+ec22RyaqfIrpqH+qJYWYg6VlSHLoqtluc9wjSwQXyZnNqVCxol4znUK7e3VHX+PxQgb/G5Z78K7TPXjpPLcpl0f1Nd/43em8a5s7UugswDidnH0UwULObrt9fbQgY1mdC8+0in+7A6OZ6XKsbHDhA6u8mBFSzcVrTGGghRhLajTMrVQwGAcODRpFaQyk+vjBVT68epEbIZYJY2yEnSzFgaroaPS3YVX1FpxduxHn1a3HJfWP4UVTH8NLpz0syjZhYegA5oZaUO4ehEIyYXAfjXphGCb/nFOzBW+d/Sdua8dALpwsOZULyxDXgf/sS+ArT8RwwIGrD8n4duPpbjMZOg8oSxeSzWgbMsw8G/9vW0KqPBtkfLq4ScNNa7xYUqvlzVBxeEDHB/8bMfM6OInGoIJfXBXA6XWa6Wyyg00dKXzikSheaC8hkW4JoVWYK6e48LpFLpw71WUawcs8SsmPKSiK5fvrY/jx884TNL5huRefPEv0x5KmxyEH1m83x/G1JyNi0ui8J40MtZc2ufCVC32YXm6PIT/XDIjn97EjKVPCZ2OHbuZNkBG68rMqFLx6ocfMPURStYWIqqMciveJcfot66K252u65Twf3rSkcNGE9K/9z74kPv94FAcctmiCJFBvPseHK2a5bHdAMSNDbU13FHjwQALfey5hLs4qFs6ZquHDq31Y1aCZkoUMYycsF1YaxHUPIikvkhCvSQ+i4jipu7G9fy52Dc5CT7wK67sX4sDADDRHazEozmVVbobJLd9f+R28f8FPrSPmZDguJ8twNnak8JEHw9jeTflaCt9aUv9dG1DwBTHBo/wVPIFhMjzXlsI3no7iiSM6Eg423pBtzKvSKlAPblzhMyPH8g1J/316bQQPHUoVXDOVqixJyPz6xQFzlaedrD2cwof+G5Y28qlYoTpBbTmtCn/VAjdePt9t+7MhE7/ZHMPXnoxjIFEYqaAMpAFPRp03LHaZyZ3LPfJ3yHfvSeAz62JoH9IdIUNp9hcacMMyLz64ymPmJJKdzrCOn2+M47dbEqbjUJaJODm2anwK3rXCjdct9pjyPE7gubYkbvxPBEcG8ivxS89iuRiv3HyuD29c4gxv6nox7vvso1Fs6kwhVWBfCz0NTSEFf3hpGWZXcv/lVEihgfLy/W5L3JQQk80QmBkvzanU8Nblbrx6oduURmOYQsCJ74scah/H2rxkuj3xmRf6TsO2vnlojdbhsY7TsbtvFg5EpqI/kR47GEb6S9PNL7dfDHMqSHNh3aU34Nz6p6wS5mQ43smS4c5dcfx1VxKH+g1Ek2R8ONY4Hv3jo6CbBm96NDJNqfifIr6BRoqjIU7NrG7PDChr/QoubHKZRrgmNsAxI9AXM3DP3iT+vCOOXT26mYPDCXnY6FGmFZ+U72j1FA3vWuHFslp7n2FKkHvfvjj+tjNhapnHkmnZBF38OnK8ZC4TJQfN1O8MqZPMQsnwdPzZJ6KK+u4TlbihjKJ3XHj3GV7bjYX0T/j3noQZ1RPlQJaCQnJSARfJNKmmDBZJCb14jmbKx5n5R5iTQs/yrl4dP98QM3MTULtHkRin8i3T+6OZYbUR+mPqtTP9NPXBFEFKZXQuyRUtrVHxhiVunDXVVTQa8HRtKdfXH7fF8XizbjpbwqKtjInrm6S20byGaeg5piuima9pOS8zwkScRP0ORRqY142ujVUuvsqUe6M2Nqnr6XtifSd9lsY9HnF+uWgfK8RcdHWjhuuXekzZvGKD+uhfbopj7cGEmbOF5HycsJgnA90yyqdR6QXmV2l47WI3LpnhdmS0Vq8Y6/xmS9x0EnZERHtADljzqZwc9DySPFelT8GZU1S8ZbkXS6qdJYF1WIxn7tgawyOHUugIG4iISkb1z45HiS4DLZShaMuXzXfjzaKuFoMjtBTYL+azv94UwwP7k+iM6BhMnLoPLQTpOkiSYDSGVs38T7QQZWWDVhQLGxi54UiWIiG77cvez76ntE+LGeiVzsm80hh3tHKCji029y3GwaGpaIvWYkPvAhwZakRztA5d8RBiugexlBtDSb8YP4t9sTlpTMgwhWSW/wj2XXPZsXrFjIzVZPRUSOJkIcgwQJO3/hhFCoh/g/ir1PglLW/0aCRSdC4ZdNOTvqPGmpN8jAw5lDSVoHwrtEqnPqByKDQzJtqGdDzenMLaQ0ns6NaxtzeFgQIkyPeJZ5ccgvMqVVP+6PxpGpbWqqZUWKGIJIE9Pel8SyQLGEmIOh0X9ZgGSAKaZFL9ziZKlsFRoH/LqXIwUL2lnDOn1bvQECjMvz0u2qHbN8XxxcejVgljF/SMlHsg2nAFU4OqKa+zoErFmY0aFldrppGaGT9UT48M6DjYr5uOgaio2yfDNPCP4nUmI87whQ/kNMiUUB2uFA2aRzPMSLwGcR8p10YxQ23kvl7dlExtD+sYSpBjhNrK9DUkAxclzqfxiaYYphPdIx5mVcw2h8S9IMM39QHVopzGPqr474D4jswYigzhJE1GTmxydFPOEq/4rhofsKhGw4xyBXVi3FPs7OxO4eFDKTzdku6vD4lnmtrrQkELIqYFFcwTbRQ5gGlhxPI6DWUFksYaK/RYtocNbO9Kme1BLq4hOb1pgdOSGlVcE9UcuzsVqq9bO1M4Mkh1NT1nyTfkQJ0ZUrC0zoU6cZ0KOLRjJgglxX9EzBVowcKWLtH+iLpTaOlheq6o3s0UfSzleZpXJdqgWg1rprqkleRkihPTyTJgOVkYeaGhJvWZ1IdlN3+ZY3qlLdOvZvd1mfezobLs7ySGl9E+IY53D81BR6wGnbFK7BqYga5oJboSNTgcqRfj5gDihgcd4QrsG5omTs98kGFKhw/N/RW+s+rr1hEzKlZ7I5WThWFkgyZKe3p1bBUTp03tSTNR6oF+w9SGzwdUr4MexZQ9IuPMaXUqZov9+VVqSRjLnAwZNr/+VAy/2pywSpwNrYy9ZIZmOptppS4ZHrsihhR5hzKGZTLCTy9XTQPB1GA6eTsZL2k1ZrFEPjAMM3koZ0JX1MDO7nR/va0rZRo9qd2zI1F+lReYK9opkrIkhwJFDpEjuJb7bYYpCWheQG3P/j4Dz7YmzLZod08KfWaEnXVSniBnPTlTKN/WAtEOLRDtD42V5laqqA8AIVrZwDAOhJ0sRQIZME7WzmU7SjLnZpdRE3UyhwoxUlmG7O/Leu9IpBH98SDi8KIlXIkf7XwT/t1ykfUuw5QGtFj1oYuvx/l1T6XrCjM6VvvBThaGsQGaINEEipLkU9TGhvakKZlFyXcP9aclJiiqY7xkVpvVl6mmQ4UmREtqNHPFPpVVsmyEY+gI6/jYw1Hcv/8Uy/0dAq1k//YlPjSVq+azS1IW5GA5bEUudEYM7OpOoT0CdEV0c9X8KEEKeYNWNVf7gDo/RaYoZtQWOVJIWqfMDVM2hVb7UxRLJjKRYRjmZFBUT388HZXRMpQ2dG7tFK+96SgXkgGdaJSCmUdIM8x2igyai2tcmFEOM8qSJLGqzDYrPaFhGKY0oTaGNhpnUaTLvt4UNoj5wn6x3x3Vzcj4iUKRj3VijkBOFHLkNoU0cyHWFDFnIJlIkickaTBughgZOCoXlmAni/RQmzOWeWS2oyRz/nidLET25zP72ecSw8r/ceTF+J91304fMEyJsDSwDetf/Fp41UkMPkqMnkp2sjCM7ZDci24opnwOraAlKReS2GgZMtAdScvumDr81gpaM6eIGBhQHgKSEqGoFHKukFGZckvQZIiMMqSkQZuT9MqZNEcGDdxw9xC2dE7QOmczy2tV/OKqwAn5p+h5pTw61OiT9BM5EGmjif/ePgO94pWkUshxSMaBnlg6ioccMBQJQ58nmaLRHDLkOKTn2S923KphrqAkZwnJvM2tUFEmJv8UpVLjVzG/Mp34nHJJkGQcrcakX8YGSoZhcgE1U5TQnNor6rdpn4yflJOI2jNyQFOfTe07LaDIpkH007QKnBy91IYFPSS9k45YoSaKWlZqq6h/5zaLYZiRoDaHRo3k/KV2KC3TaaB1SLRB5IgRryT52B1NS2pTTqBK0ebUB1WUu618KqL9ocUoFT7FXISSyW2miTGW2Q6JiQO3QIyMcCRLEUGN0Chzw+PINFbZ51JDRg1l9nuZMiL7u0crz+zTK23DzxGvyZQLZX/fXFBJWYaxm08v/jW+cvqtx+oEMzpWe8FOFoZhGBug1dD/84+waZiTgbOnavj9S8tMJwbDMAzDMAzDMIxT4EiWIiHb8XEyRjrvZA6W7DLiZOcSloHUZJTvOOuBv+Pp7sXpA4Ypcmo8A1h76ZuwJMQ2/jEj2oxcyIVRE8QwDMOchJYhoC9mHTgcWlRNkSPsYGEYhmEYhmEYxpFkjOKMvIz1Ho50XsYRknmP9rOdJpnXTPlI52bOIzL7I/0t8d7Kqs3WAcMUN1QVLqt/AnXejnQBQYXZ9YU5kbG2Z6eAnSwMwzCngHLvkNyMDJCTheS4GIZhGIZhGIZhGCYv0PR4LIbb0c7LTK8zr5lzhk+7qTzzHdnnZsoyjFRGiLILap+2DhimuKl09eFF9Q+h0t1nlQioXmTqDnMi1GYMbzcmCFviGIZhTgElTJYFcrJQYmaGYRiGYRiGYRhHkiODFiMJp7rfGQMwnZdtDB5env1+9v5IZVmsqX0eQZck0hQMMwlWVu/AeQ0b4daSVglzSqw2QzHi6Z1JwJY4hmGYU7C+VZ4seZQQtSlIo0uGYRiGYRiGYRgHMoIhnJGMURwaJ0BWx7GsWaRzMt9Hr6PtZ/5u9n5WWW/Mje29s/BC73I80HoR/n3kStzV/BLxMzjzPVPclLsjuKLhMcwLHkjXCWZcGJi85j4nvmcYhjkF5/9+EHv75IhmKXMruP3qAC6YrlklDMMwDMMwDMMwzoAT3xcJJ3GemP4OQxGvYk6adV66PPOqmq9QxAlK+vzeqILDgzMRVmowlPAhAQ96Y0Hohgu9qRDahvzYMTAXQ0YF9vVPp08jKc7pT4aQNNzoT5hFDFOSrK7eit+ddRMWVuw5sW5mHJHMqPSU/wxR70uto4nBThaGYZiTEE0BC3/ej4QcPhYE3Qr+8YoyLKnhQEWGYRiGYRiGYZzFUSdL/J604Y8gq1TGCDhSGZH9/khlRPb7dpQR2e+PVEZkv29HGTHez1hlhpj3xgwPkrrHLKO3krpLzIfdYnMhkhL7hleUKuaxbqQ/mCKHiiBpaOiJlaEl0oDmyFRRLs7RVcTgQ1x8ZyQl3h9SsD++GJGkF92xSsTF3wvr5RhIZH4YwzDjIeQO42tLvon3LPyDVXISTtUWECd7344yIvv9kcqI7PcnU6YCPaHfIuq+nN6ZMOxkYRiGOQnPtiZx7d/C1pHzqfIpWHdd0HxlGIZhGIZhGIZxEqaTZYAjWfKKoprOi6FUALGk2yojZ4mGuOFFylAwEPdgUK9EJOVFghwn5EQxPIilgM5YlXgvZH7MEB8cjAcwkAqhP1GGtnAZBo1q07kymBDfn0p/P32vARXhlEd8F89FGcZOXjP1Lvzy7FsQdA2mC7IdCET2PnM81rXprfwVIu4XpcsmCDtZGIZhTsJfd8Tx/v9GrSPnM69SxdrrgtYRwzAMwzAMwzCMc2Any9ihIJEjg/XoStQjnPIjovtNR0lPREFvqhYJBMzzwgkvBpN+U4IratB5XrRHK8VnAohmnCyCpEFRKJ60kyXmwaBRaUaTxM3olLSTJWUAOhtjGUYaVlTsxh/Pfi8Whg6kCzIOFXayjA12sjAMw9jDJx6J4ndb4taR8zl/uoY/XVtmHTEMwzAMwzAMwziH45wsJzMG0iuR/b4dZcR4PzO8THBosBZ9et3Rst5YBSJJn+k46UrUIhxXcCjcgP5UFVrCdUgZGsJ60IwIIcnqpJ7+aDjhE2V+JMT7dA5FkMRTYtO90JV0omYqJ+cL5TUh2a6kbuU7YRimqJni68Ufznw3Lp76/CnbpKOc7Dx6JU72vh1lRPb7I5UR2e9PtMyip4LlwhiGYfLKK/4xhCebxShXEl672IPvXOKzjhiGYRiGYRiGYZyDNJEsGrC1YwbakjPQEa02I0QoEmQoFQRJaEWTwEAUaI7Uo9toMh0bXdEq9CYq0JWoxECC8pVY32WiiP+nLXpmUnjxni7K6LvSlj7aT0PvMQzDnIwa7wB+vPKLeOX0e8i1mm5GTtZ2pJufE5wLJqcqy+zbUZbNqcpO9j3jKRP0hDjxPcMwTN6gQfGq3wygLXy0mXQ8X7nAh7cs91hHDMMwDMMwDMMwzsERThYFeLLjNNzd/CL0pGrN/CO9sTLEyHGSCqA3WYVIUkPUig6h6BEdatopIqaGNE+kZPApIx1JMhyKLCHnCTllWHqLYZhcQu7Yqf4ufGLhz/G2OX9GQAsf5yxgxonldOFIFoZhmDzSPGjgrN8NiEGyVSABv7o6gBfNHnmwzzAMwzAMwzAMU0jGJRc2UhmR/f5EyzIbkTlH0BMrQ3eiDildw1AygBRciCTdCBvlZt6SZErBUBzoiFRiCDXm5yjhe+Y7yADaEys3E8L3pqoxEFcxlCqDDrf5ftzMfXIsT4qJKCeHjKEopoMmpYvzkjClxFK6imjKJ94Xf5vkwsRfoL9hzlHNv80wTCmxNLQP75/3a7x59p3wqZFj7VgGahQyZZn9kcqyyWdZZn+sZdnksyyzT6+C3srbEXFflT6YIOxkYRiGGYW1h5J4w10RMbA92kw6nnteVYbT6zXriGEYhmEYhmEYxjk4Ti4sY2QbyfCWXUZkjglVbJlyimg5+hld/MdKqCLKEikXuuIVSBleUQBEUl5EdbGfOd8irntMB4rpTEkB0ZSCjsRU09nTHw8gZvhM5wxF1ZCTJSH+hKIo0K25akesEnEEzdwsQ0mf+LwfMfF34rqCwaj4vqT4u0olDOV4B08sSRE5qpkAPwM5c9J5YFTxfVYhwzAFxaclcG3jw3jH7P/DxXXr4KK1tVY7k92WMGMk057TtRPteU/FHYi6Lk2XTRB2sjAMw4zCrzbF8dl1UWlCvN2agq1vDaLMnektGIZhGIZhGIZhnIPjEt9nv5fNeMqzvytD5pyTlWU+k12eXUYbOTky+9lkf6/YH0xRzhgfUoaChO42I2ZS5LARn4+JLWG4xOYXJ2uWD0h8oeIynTLkGIrr6tHv1A0VKXjEewr6ohoOxuahPxlEPHXMQUPnhPWA+DuedORNChiIudEcm2W+T9E3/Yky87yoTr/LJV495nnZP51hmJPjUZM4p2o93jzzz7hq+no0+lrSb3BFyg1W29oT+iWinqvTBxOEnSwMwzCjcMtjUfxiQ1yavquxTMH6N5dbRwzDMAzDMAzDMM7CKTlZjk7yMs4LOs6UDy/LMPwzxGjnZ/aHfwcx/L2TnUtQOTH8nPHs00b7Gcxy6yRKNJM5fxg6OWjgNZ0lpmMm6zsoTw2V0cfNXDUa5arxACmxT1E2iiig9+gcsdF30Xlt/QqaldPS32WWucXf19Cf9KAvUYaoXobeRDm6BgzsjJxmRvgQFI3TE69EInW8ckNc/D6SWyPCqaC5SDIqfoNMst8MM5yAlsRVtffhhnn/wuqaF1Dr6YeLIuUydTn7lchFWTZj/YwdZcR4PzPOsp7K3yHquozemTDsZGEYhhkBGvzdcM8QHjigi/2jzaSjWVGv4e5XlVlHDMMwDMMwDMMwzkIKuTAic5whc072KzHS54e/T2SXZ8qyGV4+0vnDy0Z6bzjDy0f6bIbh753sXGJ4+WjnZUPnZEPnZ/5G9nuZcvKnJKlA7KiiQBEHVK5TmSDzGSrLvFKZeD+cAHaEl6MzWoPuRCUG9BDihhcJ8RUR+k5xHp3TPliBhFKGAaNOFJEOnBNJ/wNjKY+4DAbcagK98XJUegYQ190wDMUs+0/reVAoeigaEWU6fD4/korLlJ9jRqbSE8XlDY9bR8dD0Vv0TPg0Wnyb/YDmHnGXUK8dwsKqDsyrbMG5of8iSMFn2c965vnOvDKTx7qWPaGfI+p9SbpsgrCThWEYZgR6Y8Br7xzCpo6UVeJ8XjbPhduuDFhHDMMwDMMwDMMwzsLRcmG0Twx/n8icQ2R/hsg+N/uVGG2fONnniJGOicy5ROb97O8gMvsne81mpHOI4ecPP284I31upDJi+HeM9t7w84iTfTabTDm9Epn9zLn0Sn6VTHnGoD0ZMn8r85oLFE/6N1Ikg/m94kcrcbEvyulHi/d29jTi3LtvR1ev6ZU6iqeiDnFX0DpihvPa6ffhj+d+MH19h98785q7xCUmu9AEbuhYfXbm30nvUiTYcX8qU05QeeY4s1/IMiL7/ZHKiOz3c11GZL8/UhmR/f7wMkFPxW8RdV+ePpggTnXRMgzDFJSOsI7BeC5GWPZxet3xYdMMwzAMwzAMwzCOJWMMy7wS2WXD389HWfZrNhljXAbaH36cec0+N/scImPMy4bOGe38zHu0jfS9o/2ukcqzyRxnnztSGZE5Hl6WvZ95HV5OnyEyZaOR/X7mO7J/V/b3ZJdnyC7LlI+2n012Ge3TlJ+M2uSXoFc6pi3zXvb+WMsy0G+c7EbQqxEX3y22lPihOm10LMrNV3Esytvj05CMi+NhmLJtzKhcXPtkeidzD2nLXH/zntLDIXYyZWPdiMwzkf18jFRGW+Y5pLLM5wk6zrxSOb1ml2VeC1FGnKps+Pu5LiNOVTb8/eFl5j7dgMnBThaGYZgRaB/SEZcspHZqOTfpDMMwDMMwDMMw4yZjcCOyDXDDGX5e9ms2me/I3ojM63BGKh/pM+P5PHGy7yUy+8PPo+ORPjsaJ/ueDCOdc7L90c7Pfm8khr830rnZZZnvG16WIbM/nrJcbUTmdTjDyvf3lCEWIyv9MdweD1KK2zpiRuKMyk0nXuPs658hUzbWjci8EqcqG6k8Q/Z5TO4xHWOTrydskWMYhhmB3b06BhNy9WBN7GRhGIZhGIZhGIZhmJJjfdcSpAyXdZQmpStslz8JNZ4wVtTssI6YkoUqiR5L708CtsgxDMOMQGfEQCwpz3CkwsORLAzDMAzDMAzDMAxTchhAZ6we+jAzr+bzQ1FZLmw0ZgSa4VUT1hFTslAki+pN708CtsgxDMMMIyUGKM2DOmKTl2S0jZqAKhp0XqPCMAzDMAzDMAzDMKVEc7QW27sqkaLcHllomguKIpcMup1cUvOwtceUPMawyjMB2MnCMAwzjM6wbkayyOSymBlS4dG4SWcYhmEYhmEYhmGYUqItUo9IKmAdpdE0DXFdgW7wYszRWFTVbu0xJQ1VEeP4fEYTgS1yDMMwwxiI0ybXQGRmhQqXyoMnhmEYhmEYhmGcTAoKJm/MYhjmGPv7qtAX9VhHaVRNg+qiMo5kGQlNXJbVVeutI6akMeXCjq8/E4GdLAzDMMNoHUqZkSwyMSWgwE2jBIZhGIZhGIZhGMdisJOFYXLMnsGZ6EuErKM0SV0xpdCZkal292Oqr9U6Ykoaqid6PL0/CdjJwjAMM4zeGNAXk2c04lIVTC9XoXFOFoZhGIZhGIZhGIYpGRIpYF9vCINxt1WSxu31QXMdX8YcY37Zdrg56T1DmJEsk68r7GRhGIYZRm/UwIBETpaA6Avqy1RoKkeyMAzDMAzDMAzDMEyp0JOsR0es0YwRyyaeTCGpTz6Zd7GypPIIPBpH1TG5g50sDMMwWUSTBlqGDERTVoEE1PgUBFwcxcIwDMMwDMMwDMMwpURnJISOaIV1lIaS3rt9AUDRrBJmOPPL9sKtsJOFEZhyYZOPamInC8MwTBZDol1tHpRrtce0oIpKLzfnDMMwDMMwDMMwDFNKNIercGiw1jpKQzbj4ZEtzDG8WgpzggfgUlgujEmj5MAhyVY5hmGYLIYSBlqH5IoKqfYDZR4eQDEMwzAMwzAMwzBMKdEVLT8hkoUiWAyOYhmVKlc/pgZ6oCqsCMIIxGOg6IPWwcRhJwvDMEwW4STQFparo63xq/BrPDhgGIZhGIZhGIZhmJLAAGIpNw701WAw5rIKLRQFispOltGocbfDrw5YR0xJQ6Y0sRkYVocmADtZGIZhsggnDLQPySMX5hXjpjkVKkIsF8YwDMMwDMMwDMMwpYECDKWC2D04F/qwNZe6oiGpTN5oXKwsrGhGnY+dLIyFqEtGDlwkbJVjGIaxoIFJy6CO/rhVIAF+MW4KeqwDhmEYhmEYhmEYhmFKgoGYhl3dIesojaqq8Pv91hEzErXebpRpYeuIKXmGOSknCjtZGIZhLMjJcmRQR3L4MhAHU+lV0FDGTTnDMAzDMAzDMAzDlAwGEEn9//bu9beS864D+G/O3ff1XpIm2c2muTW3pmraphS1AakgAUWVaEVfQHnVIlq1RZUQkBeIN6iqQEgIoSIVXvEWwT8AVBUCCQRtSqGXTZs0bbNputlssl7bu/a5DTP2nPi+2X3Wdtbx5yM9mef3eM54PGfPsfN8z8xMxtnlu6qBVeVsRj93z9adNLJhnBp/MSYbN34PDt4kdunlYmYOoLJ6JsvBCVhKs2O1uHXcH1AAAABwmJxfOhIvLmy66X1kUWuNV302m2wux1va56NZ61UjsDuELACV8gyWb184OPdjKU02I452hCwAAABwWOR5Fmcu3ROL3Y1Tuytnshygq3PstxPNl+LOsbNVBbtHyAJQGRR/h5y9NKiqm1+jlsWpqVrc4nJhAAAAcGjkkcUzF2+pqjWtdicGbnq/o+OdS3H72PmqgsIuZZJm5gAq3UF5T5aD84mPepbHsbFsty4fCQAAANzs8tV54a+dO71ar9Nqtaoe25lpXopbxuaqCgruyQKwu75zYRC9A3S1sLFGxANH61UFAAAAHAbl5cJ+eHnjTe9Ll7sH6xLo+6n8oOodnZfilva5XTt7gTcBZ7IA7K4fzR2sP0ba9SzunPE2DgAAAIdGFnH+ylT8ZGG6GljTntw6xqpObTlOdZ5fnVR3SRBGnMkCsLv+56WDcz+WUruxek8WAAAA4PD42quPxVJv6+xwL9yPZScTjSvx6OyzAhb2hNk5gMr/nj9YIcuJsSyOFw0AAAA4BKqzMP79+TtW63Ump6ai72phO2rXl+P0xItVBRWXCwPYPXnxpvrThYP118iJ8SxqMhYAAOAgKf+3q/x8m6Zp19+q18835t9TdDbqdrtVj+2M1ZfirePPbz2m2uFtZcAiZAHYPT+9nMfLS1VxQNw76y0cAAA4gMoPi2maltQGg4gzr95ZFBsNmpNVj+2cHrsQs41Xtz2m2iFtu8gMHUDhuy+XEfbB8vDxetUDAAAADoOzl2+N5y+2q2pNs9WpemznwcnvbpxYH53FoB2+tgeELACFc5f36F12D9094y0cAAAADpNvzj1c9dY0Go1YGu7yR/PfZN555EzVq6w/o0E7XG0PmKEDKCwfsLvDzbYj7j/qTBYAAAA4TL5+7mTVW9NqtSKrN6qK7Tw488OqV9h8ZoN2+NouE7IAFKbbexRl75FHTtSjLWMBAAAOqu0mvTRN27lVvr94f9Vbc3m5H3m+biU2KOdP3nPk61VV2Hxmg3b42i4TsgAUHjlej9oevMnulY/c36p6AAAAB9DmCS9N067eCv1BLZ69eGy1WKc1MRVZZpp3J/eO/SBq65Mq2GVefQCF8tJbb5s9GG+J5Vk3HzjlNGAAAAA4TJ5bPBkvLY5V1ZparfFaEMNW7zv6X1tnwdefJaQdvrbLhCwAlc881o7WAbgE14fubsYtW/+mAgAAAN7Ezl6+LbrDdlWtajSb0c2zcLWwnb3vxPeq3jqbzxTSDlfbZUIWgMov3NWMJ041q+rmdNtEFh97oBH1bA9+IwAAAAA3rafnTsZif+Plw7NyfqDmpq1X8/D4N1c7oyBq/RkN2uFsu0zIAlCZakb83nta8fYTN+cfJ+VZNr/x0Or+yVgAAIADbbtJL03Tdm6FZ+dPxtKgs1pU+lGPYW6SYCfHWlfi0WPPrBajw1QutcPddpmQBaBSBhcPHa3FHzzejoeO1W6qG+GPNbL4zYfa8clH2zFe9AEAAA600USXpmnX1JZ6WTz3ylgs9zdO57bbY9Fobjy7hTV3jL0Yzaz/WlAFe0HIArBOs57FB0834gtPdIplM2Y7WdTeoNNGyu862crigWP1+NxjrfjDx1sxs/HSqwAAAAfP5k/oa5r2uu1872RcHJwoio16g0EMisb2Hpl5OrKVg1jYdEw1bbdk09PTr23uzJkzVQ+Ac4vD+Kcf9uPr54bx7MVBUefRG1Zf3EFvkMcwL9pKRHJ15Qkp5dky9eI/nUbEeNGOtGvRrOUx0cpitp3FPUdq8YFTjXjkuOurAgAAB1t98HzMzD0Z7e5Xd3VyCw6Dr114MH7n3z8XT51/azVSvKbq9YiJYzFoTlQjbPaFh/86nrzvr6KWedNhk3Lqrvhn8erRv42l9odWxxIJWQBex1w34uylYZy/PIz+6/xO7g/z4v05i0GxfD2NWhmylGfKRLSLv4vGm7WV+8I0V/pZTBb9cvn6cQ0AAMDN77WQZfmrr01uAdfmH370RHz+Pz4VLyzMViMRtXpjJWQZNserEdarF+8z//j4p+PDt3/V3ApbVb+HLs5+Ka50fm11LJGQBQAAAIA950wWSPelpz8Sv/+fn4grvbW7P9Sancimjscga1YjrHesNR9fef9vxTtmzHmzjSpkmZv9y7jc+fXVsUTuyQIAAADA/ikDFh8rh2u2NGzHTxaPbghYSvVGY/VsFrZ129jLMd5YrirYO0IWAAAAAPZP9elh4Npc6k/F84u3VtWa8pLlvf7r3Dz2EHto8pmYbi5UFewdIQsAAAAA+8uZLHDN5pY68cLCTFWtqtVq0Wh1ik69GmGz29svRidbqirYO0IWAAAAAICb1CvdmfjB/B1Vtao8GSyXVu6oVhyau6d+HBONxWoE9o6QBQAAAID95XJhcM0u9ztxoXukqlZltXrUWmNVxWazrYW4Y+xCNDKXU2PvCVkAAAAA2HtZK/LalBvfw3Xo5c341tw9sbC09UWTSyt3dKR+PmbqF6oK9paQBQAAAIA9l9fGY9g4URWrC+DqesN6/Gj+tuIlszFkybN69KJZVWx2euJ8nJoQsnB1l2c+HUudX6mqdEIWAAAAAPbcMKaiV38o8my8GgFeT3dQj++8fLSq1oyNuVTY1RxtXYqZ5nxVwTbyLHq1B4rfTTf+WhKyAAAAALAv+o17YtC4s6qA19PPm/Hc0r1VtaaXu+beTupZHneMvRSzjYvVCGyV12eiX7+v6N14RCJkAQAAAGBflBNa/UY5qWWCGK7FwnI9fnxp403vS83OZNVjs069G7e2zker1q1GYKte89EY1I5X1Y0RsgAAAACwL4bZkei2Ho+8Nl2NAFfz1KXH4nJ36xTuUn9Q9djsSOPVeNvkM1UF26lHt/l4DGvHqvrGCFkAAAAA2B9ZFstjH4pB7dZqALiaF69sfa20O2MxrLWqis2mm1fi9Pi5qoKt+o23xnLrfZFnu3NvIyELAAAAAPumn70lliY/VvTqqwPAjr5y9oGqt6bZErBczWTzStw+fr6qYKM8WrHc/kD0m49UIzdOyAIAAADAvrrc+Vj0mlsnj4GNvnVx603vl4cCyp3Usoi3tC7Ebe0XqxHYaNA4GVc6vxrDbKoauXFCFgAAAAD21SA7HgszfxR5bfcmueDN5vzSTDx/aev9i5pj41WPzerZIO4Zf7aqYJOsHt3Oz0e/+c5qYHcIWQAAAADYd0uN98fliU9WFbDZ0wv3x1Ivq6o1S85k2VEZsjw6+4Oqgo2udH4p5sc/E3nWqUZ2h5AFAAAAgP2X1WNx7OOx3PlgNQCs972526remsmpqRia0t1RIxvEA5PPVRWsGTZuifmZP4thfevr6kZ5RQIAAADwhhjUb4uFyd+NfvPBotr6iX04zP71hfuq3ppur1f12E4z68eptsuFsVGejcWl6S/GIJutRnaXkAUAAACAN0y38VjMT34+Bo3TRSVogZFvvPqOqrcm62y9Rwtr7po4HycnX6kqqMWwfmssTn0qllpPVGO7T8gCAAAAwBsnq8dy5xdjYeqz0W++rRqEw+3l7rF44dLW+0YMc0Hk1Tw0/f2IvCo43LJG9FrvivmpJ2Nx/LcjzyaqL+w+IQsAAAAAb6g8OnGl89GYm/nzWJz6/MqlXeAw+9783THIG1W1qtFoRD9z0/uree/st6oeh91S55fj0syfxJWxj8YwO1KN7g0hCwAAAABvuDza0W0+FgsTn4n5mT+OvL43186Hg+C7L01Fb7jxrJVmsxlZbWPwwkb3u+k9WSsWpz4bF6e/GN3G24vfLXv/mhGyAAAAAHDTGGYTsTj28Xhl9u+i234i8mzrJZPgze4bC++K3rBVVauudPsxzF0Layfteh4/O/0vVcXhkhW/OyZjqfPBuHDs7+PS5JOR146ujO8HIQsAAAAAN5l6dJvvjldnvxxzR/4iuu2fi0H9zq2XERvNN29elsr+5vp6lqWyv109GrveZansb66vZ1kq+9vVo7FrWY7ayHb19SxLZX+7ejR2LctRG9muvp5lqexvV4/GrmU5aiPb1dezLJX9zXVhWCzPzh+NQb42dZtlWXQmZ6JWdybLTm5vvRRT22Wyo2N8rctS2d9cX8+yVPa3q0dj17IctZHt6utZlsr+dvVo7FqWozayXX09y1LZ364ejW1eZo3I60ei37g3llofjrmjfxMXj3y5+N3xePHF/Y09sunp6dFuxZkzZ6oeAAAAANwcsuhGq/dUtJb/LZq9b0cMF6Ie85H1LkYtm4usP1+slBfjxcrlLSvK2a7XJuKqNihaOe9WjpfLsi7XHS3Lx5brbd5G2Ua3wSjXHW2vbP2ijda9nm2WRtso103Zr1K5fqlcd7S9G93mXmyjNKpHjy3HR8uUbe7Gfm3exmh/tttGKWWb17tf9eJf9vDW+NRTfxr/fe7e6Pd6kdWylXClXx+LaI1XK7PZXeMX4p8/8InIsvKFWRj2ikPVKF6nS8VxLZ6UvFnUy8WyXSy7kQ/bxbEtvjZ6HkbPTansl9Y/N1d7fle2XTxoUAw0OsXjl4pVG8XbUvGAWjFWK567/pVinWJ/Vp6+Yh+HxVitGBvWI69nkQ2KsXrx2HJ/G8VGy5AtL36GKMayYqz8xuX3yYufobb6M6zuV6vYxnKxjVbxXlhuo9iPvHrMuv3Ki/3Kqv2KYr+y0X71in0ow7vyZyuPXV6MZav7tXLcBsU+rN+vYXkAesUmyuNX7MuW/SrWH+TF7hf7s3m/RserPL7lcSiXK8evaqVy86WVn221O3oO8vp4DPPpyFuzMaifjH7j7lhu/kwMGvet/lxvECELAAAAAAdCFv2oDV+ObLgYtfxS1GIussFcMfZK0S8n++BgG0YzLsfp+L+Fd8d8fzIG/X5kWW1l/nlYzjRnKzP0bGOq0Y/3Hvt20euv1FkZspT3sCkn/4tjGCvhwnJxLNvFkewWY52ivrKy7o3Ki+ctW0kMBiuXOMzypWL7zZWvRF7sT3kW3sr3GgUB68bK4KV8bstApQw9huV69eKRtWK0GFvZzx1+hkIeraJffr1dVGVIMqgeUwYz5T6s7tfa91vbr/LswKzar/LfWPkeu91+vfYzbbNfeVFl5TbLfrEP2UowVGyt3J+V41Auy+ekTE1uTJ5NxDCbjmHtyMrlwMrjfjMQsgAAAABwwJXTz+VEIhx0ZaAy+vg+cBAIWQAAAAAAABKIRQEAAAAAABIIWQAAAAAAABIIWQAAAAAAABIIWQAAAAAAABIIWQAAAAAAABIIWQAAAAAAABIIWQAAAAAAABIIWQAAAAAAABIIWQAAAAAAABIIWQAAAAAAABIIWQAAAAAAABIIWQAAAAAAABIIWQAAAAAAABIIWQAAAAAAABIIWQAAAAAAABIIWQAAAAAAABIIWQAAAAAAABIIWQAAAAAAABIIWQAAAAAAABIIWQAAAAAAABIIWQAAAAAAABIIWQAAAAAAABIIWQAAAAAAABIIWQAAAAAAABIIWQAAAAAAABIIWQAAAAAAABIIWQAAAAAAABIIWQAAAAAAABIIWQAAAAAAABIIWQAAAAAAABIIWQAAAAAAABIIWQAAAAAAABIIWQAAAAAAABIIWQAAAAAAABIIWQAAAAAAABIIWQAAAAAAABIIWQAAAAAAABIIWQAAAAAAABIIWQAAAAAAABIIWQAAAAAAABIIWQAAAAAAABIIWQAAAAAAABIIWQAAAAAAABIIWQAAAAAAABIIWQAAAAAAABIIWQAAAAAAABIIWQAAAAAAABIIWQAAAAAAABIIWQAAAAAAABIIWQAAAAAAABIIWQAAAAAAABIIWQAAAAAAABIIWQAAAAAAABIIWQAAAAAAABIIWQAAAAAAABIIWQAAAAAAABIIWQAAAAAAABIIWQAAAAAAABIIWQAAAAAAABIIWQAAAAAAABIIWQAAAAAAABIIWQAAAAAAABIIWQAAAAAAABIIWQAAAAAAABIIWQAAAAAAABIIWQAAAAAAABIIWQAAAAAAABIIWQAAAAAAABIIWQAAAAAAABIIWQAAAAAAABIIWQAAAAAAABIIWQAAAAAAABIIWQAAAAAAABIIWQAAAAAAABIIWQAAAAAAABIIWQAAAAAAABIIWQAAAAAAABIIWQAAAAAAABIIWQAAAAAAABIIWQAAAAAAABIIWQAAAAAAABIIWQAAAAAAABIIWQAAAAAAABIIWQAAAAAAABIIWQAAAAAAABIIWQAAAAAAABIIWQAAAAAAABIIWQAAAAAAABIIWQAAAAAAABIIWQAAAAAAABIIWQAAAAAAABIIWQAAAAAAABIIWQAAAAAAABIIWQAAAAAAABIIWQAAAAAAABIIWQAAAAAAABIIWQAAAAAAABIIWQAAAAAAABIIWQAAAAAAABIIWQAAAAAAABIIWQAAAAAAABIIWQAAAAAAABIIWQAAAAAAABIIWQAAAAAAABIIWQAAAAAAABIIWQAAAAAAABIIWQAAAAAAABIIWQAAAAAAABIIWQAAAAAAABIIWQAAAAAAABIIWQAAAAAAABIIWQAAAAAAABIIWQAAAAAAABIIWQAAAAAAABIIWQAAAAAAABIIWQAAAAAAABIIWQAAAAAAABIIWQAAAAAAAK5bxP8DdnMTdd4pqksAAAAASUVORK5CYII=;direction=south;" vertex="1" parent="1">
          <mxGeometry y="90" width="114.29" height="320" as="geometry" />
        </mxCell>
      </root>
    </mxGraphModel>
  </diagram>
  <diagram id="YY7ftwzUVRWQEgk84VNg" name="Page-5">
    <mxGraphModel dx="1042" dy="1731" grid="1" gridSize="10" guides="1" tooltips="1" connect="1" arrows="1" fold="1" page="1" pageScale="1" pageWidth="827" pageHeight="1169" math="0" shadow="0">
      <root>
        <mxCell id="0" />
        <mxCell id="1" parent="0" />
        <mxCell id="O47SlSctZCTJuuTgo9ih-1" value="" style="shape=image;verticalLabelPosition=bottom;labelBackgroundColor=default;verticalAlign=top;aspect=fixed;imageAspect=0;image=https://cdn.dribbble.com/userupload/22958587/file/original-acd20c19d9842a57c892286e3a7ba5ff.jpg?resize=752x&amp;vertical=center;" vertex="1" parent="1">
          <mxGeometry x="75" y="-520" width="752" height="564" as="geometry" />
        </mxCell>
      </root>
    </mxGraphModel>
  </diagram>
</mxfile>
